SplineFontDB: 3.2
FontName: Samaano-Wide-Thin
FullName: Samaano Wide Thin
FamilyName: Samaano
Weight: Wide-Thin
Copyright: Copyright 2024 The Samaano Project Authors (https://github.com/mitradranirban/samaano-fonts)
UComments: "2024-8-27: Created with FontForge (http://fontforge.org)"
Version: 0.500
StyleMapFamilyName: Samaano Wide Thin
ItalicAngle: 0
UnderlinePosition: -204
UnderlineWidth: 102
Ascent: 1638
Descent: 410
InvalidEm: 0
UFOAscent: 1638
UFODescent: -410
LayerCount: 2
Layer: 0 0 "Back" 1
Layer: 1 0 "public.default" 0 "glyphs"
StyleMap: 0x0000
FSType: 256
OS2Version: 0
OS2_WeightWidthSlopeOnly: 0
OS2_UseTypoMetrics: 0
CreationTime: 1727458105
ModificationTime: 1727458105
PfmFamily: 16
TTFWeight: 100
TTFWidth: 9
LineGap: 0
VLineGap: 0
Panose: 2 0 2 9 0 2 1 0 0 4
OS2TypoAscent: 2457
OS2TypoAOffset: 0
OS2TypoDescent: -615
OS2TypoDOffset: 0
OS2TypoLinegap: 0
OS2WinAscent: 2476
OS2WinAOffset: 0
OS2WinDescent: 958
OS2WinDOffset: 0
HheadAscent: 2457
HheadAOffset: 0
HheadDescent: -615
HheadDOffset: 0
OS2CapHeight: 1548
OS2XHeight: 1024
OS2FamilyClass: 1031
OS2Vendor: 'anir'
Lookup: 4 0 0 "nuktNuktaFormsinDevanagarilookup0" { "nuktNuktaFormsinDevanagarilookup0 subtable"  } ['nukt' ('deva' <'dflt' > ) ]
Lookup: 4 0 0 "akhnAkhandinDevanagarilookup0" { "akhnAkhandinDevanagarilookup0 subtable"  } ['akhn' ('deva' <'dflt' > ) ]
Lookup: 4 0 0 "rphfRephForminDevanagarilookup0" { "rphfRephForminDevanagarilookup0 subtable"  } ['rphf' ('deva' <'dflt' > ) ]
Lookup: 4 0 0 "blwfBelowBaseFormsinDevanagarilookup0" { "blwfBelowBaseFormsinDevanagarilookup0 subtable"  } ['blwf' ('deva' <'dflt' > ) ]
Lookup: 4 0 0 "halfHalfFormsinDevanagarilookup0" { "halfHalfFormsinDevanagarilookup0 subtable"  } ['half' ('deva' <'dflt' > ) ]
Lookup: 4 0 0 "halnHalantFormsinDevanagarilookup0" { "halnHalantFormsinDevanagarilookup0 subtable"  } ['haln' ('deva' <'dflt' > ) ]

StartChar: .notdef
Encoding: 0 0 0
GlifName: _notdef
Width: 2048
VWidth: 0
Flags: W
LayerCount: 2
Fore
SplineSet
463 -16 m 257
 1461 -16 l 257
 1461 1624 l 257
 463 1624 l 257
 463 -16 l 257
537 64 m 257
 537 1546 l 257
 930 827 l 257
 537 64 l 257
629 64 m 257
 968 750 l 257
 1309 64 l 257
 629 64 l 257
657 1558 m 257
 1288 1558 l 257
 970 909 l 257
 657 1558 l 257
1008 832 m 257
 1384 1559 l 257
 1384 64 l 257
 1008 832 l 257
EndSplineSet
EndChar

StartChar: A
Encoding: 1 65 1
GlifName: A_
Width: 2048
VWidth: 0
GlyphClass: 2
Flags: W
LayerCount: 2
Fore
SplineSet
137 16 m 257
 195 16 l 257
 187 1554 l 257
 128 1554 l 257
 137 16 l 257
187 1494 m 257
 1881 1492 l 257
 1875 1553 l 257
 187 1554 l 257
 187 1494 l 257
181 970 m 257
 178 908 l 257
 1875 911 l 257
 1875 970 l 257
 181 970 l 257
1860 2 m 257
 1920 5 l 257
 1919 1553 l 257
 1859 1553 l 257
 1860 2 l 257
EndSplineSet
EndChar

StartChar: AE
Encoding: 2 198 2
GlifName: A_E_
Width: 2048
VWidth: 0
GlyphClass: 2
Flags: W
LayerCount: 2
Fore
SplineSet
1039.5 62 m 257
 1039.5 0 l 257
 1971.5 0 l 257
 1971.5 62 l 257
 1039.5 62 l 257
76.5 0 m 257
 138.5 0 l 257
 138.5 1548 l 257
 76.5 1548 l 257
 76.5 0 l 257
120.5 1489 m 257
 1949.5 1489 l 257
 1949.5 1548 l 257
 120.5 1548 l 257
 120.5 1489 l 257
124.5 1025 m 257
 124.5 964 l 257
 1897.5 964 l 257
 1897.5 1025 l 257
 124.5 1025 l 257
1014.5 0 m 257
 1074.5 0 l 257
 1074.5 1548 l 257
 1014.5 1548 l 257
 1014.5 0 l 257
EndSplineSet
EndChar

StartChar: B
Encoding: 12 66 12
GlifName: B_
Width: 2048
VWidth: 0
GlyphClass: 2
Flags: W
LayerCount: 2
Fore
SplineSet
122 2 m 257
 189 2 l 257
 171 1554 l 257
 114 1555 l 257
 122 2 l 257
1060 1494 m 257
 1896 1232 l 257
 1899 1288 l 257
 1060 1552 l 257
 1060 1494 l 257
1083 848 m 257
 1895 1232 l 257
 1899 1286 l 257
 1083 908 l 257
 1083 848 l 257
1065 62 m 257
 1065 2 l 257
 1933 434 l 257
 1933 500 l 257
 1065 62 l 257
1071 719 m 257
 1933 430 l 257
 1934 501 l 257
 1069 781 l 257
 1071 719 l 257
168 907 m 257
 168 847 l 257
 1083 847 l 257
 1083 907 l 257
 168 907 l 257
159 781 m 257
 159 721 l 257
 1069 721 l 257
 1069 781 l 257
 159 781 l 257
155 62 m 257
 155 2 l 257
 1065 2 l 257
 1065 62 l 257
 155 62 l 257
150 1554 m 257
 150 1494 l 257
 1060 1494 l 257
 1060 1554 l 257
 150 1554 l 257
EndSplineSet
EndChar

StartChar: C
Encoding: 13 67 13
GlifName: C_
Width: 2048
VWidth: 0
GlyphClass: 2
Flags: W
LayerCount: 2
Fore
SplineSet
71 1554 m 257
 72 0 l 257
 131 0 l 257
 131 1554 l 257
 71 1554 l 257
100 1554 m 257
 100 1495 l 257
 1977 1495 l 257
 1977 1554 l 257
 100 1554 l 257
105 58 m 257
 105 -2 l 257
 1975 -2 l 257
 1975 58 l 257
 105 58 l 257
EndSplineSet
EndChar

StartChar: D
Encoding: 19 68 19
GlifName: D_
Width: 2048
VWidth: 0
GlyphClass: 2
Flags: W
LayerCount: 2
Fore
SplineSet
107.5 1554 m 257
 113.5 1 l 257
 169.5 0 l 257
 168.5 1554 l 257
 107.5 1554 l 257
1247.5 1552 m 257
 1247.5 1493 l 257
 1939.5 961 l 257
 1938.5 1024 l 257
 1247.5 1552 l 257
1248.5 58 m 257
 1248.5 0 l 257
 1939.5 960 l 257
 1940.5 1025 l 257
 1248.5 58 l 257
168.5 1553 m 257
 166.5 1494 l 257
 1247.5 1493 l 257
 1247.5 1553 l 257
 168.5 1553 l 257
169.5 58 m 257
 169.5 0 l 257
 1248.5 0 l 257
 1248.5 58 l 257
 169.5 58 l 257
EndSplineSet
EndChar

StartChar: Dcroat
Encoding: 21 272 21
GlifName: D_croat
Width: 2048
VWidth: 0
GlyphClass: 2
Flags: W
LayerCount: 2
Fore
SplineSet
55.5 935 m 257
 55.5 876 l 257
 468.5 876 l 257
 468.5 935 l 257
 55.5 935 l 257
162.5 1548 m 257
 162.5 0 l 257
 223.5 0 l 257
 223.5 1548 l 257
 162.5 1548 l 257
1512.5 1550 m 257
 1512.5 1488 l 257
 1988.5 906 l 257
 1992.5 1019 l 257
 1512.5 1550 l 257
1520.5 61 m 257
 1520.5 1 l 257
 1988.5 915 l 257
 1992.5 1025 l 257
 1520.5 61 l 257
207.5 1549 m 257
 207.5 1488 l 257
 1512.5 1488 l 257
 1512.5 1549 l 257
 207.5 1549 l 257
203.5 61 m 257
 203.5 0 l 257
 1520.5 0 l 257
 1520.5 61 l 257
 203.5 61 l 257
EndSplineSet
EndChar

StartChar: E
Encoding: 22 69 22
GlifName: E_
Width: 2048
VWidth: 0
GlyphClass: 2
Flags: W
LayerCount: 2
Fore
SplineSet
115.5 1554 m 257
 117.5 0 l 257
 179.5 0 l 257
 174.5 1552 l 257
 115.5 1554 l 257
151.5 1553 m 257
 158.5 1493 l 257
 1914.5 1490 l 257
 1912.5 1553 l 257
 151.5 1553 l 257
158.5 60 m 257
 160.5 0 l 257
 1932.5 -1 l 257
 1927.5 60 l 257
 158.5 60 l 257
157.5 859 m 257
 157.5 798 l 257
 1681.5 798 l 257
 1681.5 859 l 257
 157.5 859 l 257
EndSplineSet
EndChar

StartChar: Eth
Encoding: 32 208 32
GlifName: E_th
Width: 2048
VWidth: 0
GlyphClass: 2
Flags: W
LayerCount: 2
Fore
SplineSet
55 935 m 257
 55 873 l 257
 362 873 l 257
 362 935 l 257
 55 935 l 257
162 1554 m 257
 162 0 l 257
 223 0 l 257
 223 1554 l 257
 162 1554 l 257
1512 1554 m 257
 1512 1484 l 257
 1993 964 l 257
 1993 1024 l 257
 1512 1554 l 257
1520 60 m 257
 1520 1 l 257
 1993 964 l 257
 1993 1024 l 257
 1520 60 l 257
202 1554 m 257
 202 1484 l 257
 1512 1484 l 257
 1512 1554 l 257
 202 1554 l 257
210 60 m 257
 210 0 l 257
 1520 0 l 257
 1520 60 l 257
 210 60 l 257
EndSplineSet
EndChar

StartChar: Euro
Encoding: 33 8364 33
GlifName: E_uro
Width: 2048
VWidth: 0
GlyphClass: 2
Flags: W
LayerCount: 2
Fore
SplineSet
688 520 m 257
 688 451 l 257
 1325 451 l 257
 1325 520 l 257
 688 520 l 257
700 856 m 257
 700 788 l 257
 1309 788 l 257
 1309 856 l 257
 700 856 l 257
956 1026 m 257
 956 179 l 257
 1036 179 l 257
 1036 1026 l 257
 956 1026 l 257
1274.5 1633 m 257
 956 1026 l 257
 1036 1026 l 257
 1299 1607 l 257
 1274.5 1633 l 257
956 179 m 257
 1299.5 -408 l 257
 1360 -405 l 257
 1036 179 l 257
 956 179 l 257
EndSplineSet
PickledDataWithLists: "(dp0
."
EndChar

StartChar: F
Encoding: 34 70 34
GlifName: F_
Width: 2048
VWidth: 0
GlyphClass: 2
Flags: W
LayerCount: 2
Fore
SplineSet
117 1554 m 257
 117 3 l 257
 181 3 l 257
 176 1554 l 257
 117 1554 l 257
176 1554 m 257
 177 1491 l 257
 1931 1497 l 257
 1930 1554 l 257
 176 1554 l 257
167 868 m 257
 168 809 l 257
 1758 806 l 257
 1757 864 l 257
 167 868 l 257
EndSplineSet
EndChar

StartChar: G
Encoding: 35 71 35
GlifName: G_
Width: 2048
VWidth: 0
GlyphClass: 2
Flags: W
LayerCount: 2
Fore
SplineSet
127 1529 m 257
 127 -4 l 257
 186 -4 l 257
 186 1529 l 257
 127 1529 l 257
180 1529 m 257
 180 1469 l 257
 1885 1469 l 257
 1885 1529 l 257
 180 1529 l 257
158 60 m 257
 158 0 l 257
 1921 0 l 257
 1921 60 l 257
 158 60 l 257
1860 561 m 257
 1860 18 l 257
 1921 18 l 257
 1921 561 l 257
 1860 561 l 257
EndSplineSet
PickledDataWithLists: "(dp0
."
EndChar

StartChar: H
Encoding: 39 72 39
GlifName: H_
Width: 2048
VWidth: 0
GlyphClass: 2
Flags: W
LayerCount: 2
Fore
SplineSet
114 1553 m 257
 114 1 l 257
 173 1 l 257
 173 1553 l 257
 114 1553 l 257
1873 1554 m 257
 1873 1 l 257
 1934 1 l 257
 1934 1554 l 257
 1873 1554 l 257
156 923 m 257
 156 864 l 257
 1897 864 l 257
 1897 923 l 257
 156 923 l 257
EndSplineSet
PickledDataWithLists: "(dp0
."
EndChar

StartChar: Hbar
Encoding: 40 294 40
GlifName: H_bar
Width: 2048
VWidth: 0
GlyphClass: 2
Flags: W
LayerCount: 2
Fore
SplineSet
110.5 1540 m 257
 110.5 1 l 257
 169.5 1 l 257
 169.5 1540 l 257
 110.5 1540 l 257
1869.5 1540 m 257
 1869.5 1 l 257
 1930.5 1 l 257
 1930.5 1540 l 257
 1869.5 1540 l 257
149.5 1020 m 257
 149.5 959 l 257
 1885.5 959 l 257
 1885.5 1020 l 257
 149.5 1020 l 257
49.5 1434 m 257
 49.5 1374 l 257
 1998.5 1374 l 257
 1998.5 1434 l 257
 49.5 1434 l 257
EndSplineSet
EndChar

StartChar: I
Encoding: 42 73 42
GlifName: I_
Width: 2048
VWidth: 0
GlyphClass: 2
Flags: W
LayerCount: 2
Fore
SplineSet
154 1550 m 257
 154 1489 l 257
 1879 1489 l 257
 1879 1550 l 257
 154 1550 l 257
1058 1515 m 257
 1058 34 l 257
 1117 34 l 257
 1117 1515 l 257
 1058 1515 l 257
134 66 m 257
 134 6 l 257
 1914 6 l 257
 1914 66 l 257
 134 66 l 257
EndSplineSet
EndChar

StartChar: J
Encoding: 52 74 52
GlifName: J_
Width: 2048
VWidth: 0
GlyphClass: 2
Flags: W
LayerCount: 2
Fore
SplineSet
1864.5 1527 m 257
 1864.5 1 l 257
 1923.5 1 l 257
 1923.5 1527 l 257
 1864.5 1527 l 257
124.5 60 m 257
 124.5 0 l 257
 1890.5 0 l 257
 1890.5 60 l 257
 124.5 60 l 257
124.5 503 m 257
 124.5 29 l 257
 184.5 27 l 257
 184.5 503 l 257
 124.5 503 l 257
EndSplineSet
EndChar

StartChar: K
Encoding: 54 75 54
GlifName: K_
Width: 2048
VWidth: 0
GlyphClass: 2
Flags: W
LayerCount: 2
Fore
SplineSet
172.5 1553 m 257
 172.5 5 l 257
 231.5 5 l 257
 231.5 1553 l 257
 172.5 1553 l 257
230.5 1015 m 257
 233.5 944 l 257
 1842.5 1552 l 257
 1771.5 1554 l 257
 230.5 1015 l 257
230.5 934 m 257
 210.5 844 l 257
 1826.5 3 l 257
 1875.5 1 l 257
 230.5 934 l 257
EndSplineSet
EndChar

StartChar: L
Encoding: 55 76 55
GlifName: L_
Width: 2048
VWidth: 0
GlyphClass: 2
Flags: W
LayerCount: 2
Fore
SplineSet
129.5 1554 m 257
 129.5 0 l 257
 189.5 0 l 257
 189.5 1554 l 257
 129.5 1554 l 257
144.5 61 m 257
 150.5 0 l 257
 1918.5 0 l 257
 1913.5 61 l 257
 144.5 61 l 257
EndSplineSet
EndChar

StartChar: Lcaron
Encoding: 57 317 57
GlifName: L_caron
Width: 2048
VWidth: 0
GlyphClass: 2
Flags: W
LayerCount: 2
Fore
SplineSet
94.5 1542 m 257
 94.5 3 l 257
 155.5 3 l 257
 155.5 1542 l 257
 94.5 1542 l 257
121.5 62 m 257
 121.5 3 l 257
 1953.5 3 l 257
 1953.5 62 l 257
 121.5 62 l 257
488.5 1496 m 257
 488.5 1264 l 257
 528.5 1264 l 257
 528.5 1496 l 257
 488.5 1496 l 257
EndSplineSet
EndChar

StartChar: Lslash
Encoding: 59 321 59
GlifName: L_slash
Width: 2048
VWidth: 0
GlyphClass: 2
Flags: W
LayerCount: 2
Fore
SplineSet
172 1542 m 257
 172 3 l 257
 232 3 l 257
 232 1542 l 257
 172 1542 l 257
196 64 m 257
 196 3 l 257
 2031 3 l 257
 2031 64 l 257
 196 64 l 257
17 902 m 257
 97 866 l 257
 531 1068 l 257
 451 1104 l 257
 17 902 l 257
EndSplineSet
EndChar

StartChar: M
Encoding: 60 77 60
GlifName: M_
Width: 2048
VWidth: 0
GlyphClass: 2
Flags: W
LayerCount: 2
Fore
SplineSet
100.5 1554 m 257
 100.5 2 l 257
 160.5 2 l 257
 160.5 1554 l 257
 100.5 1554 l 257
1886.5 1554 m 257
 1886.5 -3 l 257
 1947.5 -3 l 257
 1947.5 1554 l 257
 1886.5 1554 l 257
100.5 1554 m 257
 1046.5 1033 l 257
 1115.5 1033 l 257
 160.5 1554 l 257
 100.5 1554 l 257
1886.5 1554 m 257
 1047.5 1034 l 257
 1115.5 1033 l 257
 1947.5 1554 l 257
 1886.5 1554 l 257
EndSplineSet
PickledDataWithLists: "(dp0
."
EndChar

StartChar: N
Encoding: 61 78 61
GlifName: N_
Width: 2048
VWidth: 0
GlyphClass: 2
Flags: W
LayerCount: 2
Fore
SplineSet
97.5 1555 m 257
 97.5 -1 l 257
 159.5 0 l 257
 157.5 1554 l 257
 97.5 1555 l 257
1889.5 1554 m 257
 1889.5 0 l 257
 1950.5 0 l 257
 1949.5 1554 l 257
 1889.5 1554 l 257
98.5 1554 m 257
 1889.5 0 l 257
 1950.5 0 l 257
 158.5 1553 l 257
 98.5 1554 l 257
EndSplineSet
PickledDataWithLists: "(dp0
."
EndChar

StartChar: O
Encoding: 65 79 65
GlifName: O_
Width: 2048
VWidth: 0
GlyphClass: 2
Flags: W
LayerCount: 2
Fore
SplineSet
112 1554 m 257
 112 2 l 257
 171 2 l 257
 171 1554 l 257
 112 1554 l 257
1877 1554 m 257
 1877 0 l 257
 1936 0 l 257
 1936 1554 l 257
 1877 1554 l 257
150 1554 m 257
 150 1493 l 257
 1906 1493 l 257
 1906 1554 l 257
 150 1554 l 257
152 61 m 257
 152 0 l 257
 1914 0 l 257
 1914 61 l 257
 152 61 l 257
EndSplineSet
EndChar

StartChar: OE
Encoding: 66 338 66
GlifName: O_E_
Width: 2048
VWidth: 0
GlyphClass: 2
Flags: W
LayerCount: 2
Fore
SplineSet
123 1554 m 257
 123 2 l 257
 182 2 l 257
 182 1554 l 257
 123 1554 l 257
1099 1554 m 257
 1099 0 l 257
 1158 0 l 257
 1158 1554 l 257
 1099 1554 l 257
161 1554 m 257
 161 1493 l 257
 1917 1493 l 257
 1917 1554 l 257
 161 1554 l 257
163 61 m 257
 163 0 l 257
 1925 0 l 257
 1925 61 l 257
 163 61 l 257
1131 859 m 257
 1131 798 l 257
 1866 798 l 257
 1866 859 l 257
 1131 859 l 257
EndSplineSet
EndChar

StartChar: Oslash
Encoding: 74 216 74
GlifName: O_slash
Width: 2048
VWidth: 0
GlyphClass: 2
Flags: W
LayerCount: 2
Fore
SplineSet
1923 1630 m 257
 69 -48 l 257
 109 -75 l 257
 1979 1588 l 257
 1923 1630 l 257
107 1540 m 257
 107 0 l 257
 167 0 l 257
 167 1540 l 257
 107 1540 l 257
1872 1537 m 257
 1872 0 l 257
 1931 0 l 257
 1931 1537 l 257
 1872 1537 l 257
137 1538 m 257
 137 1478 l 257
 1901 1478 l 257
 1901 1538 l 257
 137 1538 l 257
147 75 m 257
 147 0 l 257
 1872 0 l 257
 1872 75 l 257
 147 75 l 257
EndSplineSet
EndChar

StartChar: P
Encoding: 76 80 76
GlifName: P_
Width: 2048
VWidth: 0
GlyphClass: 2
Flags: W
LayerCount: 2
Fore
SplineSet
133 1535 m 257
 131 -1 l 257
 192 -1 l 257
 192 1535 l 257
 133 1535 l 257
133 1552 m 257
 133 1472 l 257
 1917 1472 l 257
 1917 1552 l 257
 133 1552 l 257
1856 1536 m 257
 1856 872 l 257
 1917 872 l 257
 1917 1536 l 257
 1856 1536 l 257
178 927 m 257
 181 866 l 257
 1892 871 l 257
 1889 931 l 257
 178 927 l 257
EndSplineSet
PickledDataWithLists: "(dp0
."
EndChar

StartChar: Q
Encoding: 77 81 77
GlifName: Q_
Width: 2048
VWidth: 0
GlyphClass: 2
Flags: W
LayerCount: 2
Fore
SplineSet
111.5 1554 m 257
 113.5 0 l 257
 172.5 0 l 257
 170.5 1554 l 257
 111.5 1554 l 257
1878.5 1554 m 257
 1878.5 0 l 257
 1936.5 0 l 257
 1936.5 1554 l 257
 1878.5 1554 l 257
151.5 1554 m 257
 151.5 1496 l 257
 1886.5 1496 l 257
 1886.5 1554 l 257
 151.5 1554 l 257
151.5 62 m 257
 151.5 0 l 257
 1887.5 0 l 257
 1887.5 62 l 257
 151.5 62 l 257
1415.5 13 m 257
 1522.5 -204 l 257
 1583.5 -165 l 257
 1464.5 52 l 257
 1415.5 13 l 257
EndSplineSet
PickledDataWithLists: "(dp0
."
EndChar

StartChar: R
Encoding: 78 82 78
GlifName: R_
Width: 2048
VWidth: 0
GlyphClass: 2
Flags: W
LayerCount: 2
Fore
SplineSet
121.5 1550 m 257
 121.5 -1 l 257
 181.5 -1 l 257
 181.5 1550 l 257
 121.5 1550 l 257
163.5 1551 m 257
 163.5 1491 l 257
 1880.5 1491 l 257
 1880.5 1551 l 257
 163.5 1551 l 257
1820.5 1551 m 257
 1820.5 872 l 257
 1907.5 872 l 257
 1907.5 1551 l 257
 1820.5 1551 l 257
151.5 929 m 257
 151.5 868 l 257
 1895.5 868 l 257
 1895.5 929 l 257
 151.5 929 l 257
414.5 870 m 257
 1869.5 1 l 257
 1926.5 1 l 257
 472.5 875 l 257
 414.5 870 l 257
EndSplineSet
PickledDataWithLists: "(dp0
."
EndChar

StartChar: S
Encoding: 81 83 81
GlifName: S_
Width: 2048
VWidth: 0
GlyphClass: 2
Flags: W
LayerCount: 2
Fore
SplineSet
126 1554 m 257
 126 1494 l 257
 1748 1494 l 257
 1748 1554 l 257
 126 1554 l 257
126 1542 m 257
 126 1028 l 257
 185 1028 l 257
 185 1542 l 257
 126 1542 l 257
154 60 m 257
 154 0 l 257
 1886 0 l 257
 1886 60 l 257
 154 60 l 257
1863 0 m 257
 1922 0 l 257
 1922 355 l 257
 1863 355 l 257
 1863 0 l 257
126 1028 m 257
 1863 355 l 257
 1922 355 l 257
 185 1028 l 257
 126 1028 l 257
EndSplineSet
PickledDataWithLists: "(dp0
."
EndChar

StartChar: T
Encoding: 86 84 86
GlifName: T_
Width: 2048
VWidth: 0
GlyphClass: 2
Flags: W
LayerCount: 2
Fore
SplineSet
119.5 1553 m 257
 120.5 1493 l 257
 1928.5 1494 l 257
 1928.5 1554 l 257
 119.5 1553 l 257
1066.5 1512 m 257
 1066.5 12 l 257
 1125.5 12 l 257
 1125.5 1512 l 257
 1066.5 1512 l 257
EndSplineSet
EndChar

StartChar: Thorn
Encoding: 88 222 88
GlifName: T_horn
Width: 2048
VWidth: 0
GlyphClass: 2
Flags: W
LayerCount: 2
Fore
SplineSet
646.5 1545 m 257
 646.5 9 l 257
 705.5 9 l 257
 705.5 1542 l 257
 646.5 1545 l 257
693.5 1240 m 257
 693.5 1187 l 257
 1381.5 1187 l 257
 1381.5 1240 l 257
 693.5 1240 l 257
1341.5 1242 m 257
 1341.5 531 l 257
 1401.5 531 l 257
 1401.5 1242 l 257
 1341.5 1242 l 257
713.5 544 m 257
 713.5 484 l 257
 1400.5 484 l 257
 1400.5 544 l 257
 713.5 544 l 257
EndSplineSet
EndChar

StartChar: U
Encoding: 89 85 89
GlifName: U_
Width: 2048
VWidth: 0
GlyphClass: 2
Flags: W
LayerCount: 2
Fore
SplineSet
156.5 1554 m 257
 156.5 0 l 257
 217.5 0 l 257
 218.5 1554 l 257
 156.5 1554 l 257
1830.5 1553 m 257
 1830.5 0 l 257
 1891.5 0 l 257
 1890.5 1553 l 257
 1830.5 1553 l 257
203.5 61 m 257
 204.5 0 l 257
 1847.5 0 l 257
 1847.5 61 l 257
 203.5 61 l 257
EndSplineSet
PickledDataWithLists: "(dp0
."
EndChar

StartChar: V
Encoding: 100 86 100
GlifName: V_
Width: 2048
VWidth: 0
GlyphClass: 2
Flags: W
LayerCount: 2
Fore
SplineSet
106.5 1551 m 257
 1062.5 0 l 257
 1122.5 0 l 257
 170.5 1553 l 257
 106.5 1551 l 257
1872.5 1549 m 257
 1062.5 0 l 257
 1122.5 0 l 257
 1941.5 1554 l 257
 1872.5 1549 l 257
EndSplineSet
PickledDataWithLists: "(dp0
."
EndChar

StartChar: W
Encoding: 101 87 101
GlifName: W_
Width: 2048
VWidth: 0
GlyphClass: 2
Flags: W
LayerCount: 2
Fore
SplineSet
103 1546 m 257
 103 0 l 257
 163 0 l 257
 163 1546 l 257
 103 1546 l 257
1885 1533 m 257
 1885 12 l 257
 1945 12 l 257
 1945 1533 l 257
 1885 1533 l 257
1069 1028 m 257
 1070 1 l 257
 1128 1 l 257
 1129 1028 l 257
 1069 1028 l 257
111 60 m 257
 112 0 l 257
 1945 0 l 257
 1945 60 l 257
 111 60 l 257
EndSplineSet
PickledDataWithLists: "(dp0
."
EndChar

StartChar: X
Encoding: 106 88 106
GlifName: X_
Width: 2048
VWidth: 0
GlyphClass: 2
Flags: W
LayerCount: 2
Fore
SplineSet
102.5 1554 m 257
 1872.5 -2 l 257
 1945.5 0 l 257
 173.5 1554 l 257
 102.5 1554 l 257
102.5 0 m 257
 172.5 2 l 257
 1945.5 1554 l 257
 1870.5 1554 l 257
 102.5 0 l 257
EndSplineSet
EndChar

StartChar: Y
Encoding: 107 89 107
GlifName: Y_
Width: 2048
VWidth: 0
GlyphClass: 2
Flags: W
LayerCount: 2
Fore
SplineSet
1060 895 m 257
 1066 -2 l 257
 1125 -2 l 257
 1119 895 l 257
 1060 895 l 257
171 1547 m 257
 171 859 l 257
 232 859 l 257
 232 1547 l 257
 171 1547 l 257
1817 1536 m 257
 1817 859 l 257
 1877 859 l 257
 1877 1536 l 257
 1817 1536 l 257
217 919 m 257
 217 859 l 257
 1850 859 l 257
 1850 919 l 257
 217 919 l 257
EndSplineSet
PickledDataWithLists: "(dp0
."
EndChar

StartChar: Z
Encoding: 112 90 112
GlifName: Z_
Width: 2048
VWidth: 0
GlyphClass: 2
Flags: W
LayerCount: 2
Fore
SplineSet
98 1550 m 257
 98 1491 l 257
 1950 1491 l 257
 1950 1550 l 257
 98 1550 l 257
99 60 m 257
 99 1 l 257
 1950 1 l 257
 1950 60 l 257
 99 60 l 257
1890 1491 m 257
 99 60 l 257
 159 60 l 257
 1950 1491 l 257
 1890 1491 l 257
EndSplineSet
PickledDataWithLists: "(dp0
."
EndChar

StartChar: a
Encoding: 116 97 116
GlifName: a
Width: 2048
VWidth: 0
GlyphClass: 2
Flags: W
LayerCount: 2
Fore
SplineSet
166 1021 m 257
 166 955 l 257
 1843 957 l 257
 1839 1024 l 257
 166 1021 l 257
1801 1025 m 257
 1822 1 l 257
 1882 1 l 257
 1878 1025 l 257
 1801 1025 l 257
169 602 m 257
 173 539 l 257
 1821 538 l 257
 1817 600 l 257
 169 602 l 257
170 575 m 257
 170 -2 l 257
 256 -1 l 257
 241 577 l 257
 170 575 l 257
179 64 m 257
 178 -2 l 257
 1867 -1 l 257
 1867 74 l 257
 179 64 l 257
EndSplineSet
PickledDataWithLists: "(dp0
."
EndChar

StartChar: acute
Encoding: 120 180 120
GlifName: acute
Width: 2048
VWidth: 0
GlyphClass: 2
Flags: W
LayerCount: 2
Fore
SplineSet
522 1556 m 257
 392 1302 l 257
 480 1256 l 257
 611 1511 l 257
 522 1556 l 257
EndSplineSet
PickledDataWithLists: "(dp0
."
EndChar

StartChar: acutecomb
Encoding: 121 769 121
GlifName: acutecomb
Width: 2048
VWidth: 0
GlyphClass: 4
Flags: W
LayerCount: 2
Fore
SplineSet
1037 949 m 257
 958 764 l 257
 1011 730 l 257
 1090 915 l 257
 1037 949 l 257
EndSplineSet
PickledDataWithLists: "(dp0
."
EndChar

StartChar: ae
Encoding: 123 230 123
GlifName: ae
Width: 2048
VWidth: 0
GlyphClass: 2
Flags: W
LayerCount: 2
Fore
SplineSet
104.5 1023 m 257
 102.5 962 l 257
 1892.5 961 l 257
 1894.5 1022 l 257
 104.5 1023 l 257
1023.5 1023 m 257
 1023.5 1 l 257
 1083.5 1 l 257
 1083.5 1023 l 257
 1023.5 1023 l 257
127.5 599 m 257
 127.5 538 l 257
 1867.5 538 l 257
 1867.5 599 l 257
 127.5 599 l 257
127.5 575 m 257
 127.5 -2 l 257
 187.5 -2 l 257
 187.5 575 l 257
 127.5 575 l 257
125.5 61 m 257
 125.5 1 l 257
 1945.5 1 l 257
 1945.5 61 l 257
 125.5 61 l 257
1862.5 1022 m 257
 1861.5 538 l 257
 1923.5 538 l 257
 1924.5 1022 l 257
 1862.5 1022 l 257
EndSplineSet
EndChar

StartChar: ampersand
Encoding: 126 38 126
GlifName: ampersand
Width: 2048
VWidth: 0
GlyphClass: 2
Flags: W
LayerCount: 2
Fore
SplineSet
772.5 1536 m 257
 1290.5 43 l 257
 1366.5 56 l 257
 850.5 1534 l 257
 772.5 1536 l 257
1315.5 1467 m 257
 1315.5 1536 l 257
 850.5 1536 l 257
 850.5 1467 l 257
 1315.5 1467 l 257
1257.5 1485 m 257
 1257.5 1006 l 257
 1315.5 1006 l 257
 1315.5 1485 l 257
 1257.5 1485 l 257
619.5 1045 m 257
 619.5 985 l 257
 1315.5 985 l 257
 1315.5 1045 l 257
 619.5 1045 l 257
619.5 1045 m 257
 619.5 24 l 257
 710.5 24 l 257
 710.5 1045 l 257
 619.5 1045 l 257
619.5 71 m 257
 619.5 6 l 257
 1428.5 6 l 257
 1428.5 71 l 257
 619.5 71 l 257
EndSplineSet
PickledDataWithLists: "(dp0
."
EndChar

StartChar: asciicircum
Encoding: 129 94 129
GlifName: asciicircum
Width: 2048
VWidth: 0
GlyphClass: 2
Flags: W
LayerCount: 2
Fore
SplineSet
1022.5 1027 m 257
 950.5 1025 l 257
 685.5 407 l 257
 740.5 373 l 257
 1022.5 1027 l 257
956.5 1023 m 257
 1279.5 364 l 257
 1362.5 400 l 257
 1029.5 1030 l 257
 956.5 1023 l 257
EndSplineSet
PickledDataWithLists: "(dp0
."
EndChar

StartChar: asciitilde
Encoding: 130 126 130
GlifName: asciitilde
Width: 2048
VWidth: 0
GlyphClass: 2
Flags: W
LayerCount: 2
Fore
SplineSet
878.5 766 m 257
 878.5 716 l 257
 1228.5 645 l 257
 1228.5 695 l 257
 878.5 766 l 257
638.5 710 m 257
 651.5 652 l 257
 878.5 716 l 257
 878.5 766 l 257
 638.5 710 l 257
1228.5 695 m 257
 1228.5 645 l 257
 1409.5 796 l 257
 1396.5 843 l 257
 1228.5 695 l 257
EndSplineSet
PickledDataWithLists: "(dp0
."
EndChar

StartChar: asterisk
Encoding: 131 42 131
GlifName: asterisk
Width: 2048
VWidth: 0
GlyphClass: 2
Flags: W
LayerCount: 2
Fore
SplineSet
998.5 1292 m 257
 998.5 289 l 257
 1105.5 289 l 257
 1097.5 1297 l 257
 998.5 1292 l 257
652.5 1153 m 257
 1375.5 424 l 257
 1443.5 496 l 257
 711.5 1222 l 257
 652.5 1153 l 257
1352.5 1200 m 257
 604.5 449 l 257
 659.5 399 l 257
 1404.5 1134 l 257
 1352.5 1200 l 257
EndSplineSet
PickledDataWithLists: "(dp0
."
EndChar

StartChar: at
Encoding: 132 64 132
GlifName: at
Width: 2048
VWidth: 0
GlyphClass: 2
Flags: W
LayerCount: 2
Fore
SplineSet
593.5 1024 m 257
 594.5 956 l 257
 1487.5 956 l 257
 1491.5 1024 l 257
 593.5 1024 l 257
1252.5 598 m 257
 1251.5 -1 l 257
 1321.5 0 l 257
 1319.5 598 l 257
 1252.5 598 l 257
831.5 602 m 257
 833.5 551 l 257
 1256.5 551 l 257
 1256.5 601 l 257
 831.5 602 l 257
828.5 589 m 257
 828.5 12 l 257
 882.5 12 l 257
 882.5 589 l 257
 828.5 589 l 257
826.5 75 m 257
 827.5 -2 l 257
 1320.5 -1 l 257
 1320.5 76 l 257
 826.5 75 l 257
540.5 1024 m 257
 540.5 -223 l 257
 606.5 -223 l 257
 606.5 1024 l 257
 540.5 1024 l 257
538.5 -179 m 257
 538.5 -258 l 257
 1486.5 -258 l 257
 1486.5 -179 l 257
 538.5 -179 l 257
1424.5 1033 m 257
 1424.5 0 l 257
 1509.5 0 l 257
 1509.5 1033 l 257
 1424.5 1033 l 257
1266.5 76 m 257
 1266.5 0 l 257
 1456.5 0 l 257
 1456.5 76 l 257
 1266.5 76 l 257
EndSplineSet
PickledDataWithLists: "(dp0
."
EndChar

StartChar: b
Encoding: 134 98 134
GlifName: b
Width: 2048
VWidth: 0
GlyphClass: 2
Flags: W
LayerCount: 2
Fore
SplineSet
135 1536 m 257
 135 0 l 257
 195 0 l 257
 195 1536 l 257
 135 1536 l 257
178 1033 m 257
 178 972 l 257
 1866 972 l 257
 1866 1033 l 257
 178 1033 l 257
1853 1033 m 257
 1853 0 l 257
 1913 0 l 257
 1913 1033 l 257
 1853 1033 l 257
170 60 m 257
 170 1 l 257
 1891 1 l 257
 1891 60 l 257
 170 60 l 257
EndSplineSet
EndChar

StartChar: backslash
Encoding: 135 92 135
GlifName: backslash
Width: 2048
VWidth: 0
GlyphClass: 2
Flags: W
LayerCount: 2
Fore
SplineSet
707 1550 m 257
 1263 -2 l 257
 1341 0 l 257
 790 1551 l 257
 707 1550 l 257
EndSplineSet
PickledDataWithLists: "(dp0
."
EndChar

StartChar: bar
Encoding: 136 124 136
GlifName: bar
Width: 2048
VWidth: 0
GlyphClass: 2
Flags: W
LayerCount: 2
Fore
SplineSet
983.5 1435 m 257
 983.5 -90 l 257
 1064.5 -90 l 257
 1064.5 1435 l 257
 983.5 1435 l 257
EndSplineSet
PickledDataWithLists: "(dp0
."
EndChar

StartChar: braceleft
Encoding: 137 123 137
GlifName: braceleft
Width: 2048
VWidth: 0
GlyphClass: 2
Flags: W
LayerCount: 2
Fore
SplineSet
1024.5 1600 m 257
 1024.5 838 l 257
 1098.5 838 l 257
 1098.5 1600 l 257
 1024.5 1600 l 257
1036.5 424 m 257
 1036.5 -261 l 257
 1122.5 -261 l 257
 1122.5 424 l 257
 1036.5 424 l 257
735.5 690 m 257
 735.5 630 l 257
 1100.5 836 l 257
 1024.5 838 l 257
 735.5 690 l 257
735.5 690 m 257
 735.5 630 l 257
 1034.5 423 l 257
 1120.5 425 l 257
 735.5 690 l 257
1044.5 1603 m 257
 1050.5 1529 l 257
 1300.5 1571 l 257
 1304.5 1600 l 257
 1044.5 1603 l 257
1042.5 -179 m 257
 1036.5 -260 l 257
 1311.5 -263 l 257
 1312.5 -250 l 257
 1042.5 -179 l 257
EndSplineSet
PickledDataWithLists: "(dp0
."
EndChar

StartChar: braceright
Encoding: 138 125 138
GlifName: braceright
Width: 2048
VWidth: 0
GlyphClass: 2
Flags: W
LayerCount: 2
Fore
SplineSet
1040 1544 m 257
 981 1544 l 257
 980 838 l 257
 1039 838 l 257
 1040 1544 l 257
1026 424 m 257
 966 424 l 257
 966 -286 l 257
 1026 -286 l 257
 1026 424 l 257
1313 690 m 257
 1035 838 l 257
 980 841 l 257
 1313 630 l 257
 1313 690 l 257
1313 690 m 257
 966 424 l 257
 1026 424 l 257
 1313 630 l 257
 1313 690 l 257
1041 1603 m 257
 766 1603 l 257
 770 1574 l 257
 1038 1509 l 257
 1041 1603 l 257
1014 -200 m 257
 735 -274 l 257
 736 -287 l 257
 1011 -284 l 257
 1014 -200 l 257
EndSplineSet
EndChar

StartChar: bracketleft
Encoding: 139 91 139
GlifName: bracketleft
Width: 2048
VWidth: 0
GlyphClass: 2
Flags: W
LayerCount: 2
Fore
SplineSet
890 1542 m 257
 892 -242 l 257
 949 -242 l 257
 947 1542 l 257
 890 1542 l 257
944 1543 m 257
 944 1481 l 257
 1153 1481 l 257
 1153 1543 l 257
 944 1543 l 257
926 -168 m 257
 926 -242 l 257
 1158 -242 l 257
 1158 -168 l 257
 926 -168 l 257
EndSplineSet
PickledDataWithLists: "(dp0
."
EndChar

StartChar: bracketright
Encoding: 140 93 140
GlifName: bracketright
Width: 2048
VWidth: 0
GlyphClass: 2
Flags: W
LayerCount: 2
Fore
SplineSet
1097.5 1542 m 257
 1099.5 -242 l 257
 1162.5 -242 l 257
 1159.5 1542 l 257
 1097.5 1542 l 257
885.5 1543 m 257
 885.5 1478 l 257
 1113.5 1478 l 257
 1113.5 1543 l 257
 885.5 1543 l 257
885.5 -165 m 257
 885.5 -242 l 257
 1124.5 -242 l 257
 1124.5 -165 l 257
 885.5 -165 l 257
EndSplineSet
PickledDataWithLists: "(dp0
."
EndChar

StartChar: breve
Encoding: 141 728 141
GlifName: breve
Width: 2048
VWidth: 0
GlyphClass: 2
Flags: W
LayerCount: 2
Fore
SplineSet
1189 1552 m 257
 1189 1480 l 257
 1354 1552 l 257
 1354 1645 l 257
 1189 1552 l 257
865 1552 m 257
 864 1480 l 257
 1189 1480 l 257
 1189 1552 l 257
 865 1552 l 257
694 1630 m 257
 694 1552 l 257
 865 1480 l 257
 865 1550 l 257
 694 1630 l 257
EndSplineSet
EndChar

StartChar: brokenbar
Encoding: 142 166 142
GlifName: brokenbar
Width: 2048
VWidth: 0
GlyphClass: 2
Flags: W
VStem: 932 110
LayerCount: 2
Fore
SplineSet
1002.4 -332 m 257
 1045.6 -332 l 257
 1045.6 682 l 257
 1002.4 682 l 257
 1002.4 -332 l 257
1008.8 790 m 257
 1045.6 790 l 257
 1045.6 1636 l 257
 1008.8 1636 l 257
 1008.8 790 l 257
EndSplineSet
PickledDataWithLists: "(dp0
Vcom.fontlab.hintData
p1
(dp2
Vvhints
p3
(lp4
(dp5
Vposition
p6
I932
sVwidth
p7
I110
sass."
EndChar

StartChar: bullet
Encoding: 143 8226 143
GlifName: bullet
Width: 2048
VWidth: 0
GlyphClass: 2
Flags: W
LayerCount: 2
Fore
SplineSet
947 1009 m 257
 947 844 l 257
 1101 844 l 257
 1101 1009 l 257
 947 1009 l 257
EndSplineSet
EndChar

StartChar: c
Encoding: 144 99 144
GlifName: c
Width: 2048
VWidth: 0
GlyphClass: 2
Flags: W
LayerCount: 2
Fore
SplineSet
163.5 1026 m 257
 165.5 967 l 257
 1881.5 967 l 257
 1884.5 1027 l 257
 163.5 1026 l 257
166.5 984 m 257
 166.5 -1 l 257
 227.5 0 l 257
 226.5 984 l 257
 166.5 984 l 257
214.5 59 m 257
 214.5 1 l 257
 1878.5 0 l 257
 1878.5 60 l 257
 214.5 59 l 257
EndSplineSet
EndChar

StartChar: caron
Encoding: 146 711 146
GlifName: caron
Width: 2048
VWidth: 0
GlyphClass: 2
Flags: W
LayerCount: 2
Fore
SplineSet
1023 1102 m 257
 882 1429 l 257
 855 1412 l 257
 987 1102 l 257
 1023 1102 l 257
990 1101 m 257
 1027 1101 l 257
 1193 1416 l 257
 1152 1434 l 257
 990 1101 l 257
EndSplineSet
EndChar

StartChar: cedilla
Encoding: 151 184 151
GlifName: cedilla
Width: 2048
VWidth: 0
GlyphClass: 2
Flags: W
HStem: -568 120 -532 84 -304 144
VStem: 804 155 1098 152
LayerCount: 2
Fore
SplineSet
805 187 m 257
 805 -53 l 257
 863 -53 l 257
 863 187 l 257
 805 187 l 257
811 -340 m 257
 811 -401 l 257
 1257 -401 l 257
 1257 -340 l 257
 811 -340 l 257
1198 7 m 257
 1198 -365 l 257
 1257 -365 l 257
 1257 7 l 257
 1198 7 l 257
811 7 m 257
 811 -53 l 257
 1257 -53 l 257
 1257 7 l 257
 811 7 l 257
EndSplineSet
PickledDataWithLists: "(dp0
Vcom.fontlab.hintData
p1
(dp2
Vhhints
p3
(lp4
(dp5
Vposition
p6
I-568
sVwidth
p7
I120
sa(dp8
g6
I-532
sg7
I84
sa(dp9
g6
I-304
sg7
I144
sasVvhints
p10
(lp11
(dp12
g6
I804
sg7
I155
sa(dp13
g6
I1098
sg7
I152
sass."
EndChar

StartChar: cent
Encoding: 152 162 152
GlifName: cent
Width: 2048
VWidth: 0
GlyphClass: 2
Flags: W
LayerCount: 2
Fore
SplineSet
1116 1183 m 257
 1056 1183 l 257
 1056 -86 l 257
 1116 -86 l 257
 1116 1183 l 257
676 1027 m 257
 676 966 l 257
 1372 966 l 257
 1372 1027 l 257
 676 1027 l 257
678 984 m 257
 678 0 l 257
 743 0 l 257
 743 984 l 257
 678 984 l 257
727 61 m 257
 727 0 l 257
 1366 0 l 257
 1366 61 l 257
 727 61 l 257
EndSplineSet
EndChar

StartChar: circumflex
Encoding: 153 710 153
GlifName: circumflex
Width: 2048
VWidth: 0
GlyphClass: 2
Flags: W
LayerCount: 2
Fore
SplineSet
1023.25 2308 m 257
 987.25 2308 l 257
 854.75 1998 l 257
 882.25 1981 l 257
 1023.25 2308 l 257
990.25 2309.5 m 257
 1151.75 1976.5 l 257
 1193.25 1994.5 l 257
 1026.75 2309.5 l 257
 990.25 2309.5 l 257
EndSplineSet
EndChar

StartChar: colon
Encoding: 154 58 154
GlifName: colon
Width: 2048
VWidth: 0
GlyphClass: 2
Flags: W
LayerCount: 2
Fore
SplineSet
955.5 164 m 257
 955.5 7 l 257
 1092.5 7 l 257
 1092.5 164 l 257
 955.5 164 l 257
955.5 553 m 257
 955.5 396 l 257
 1092.5 396 l 257
 1092.5 553 l 257
 955.5 553 l 257
EndSplineSet
PickledDataWithLists: "(dp0
."
EndChar

StartChar: comma
Encoding: 155 44 155
GlifName: comma
Width: 2048
VWidth: 0
GlyphClass: 2
Flags: W
LayerCount: 2
Fore
SplineSet
955.5 165 m 257
 955.5 8 l 257
 1092.5 8 l 257
 1092.5 165 l 257
 955.5 165 l 257
1039.5 135 m 257
 998.5 -99 l 257
 1047.5 -148 l 257
 1090.5 26 l 257
 1039.5 135 l 257
EndSplineSet
PickledDataWithLists: "(dp0
."
EndChar

StartChar: copyright
Encoding: 156 169 156
GlifName: copyright
Width: 2048
VWidth: 0
GlyphClass: 2
Flags: W
VStem: 1322 9 1322 3
LayerCount: 2
Fore
SplineSet
523.5 1540 m 257
 523.5 0 l 257
 583.5 0 l 257
 583.5 1540 l 257
 523.5 1540 l 257
1464.5 1537 m 257
 1464.5 0 l 257
 1524.5 0 l 257
 1524.5 1537 l 257
 1464.5 1537 l 257
575.5 1538 m 257
 575.5 1476 l 257
 1520.5 1476 l 257
 1520.5 1538 l 257
 575.5 1538 l 257
535.5 60 m 257
 535.5 0 l 257
 1506.5 0 l 257
 1506.5 60 l 257
 535.5 60 l 257
769.5 1197 m 257
 769.5 1135 l 257
 1204.5 1135 l 257
 1204.5 1197 l 257
 769.5 1197 l 257
770.5 1154 m 257
 770.5 340 l 257
 829.5 340 l 257
 829.5 1154 l 257
 770.5 1154 l 257
770.5 356 m 257
 770.5 294 l 257
 1210.5 294 l 257
 1210.5 356 l 257
 770.5 356 l 257
EndSplineSet
PickledDataWithLists: "(dp0
Vcom.fontlab.hintData
p1
(dp2
Vvhints
p3
(lp4
(dp5
Vposition
p6
I1322
sVwidth
p7
I9
sa(dp8
g6
I1322
sg7
I3
sass."
EndChar

StartChar: currency
Encoding: 157 164 157
GlifName: currency
Width: 2048
VWidth: 0
GlyphClass: 2
Flags: W
HStem: 119 247 124 247 1084 247 1109 247
VStem: 532 265 538 265 1208 265 1226 265
LayerCount: 2
Fore
SplineSet
610.5 1182 m 257
 610.5 160 l 257
 669.5 160 l 257
 669.5 1182 l 257
 610.5 1182 l 257
1367.5 1184 m 257
 1367.5 160 l 257
 1428.5 160 l 257
 1428.5 1184 l 257
 1367.5 1184 l 257
671.5 1187 m 257
 671.5 1127 l 257
 1372.5 1127 l 257
 1372.5 1187 l 257
 671.5 1187 l 257
656.5 222 m 257
 656.5 160 l 257
 1375.5 160 l 257
 1375.5 222 l 257
 656.5 222 l 257
536.5 1251 m 257
 536.5 1137 l 257
 679.5 1137 l 257
 679.5 1251 l 257
 536.5 1251 l 257
1371.5 1241 m 257
 1371.5 1127 l 257
 1514.5 1127 l 257
 1514.5 1241 l 257
 1371.5 1241 l 257
530.5 223 m 257
 530.5 109 l 257
 673.5 109 l 257
 673.5 223 l 257
 530.5 223 l 257
1374.5 220 m 257
 1374.5 106 l 257
 1517.5 106 l 257
 1517.5 220 l 257
 1374.5 220 l 257
EndSplineSet
PickledDataWithLists: "(dp0
Vcom.fontlab.hintData
p1
(dp2
Vhhints
p3
(lp4
(dp5
Vposition
p6
I119
sVwidth
p7
I247
sa(dp8
g6
I124
sg7
I247
sa(dp9
g6
I1084
sg7
I247
sa(dp10
g6
I1109
sg7
I247
sasVvhints
p11
(lp12
(dp13
g6
I532
sg7
I265
sa(dp14
g6
I538
sg7
I265
sa(dp15
g6
I1208
sg7
I265
sa(dp16
g6
I1226
sg7
I265
sass."
EndChar

StartChar: d
Encoding: 158 100 158
GlifName: d
Width: 2048
VWidth: 0
GlyphClass: 2
Flags: W
LayerCount: 2
Fore
SplineSet
1804.5 1552 m 257
 1804.5 -1 l 257
 1864.5 -1 l 257
 1864.5 1552 l 257
 1804.5 1552 l 257
228.5 1026 m 257
 233.5 966 l 257
 1837.5 966 l 257
 1837.5 1026 l 257
 228.5 1026 l 257
183.5 1024 m 257
 183.5 0 l 257
 244.5 1 l 257
 244.5 1024 l 257
 183.5 1024 l 257
224.5 59 m 257
 224.5 1 l 257
 1816.5 -4 l 257
 1816.5 59 l 257
 224.5 59 l 257
EndSplineSet
PickledDataWithLists: "(dp0
."
EndChar

StartChar: dagger
Encoding: 159 8224 159
GlifName: dagger
Width: 2048
VWidth: 0
GlyphClass: 2
Flags: W
LayerCount: 2
Fore
SplineSet
209 1251 m 257
 209 1200 l 257
 815 1200 l 257
 815 1251 l 257
 209 1251 l 257
481 1552 m 257
 482 0 l 257
 547 0 l 257
 547 1552 l 257
 481 1552 l 257
EndSplineSet
EndChar

StartChar: daggerdbl
Encoding: 160 8225 160
GlifName: daggerdbl
Width: 2048
VWidth: 0
GlyphClass: 2
Flags: W
LayerCount: 2
Fore
SplineSet
209 823 m 257
 209 772 l 257
 815 772 l 257
 815 823 l 257
 209 823 l 257
209 1251 m 257
 209 1200 l 257
 815 1200 l 257
 815 1251 l 257
 209 1251 l 257
490 1552 m 257
 490 0 l 257
 552 0 l 257
 552 1552 l 257
 490 1552 l 257
EndSplineSet
EndChar

StartChar: dcaron
Encoding: 161 271 161
GlifName: dcaron
Width: 2048
VWidth: 0
GlyphClass: 2
Flags: W
LayerCount: 2
Fore
SplineSet
1769.5 1527 m 257
 1769.5 0 l 257
 1830.5 0 l 257
 1830.5 1527 l 257
 1769.5 1527 l 257
114.5 1023 m 257
 114.5 962 l 257
 1790.5 962 l 257
 1790.5 1023 l 257
 114.5 1023 l 257
69.5 1022 m 257
 69.5 0 l 257
 128.5 0 l 257
 128.5 1022 l 257
 69.5 1022 l 257
86.5 60 m 257
 86.5 0 l 257
 1782.5 0 l 257
 1782.5 60 l 257
 86.5 60 l 257
1927.5 1496 m 257
 1927.5 1264 l 257
 1978.5 1264 l 257
 1978.5 1496 l 257
 1927.5 1496 l 257
EndSplineSet
EndChar

StartChar: dcroat
Encoding: 162 273 162
GlifName: dcroat
Width: 2048
VWidth: 0
GlyphClass: 2
Flags: W
LayerCount: 2
Fore
SplineSet
1791.5 1527 m 257
 1791.5 0 l 257
 1851.5 0 l 257
 1851.5 1527 l 257
 1791.5 1527 l 257
122.5 1023 m 257
 122.5 962 l 257
 1813.5 962 l 257
 1813.5 1023 l 257
 122.5 1023 l 257
90.5 1022 m 257
 90.5 0 l 257
 149.5 0 l 257
 149.5 1022 l 257
 90.5 1022 l 257
138.5 61 m 257
 138.5 0 l 257
 1803.5 0 l 257
 1803.5 61 l 257
 138.5 61 l 257
1650.5 1260 m 257
 1650.5 1202 l 257
 1957.5 1202 l 257
 1957.5 1260 l 257
 1650.5 1260 l 257
EndSplineSet
EndChar

StartChar: degree
Encoding: 163 176 163
GlifName: degree
Width: 2048
VWidth: 0
GlyphClass: 2
Flags: W
HStem: 1238 309
VStem: 844 360<1179 1488 1179 1488>
LayerCount: 2
Fore
SplineSet
903 1439 m 257
 1153 1439 l 257
 1153 1231 l 257
 903 1231 l 257
 903 1439 l 257
844 1488 m 257
 844 1179 l 257
 1204 1179 l 257
 1204 1488 l 257
 844 1488 l 257
EndSplineSet
PickledDataWithLists: "(dp0
Vcom.fontlab.hintData
p1
(dp2
Vhhints
p3
(lp4
(dp5
Vposition
p6
I1238
sVwidth
p7
I309
sasVvhints
p8
(lp9
(dp10
g6
I844
sg7
I360
sass."
EndChar

StartChar: dieresis
Encoding: 164 168 164
GlifName: dieresis
Width: 2048
VWidth: 0
GlyphClass: 2
Flags: W
HStem: 522 101
VStem: 847 112 1089 112
LayerCount: 2
Fore
SplineSet
865 1024 m 257
 865 923 l 257
 977 923 l 257
 977 1024 l 257
 865 1024 l 257
1107 1024 m 257
 1107 923 l 257
 1219 923 l 257
 1219 1024 l 257
 1107 1024 l 257
EndSplineSet
PickledDataWithLists: "(dp0
Vcom.fontlab.hintData
p1
(dp2
Vhhints
p3
(lp4
(dp5
Vposition
p6
I522
sVwidth
p7
I101
sasVvhints
p8
(lp9
(dp10
g6
I847
sg7
I112
sa(dp11
g6
I1089
sg7
I112
sass."
EndChar

StartChar: divide
Encoding: 165 247 165
GlifName: divide
Width: 2048
VWidth: 0
GlyphClass: 2
Flags: W
LayerCount: 2
Fore
SplineSet
1029.5 279.75 m 257
 1029.5 185.25 l 257
 1182.5 185.25 l 257
 1182.5 279.75 l 257
 1029.5 279.75 l 257
1021.25 1127 m 257
 1021.25 1031 l 257
 1157.75 1031 l 257
 1157.75 1127 l 257
 1021.25 1127 l 257
111 662 m 257
 111 600 l 257
 1937 600 l 257
 1937 662 l 257
 111 662 l 257
EndSplineSet
EndChar

StartChar: dollar
Encoding: 166 36 166
GlifName: dollar
Width: 2048
VWidth: 0
GlyphClass: 2
Flags: W
LayerCount: 2
Fore
SplineSet
638 1539 m 257
 638 1457 l 257
 1236 1457 l 257
 1236 1539 l 257
 638 1539 l 257
638 1542 m 257
 638 1028 l 257
 722 1028 l 257
 722 1542 l 257
 638 1542 l 257
666 69 m 257
 666 0 l 257
 1374 0 l 257
 1374 69 l 257
 666 69 l 257
1330 1 m 257
 1410 1 l 257
 1410 355 l 257
 1330 355 l 257
 1330 1 l 257
638 1028 m 257
 1329 355 l 257
 1410 355 l 257
 722 1028 l 257
 638 1028 l 257
933 1636 m 257
 933 -215 l 257
 1003 -215 l 257
 1003 1636 l 257
 933 1636 l 257
EndSplineSet
PickledDataWithLists: "(dp0
."
EndChar

StartChar: dotaccent
Encoding: 167 729 167
GlifName: dotaccent
Width: 2048
VWidth: 0
GlyphClass: 2
Flags: W
LayerCount: 2
Fore
SplineSet
968 1078 m 257
 968 977 l 257
 1080 977 l 257
 1080 1078 l 257
 968 1078 l 257
EndSplineSet
EndChar

StartChar: dotlessi
Encoding: 168 305 168
GlifName: dotlessi
Width: 2048
VWidth: 0
GlyphClass: 2
Flags: W
HStem: 52 8<1022 1082 1082 1082>
LayerCount: 2
Fore
SplineSet
1022 1022 m 257
 1022 52 l 257
 1082 52 l 257
 1082 1022 l 257
 1022 1022 l 257
141 60 m 257
 141 1 l 257
 1907 1 l 257
 1907 60 l 257
 141 60 l 257
191 1022 m 257
 191 962 l 257
 1039 962 l 257
 1039 1022 l 257
 191 1022 l 257
EndSplineSet
PickledDataWithLists: "(dp0
Vcom.fontlab.hintData
p1
(dp2
Vhhints
p3
(lp4
(dp5
Vposition
p6
I52
sVwidth
p7
I8
sass."
EndChar

StartChar: e
Encoding: 169 101 169
GlifName: e
Width: 2048
VWidth: 0
GlyphClass: 2
Flags: W
LayerCount: 2
Fore
SplineSet
217.5 1024 m 257
 217.5 967 l 257
 1881.5 968 l 257
 1880.5 1025 l 257
 217.5 1024 l 257
165.5 1024 m 257
 164.5 -1 l 257
 230.5 0 l 257
 223.5 1024 l 257
 165.5 1024 l 257
207.5 60 m 257
 207.5 1 l 257
 1876.5 0 l 257
 1876.5 61 l 257
 207.5 60 l 257
186.5 506 m 257
 194.5 445 l 257
 1848.5 446 l 257
 1847.5 506 l 257
 186.5 506 l 257
1822.5 995 m 257
 1821.5 445 l 257
 1883.5 445 l 257
 1881.5 993 l 257
 1822.5 995 l 257
EndSplineSet
EndChar

StartChar: eight
Encoding: 177 56 177
GlifName: eight
Width: 2048
VWidth: 0
GlyphClass: 2
Flags: W
LayerCount: 2
Fore
SplineSet
56 1550 m 257
 62.5 0 l 257
 70.5 0 l 257
 70.5 -3 l 257
 1992.5 -3 l 257
 1993 1549 l 257
 56 1550 l 257
1931 899 m 257
 1931 57 l 257
 119 57 l 257
 119 899 l 257
 1931 899 l 257
1932 959 m 257
 118 959 l 257
 118 1489 l 257
 1932 1489 l 257
 1932 959 l 257
EndSplineSet
EndChar

StartChar: ellipsis
Encoding: 178 8230 178
GlifName: ellipsis
Width: 2048
VWidth: 0
GlyphClass: 2
Flags: W
LayerCount: 2
Fore
SplineSet
179.5 114 m 257
 179.5 0 l 257
 322.5 0 l 257
 322.5 114 l 257
 179.5 114 l 257
436.5 114 m 257
 436.5 0 l 257
 579.5 0 l 257
 579.5 114 l 257
 436.5 114 l 257
701.5 114 m 257
 701.5 0 l 257
 844.5 0 l 257
 844.5 114 l 257
 701.5 114 l 257
EndSplineSet
EndChar

StartChar: emdash
Encoding: 180 8212 180
GlifName: emdash
Width: 2048
VWidth: 0
GlyphClass: 2
Flags: W
LayerCount: 2
Fore
SplineSet
2 600 m 257
 2014 600 l 257
 2014 688 l 257
 2 688 l 257
 2 600 l 257
EndSplineSet
EndChar

StartChar: endash
Encoding: 181 8211 181
GlifName: endash
Width: 2048
VWidth: 0
GlyphClass: 2
Flags: W
LayerCount: 2
Fore
SplineSet
611 600 m 257
 1437 600 l 257
 1437 678 l 257
 611 678 l 257
 611 600 l 257
EndSplineSet
EndChar

StartChar: equal
Encoding: 183 61 183
GlifName: equal
Width: 2048
VWidth: 0
GlyphClass: 2
Flags: W
LayerCount: 2
Fore
SplineSet
615.5 824 m 257
 615.5 724 l 257
 1432.5 724 l 257
 1432.5 824 l 257
 615.5 824 l 257
615.5 540 m 257
 615.5 450 l 257
 1432.5 450 l 257
 1432.5 540 l 257
 615.5 540 l 257
EndSplineSet
PickledDataWithLists: "(dp0
."
EndChar

StartChar: eth
Encoding: 184 240 184
GlifName: eth
Width: 2048
VWidth: 0
GlyphClass: 2
Flags: W
LayerCount: 2
Fore
SplineSet
752.5 1547 m 257
 1855.5 3 l 257
 1904.5 0 l 257
 808.5 1550 l 257
 752.5 1547 l 257
184.5 1023 m 257
 184.5 964 l 257
 1175.5 964 l 257
 1175.5 1023 l 257
 184.5 1023 l 257
143.5 1022 m 257
 143.5 0 l 257
 203.5 0 l 257
 203.5 1022 l 257
 143.5 1022 l 257
189.5 59 m 257
 189.5 0 l 257
 1856.5 0 l 257
 1856.5 59 l 257
 189.5 59 l 257
672.5 1416 m 257
 672.5 1351 l 257
 1016.5 1351 l 257
 1016.5 1416 l 257
 672.5 1416 l 257
EndSplineSet
EndChar

StartChar: exclam
Encoding: 185 33 185
GlifName: exclam
Width: 2048
VWidth: 0
GlyphClass: 2
Flags: W
LayerCount: 2
Fore
SplineSet
990 76 m 257
 1057 76 l 257
 1057 174 l 257
 990 174 l 257
 990 76 l 257
988 411 m 257
 1060 411 l 257
 1060 1429 l 257
 988 1429 l 257
 988 411 l 257
EndSplineSet
EndChar

StartChar: exclamdown
Encoding: 186 161 186
GlifName: exclamdown
Width: 2048
VWidth: 0
GlyphClass: 2
Flags: W
LayerCount: 2
Fore
SplineSet
1054 1520 m 257
 994 1520 l 257
 994 1272 l 257
 1054 1272 l 257
 1054 1520 l 257
1050 1035 m 257
 996 1035 l 257
 1000 17 l 257
 1054 17 l 257
 1050 1035 l 257
EndSplineSet
EndChar

StartChar: f
Encoding: 187 102 187
GlifName: f
Width: 2048
VWidth: 0
GlyphClass: 2
Flags: W
LayerCount: 2
Fore
SplineSet
929 1023 m 257
 929 -409 l 257
 987 -410 l 257
 989 1024 l 257
 929 1023 l 257
930 1023 m 257
 929 963 l 257
 1841 963 l 257
 1840 1024 l 257
 930 1023 l 257
207 462 m 257
 207 402 l 257
 1710 402 l 257
 1710 462 l 257
 207 462 l 257
EndSplineSet
EndChar

StartChar: five
Encoding: 188 53 188
GlifName: five
Width: 2048
VWidth: 0
GlyphClass: 2
Flags: W
LayerCount: 2
Fore
SplineSet
1941 899 m 257
 1942 58 l 257
 59 58 l 257
 55 -2 l 257
 2003.5 -2 l 257
 2001 959 l 257
 120 959 l 257
 120 1492 l 257
 2011 1492 l 257
 2011 1552 l 257
 60 1552 l 257
 59 899 l 257
 1941 899 l 257
EndSplineSet
EndChar

StartChar: four
Encoding: 189 52 189
GlifName: four
Width: 2048
VWidth: 0
GlyphClass: 2
Flags: W
LayerCount: 2
Fore
SplineSet
89.5 761 m 257
 1896 761 l 257
 1896 7 l 257
 1958.5 7 l 257
 1953 1548 l 257
 1893 1548 l 257
 1893 821 l 257
 151 821 l 257
 151 1552 l 257
 91 1552 l 257
 89.5 761 l 257
EndSplineSet
EndChar

StartChar: g
Encoding: 190 103 190
GlifName: g
Width: 2048
VWidth: 0
GlyphClass: 2
Flags: W
LayerCount: 2
Fore
SplineSet
223 1023 m 257
 223 0 l 257
 283 0 l 257
 283 1023 l 257
 223 1023 l 257
263 1021 m 257
 263 962 l 257
 1803 962 l 257
 1803 1021 l 257
 263 1021 l 257
1765 1024 m 257
 1765 -411 l 257
 1825 -411 l 257
 1825 1024 l 257
 1765 1024 l 257
286 58 m 257
 286 -1 l 257
 1767 -1 l 257
 1767 58 l 257
 286 58 l 257
263 -354 m 257
 263 -413 l 257
 1776 -413 l 257
 1776 -354 l 257
 263 -354 l 257
EndSplineSet
EndChar

StartChar: germandbls
Encoding: 194 223 194
GlifName: germandbls
Width: 2048
VWidth: 0
GlyphClass: 2
Flags: W
LayerCount: 2
Fore
SplineSet
588 1084 m 257
 588 1023 l 257
 839 1023 l 257
 839 1084 l 257
 588 1084 l 257
773 1547 m 257
 773 -4 l 257
 837 -4 l 257
 837 1547 l 257
 773 1547 l 257
825 1548 m 257
 825 1488 l 257
 1432 1488 l 257
 1432 1548 l 257
 825 1548 l 257
1398 1548 m 257
 1398 1023 l 257
 1459 1023 l 257
 1459 1548 l 257
 1398 1548 l 257
1402 1062 m 257
 1164 1062 l 257
 1164 826 l 257
 1402 826 l 257
 1402 1062 l 257
1400 848 m 257
 1400 175 l 257
 1458 175 l 257
 1458 848 l 257
 1400 848 l 257
1117 187 m 257
 1117 131 l 257
 1460 131 l 257
 1460 187 l 257
 1117 187 l 257
EndSplineSet
EndChar

StartChar: grave
Encoding: 195 96 195
GlifName: grave
Width: 2048
VWidth: 0
GlyphClass: 2
Flags: W
LayerCount: 2
Fore
SplineSet
937.5 1286 m 257
 1022.5 1057 l 257
 1110.5 1112 l 257
 1018.5 1340 l 257
 937.5 1286 l 257
EndSplineSet
PickledDataWithLists: "(dp0
."
EndChar

StartChar: gravecomb
Encoding: 196 768 196
GlifName: gravecomb
Width: 2048
VWidth: 0
GlyphClass: 4
Flags: W
LayerCount: 2
Fore
SplineSet
931.5 877 m 257
 1056.5 673 l 257
 1116.5 727 l 257
 991.5 932 l 257
 931.5 877 l 257
EndSplineSet
PickledDataWithLists: "(dp0
."
EndChar

StartChar: greater
Encoding: 197 62 197
GlifName: greater
Width: 2048
VWidth: 0
GlyphClass: 2
Flags: W
LayerCount: 2
Fore
SplineSet
1433 632 m 257
 617 1013 l 257
 616 952 l 257
 1433 569 l 257
 1433 632 l 257
1433 632 m 257
 615 186 l 257
 619 122 l 257
 1433 569 l 257
 1433 632 l 257
EndSplineSet
PickledDataWithLists: "(dp0
."
EndChar

StartChar: guillemotleft
Encoding: 198 171 198
GlifName: guillemotleft
Width: 2048
VWidth: 0
GlyphClass: 2
Flags: W
LayerCount: 2
Fore
SplineSet
610 509 m 257
 611 472 l 257
 1049 757 l 257
 1047 784 l 257
 610 509 l 257
610 509 m 257
 611 472 l 257
 978 122 l 257
 986 160 l 257
 610 509 l 257
1028 527 m 257
 1027 498 l 257
 1438 783 l 257
 1438 823 l 257
 1028 527 l 257
1027 527 m 257
 1027 497 l 257
 1393 122 l 257
 1410 149 l 257
 1027 527 l 257
EndSplineSet
EndChar

StartChar: guillemotright
Encoding: 199 187 199
GlifName: guillemotright
Width: 2048
VWidth: 0
GlyphClass: 2
Flags: W
LayerCount: 2
Fore
SplineSet
1438 509 m 257
 1001 784 l 257
 999 757 l 257
 1437 472 l 257
 1438 509 l 257
1438 509 m 257
 1062 160 l 257
 1070 122 l 257
 1437 472 l 257
 1438 509 l 257
1020 527 m 257
 610 823 l 257
 610 783 l 257
 1021 498 l 257
 1020 527 l 257
1021 527 m 257
 638 149 l 257
 655 122 l 257
 1021 497 l 257
 1021 527 l 257
EndSplineSet
EndChar

StartChar: guilsinglleft
Encoding: 200 8249 200
GlifName: guilsinglleft
Width: 2048
VWidth: 0
GlyphClass: 2
Flags: W
LayerCount: 2
Fore
SplineSet
103 652 m 257
 103 569 l 257
 921 946 l 257
 921 1013 l 257
 103 652 l 257
103 652 m 257
 103 569 l 257
 915 122 l 257
 915 199 l 257
 103 652 l 257
EndSplineSet
EndChar

StartChar: guilsinglright
Encoding: 201 8250 201
GlifName: guilsinglright
Width: 2048
VWidth: 0
GlyphClass: 2
Flags: W
LayerCount: 2
Fore
SplineSet
921 632 m 257
 105 1013 l 257
 105 952 l 257
 921 569 l 257
 921 632 l 257
921 632 m 257
 103 186 l 257
 103 122 l 257
 921 569 l 257
 921 632 l 257
EndSplineSet
EndChar

StartChar: h
Encoding: 202 104 202
GlifName: h
Width: 2048
VWidth: 0
GlyphClass: 2
Flags: W
LayerCount: 2
Fore
SplineSet
174 1525 m 257
 174 6 l 257
 233 6 l 257
 233 1525 l 257
 174 1525 l 257
214 1028 m 257
 214 968 l 257
 1827 968 l 257
 1827 1028 l 257
 214 1028 l 257
1815 1028 m 257
 1815 1 l 257
 1874 1 l 257
 1874 1028 l 257
 1815 1028 l 257
EndSplineSet
EndChar

StartChar: hbar
Encoding: 203 295 203
GlifName: hbar
Width: 2048
VWidth: 0
GlyphClass: 2
Flags: W
LayerCount: 2
Fore
SplineSet
242 1541 m 257
 242 6 l 257
 302 6 l 257
 302 1541 l 257
 242 1541 l 257
276 1025 m 257
 276 966 l 257
 1934 966 l 257
 1934 1025 l 257
 276 1025 l 257
1883 1024 m 257
 1883 1 l 257
 1942 1 l 257
 1942 1024 l 257
 1883 1024 l 257
106 1429 m 257
 106 1369 l 257
 562 1369 l 257
 562 1429 l 257
 106 1429 l 257
EndSplineSet
EndChar

StartChar: hungarumlaut
Encoding: 205 733 205
GlifName: hungarumlaut
Width: 2048
VWidth: 0
GlyphClass: 2
Flags: W
LayerCount: 2
Fore
SplineSet
792.5 122 m 257
 857.5 122 l 257
 857.5 370 l 257
 792.5 370 l 257
 792.5 122 l 257
1195.5 122 m 257
 1255.5 122 l 257
 1255.5 370 l 257
 1195.5 370 l 257
 1195.5 122 l 257
EndSplineSet
EndChar

StartChar: hyphen
Encoding: 206 45 206
GlifName: hyphen
Width: 2048
VWidth: 0
GlyphClass: 2
Flags: W
LayerCount: 2
Fore
SplineSet
611 793 m 257
 611 695 l 257
 1437 695 l 257
 1437 793 l 257
 611 793 l 257
EndSplineSet
PickledDataWithLists: "(dp0
."
EndChar

StartChar: i
Encoding: 207 105 207
GlifName: i
Width: 2048
VWidth: 0
GlyphClass: 2
Flags: W
LayerCount: 2
Fore
SplineSet
1022 1022 m 257
 1022 52 l 257
 1082 52 l 257
 1082 1022 l 257
 1022 1022 l 257
141 60 m 257
 141 1 l 257
 1907 1 l 257
 1907 60 l 257
 141 60 l 257
836 1292 m 257
 836 1174 l 257
 949 1174 l 257
 949 1292 l 257
 836 1292 l 257
191 1022 m 257
 191 962 l 257
 1039 962 l 257
 1039 1022 l 257
 191 1022 l 257
EndSplineSet
EndChar

StartChar: j
Encoding: 216 106 216
GlifName: j
Width: 2048
VWidth: 0
GlyphClass: 2
Flags: W
LayerCount: 2
Fore
SplineSet
1791.5 1024 m 257
 1791.5 -411 l 257
 1850.5 -411 l 257
 1850.5 1024 l 257
 1791.5 1024 l 257
197.5 -348 m 257
 197.5 -409 l 257
 1811.5 -409 l 257
 1811.5 -348 l 257
 197.5 -348 l 257
198.5 -6 m 257
 198.5 -378 l 257
 258.5 -378 l 257
 258.5 -6 l 257
 198.5 -6 l 257
1790.5 1201 m 257
 1790.5 1142 l 257
 1849.5 1142 l 257
 1849.5 1201 l 257
 1790.5 1201 l 257
EndSplineSet
EndChar

StartChar: k
Encoding: 218 107 218
GlifName: k
Width: 2048
VWidth: 0
GlyphClass: 2
Flags: W
LayerCount: 2
Fore
SplineSet
88 1535 m 257
 88 5 l 257
 148 5 l 257
 148 1535 l 257
 88 1535 l 257
137 421 m 257
 135 352 l 257
 1794 1024 l 257
 1734 1024 l 257
 137 421 l 257
489 551 m 257
 447 508 l 257
 1899 0 l 257
 1960 0 l 257
 489 551 l 257
EndSplineSet
EndChar

StartChar: l
Encoding: 219 108 219
GlifName: l
Width: 2048
VWidth: 0
GlyphClass: 2
Flags: W
LayerCount: 2
Fore
SplineSet
207 72 m 257
 207 1 l 257
 1841 1 l 257
 1841 72 l 257
 207 72 l 257
1006 1553 m 257
 1006 57 l 257
 1066 57 l 257
 1066 1553 l 257
 1006 1553 l 257
268 1553 m 257
 268 1494 l 257
 1015 1494 l 257
 1015 1553 l 257
 268 1553 l 257
EndSplineSet
EndChar

StartChar: lcaron
Encoding: 221 318 221
GlifName: lcaron
Width: 2048
VWidth: 0
GlyphClass: 2
Flags: W
LayerCount: 2
Fore
SplineSet
195.5 62 m 257
 195.5 2 l 257
 1853.5 2 l 257
 1853.5 62 l 257
 195.5 62 l 257
1003.5 1547 m 257
 1003.5 46 l 257
 1062.5 46 l 257
 1062.5 1547 l 257
 1003.5 1547 l 257
194.5 1548 m 257
 194.5 1489 l 257
 1018.5 1489 l 257
 1018.5 1548 l 257
 194.5 1548 l 257
1142.5 1496 m 257
 1142.5 1264 l 257
 1193.5 1264 l 257
 1193.5 1496 l 257
 1142.5 1496 l 257
EndSplineSet
EndChar

StartChar: less
Encoding: 223 60 223
GlifName: less
Width: 2048
VWidth: 0
GlyphClass: 2
Flags: W
LayerCount: 2
Fore
SplineSet
615 652 m 257
 615 569 l 257
 1432 946 l 257
 1433 1013 l 257
 615 652 l 257
615 652 m 257
 615 569 l 257
 1431 122 l 257
 1427 199 l 257
 615 652 l 257
EndSplineSet
PickledDataWithLists: "(dp0
."
EndChar

StartChar: logicalnot
Encoding: 224 172 224
GlifName: logicalnot
Width: 2048
VWidth: 0
GlyphClass: 2
Flags: W
HStem: 640 295<1241 1288 1288 1294>
VStem: 754 550
LayerCount: 2
Fore
SplineSet
1241 935 m 257
 1241 640 l 257
 1294 640 l 257
 1294 935 l 257
 1241 935 l 257
754 935 m 257
 754 875 l 257
 1288 875 l 257
 1288 935 l 257
 754 935 l 257
EndSplineSet
PickledDataWithLists: "(dp0
Vcom.fontlab.hintData
p1
(dp2
Vhhints
p3
(lp4
(dp5
Vposition
p6
I640
sVwidth
p7
I295
sasVvhints
p8
(lp9
(dp10
g6
I754
sg7
I550
sass."
EndChar

StartChar: lslash
Encoding: 225 322 225
GlifName: lslash
Width: 2048
VWidth: 0
GlyphClass: 2
Flags: W
LayerCount: 2
Fore
SplineSet
195 60 m 257
 195 0 l 257
 1853 0 l 257
 1853 60 l 257
 195 60 l 257
1064 1554 m 257
 1064 22 l 257
 1124 22 l 257
 1124 1554 l 257
 1064 1554 l 257
256 1554 m 257
 256 1493 l 257
 1090 1493 l 257
 1090 1554 l 257
 256 1554 l 257
1327 1047 m 257
 748 710 l 257
 850 702 l 257
 1429 1039 l 257
 1327 1047 l 257
EndSplineSet
EndChar

StartChar: m
Encoding: 226 109 226
GlifName: m
Width: 2048
VWidth: 0
GlyphClass: 2
Flags: W
LayerCount: 2
Fore
SplineSet
334.5 993 m 257
 334.5 1 l 257
 394.5 1 l 257
 394.5 993 l 257
 334.5 993 l 257
1030.5 972 m 257
 1030.5 -2 l 257
 1090.5 -2 l 257
 1090.5 972 l 257
 1030.5 972 l 257
1927.5 976 m 257
 1927.5 1 l 257
 1988.5 1 l 257
 1988.5 976 l 257
 1927.5 976 l 257
59.5 1025 m 257
 60.5 965 l 257
 1988.5 966 l 257
 1988.5 1024 l 257
 59.5 1025 l 257
EndSplineSet
EndChar

StartChar: macron
Encoding: 227 175 227
GlifName: macron
Width: 2048
VWidth: 0
GlyphClass: 2
Flags: W
HStem: 522 78
VStem: 744 560
LayerCount: 2
Fore
SplineSet
737 1019 m 257
 737 977 l 257
 1297 977 l 257
 1297 1019 l 257
 737 1019 l 257
EndSplineSet
PickledDataWithLists: "(dp0
Vcom.fontlab.hintData
p1
(dp2
Vhhints
p3
(lp4
(dp5
Vposition
p6
I522
sVwidth
p7
I78
sasVvhints
p8
(lp9
(dp10
g6
I744
sg7
I560
sass."
EndChar

StartChar: mu
Encoding: 229 181 229
GlifName: mu
Width: 2048
VWidth: 0
GlyphClass: 2
Flags: W
HStem: 0 120
VStem: 702 95 1236 110 1236 80
LayerCount: 2
Fore
SplineSet
1538 935 m 257
 1538 0 l 257
 1663 0 l 257
 1663 935 l 257
 1538 935 l 257
430 60 m 257
 430 0 l 257
 1600 0 l 257
 1600 60 l 257
 430 60 l 257
333 935 m 257
 333 -430 l 257
 462 -430 l 257
 462 935 l 257
 333 935 l 257
EndSplineSet
PickledDataWithLists: "(dp0
Vcom.fontlab.hintData
p1
(dp2
Vhhints
p3
(lp4
(dp5
Vposition
p6
I0
sVwidth
p7
I120
sasVvhints
p8
(lp9
(dp10
g6
I702
sg7
I95
sa(dp11
g6
I1236
sg7
I110
sa(dp12
g6
I1236
sg7
I80
sass."
EndChar

StartChar: multiply
Encoding: 230 215 230
GlifName: multiply
Width: 2048
VWidth: 0
GlyphClass: 2
Flags: W
LayerCount: 2
Fore
SplineSet
92.5 294 m 257
 188.5 295 l 257
 1948.5 1323 l 257
 1866.5 1319 l 257
 92.5 294 l 257
90.5 1325 m 257
 1869.5 289 l 257
 1957.5 288 l 257
 174.5 1322 l 257
 90.5 1325 l 257
EndSplineSet
EndChar

StartChar: n
Encoding: 231 110 231
GlifName: n
Width: 2048
VWidth: 0
GlyphClass: 2
Flags: W
LayerCount: 2
Fore
SplineSet
502 990 m 257
 502 -2 l 257
 563 -2 l 257
 563 990 l 257
 502 990 l 257
1866 976 m 257
 1866 1 l 257
 1926 1 l 257
 1926 976 l 257
 1866 976 l 257
122 1025 m 257
 123 965 l 257
 1925 967 l 257
 1924 1027 l 257
 122 1025 l 257
EndSplineSet
EndChar

StartChar: nine
Encoding: 234 57 234
GlifName: nine
Width: 2048
VWidth: 0
GlyphClass: 2
Flags: W
HStem: -1 209 759 74 868 118 1416 208 1416 95
VStem: 42 203 782 194 782 114
LayerCount: 2
Fore
SplineSet
1945 759 m 257
 1945 59 l 257
 79 59 l 257
 77 -1 l 257
 2006.5 0 l 257
 2001 1554 l 257
 57 1554 l 257
 57 1541 l 257
 57 759 l 257
 1945 759 l 257
1942 818 m 257
 117 818 l 257
 117 1495 l 257
 1942 1495 l 257
 1942 818 l 257
EndSplineSet
PickledDataWithLists: "(dp0
Vcom.fontlab.hintData
p1
(dp2
Vhhints
p3
(lp4
(dp5
Vposition
p6
I-1
sVwidth
p7
I209
sa(dp8
g6
I759
sg7
I74
sa(dp9
g6
I868
sg7
I118
sa(dp10
g6
I1416
sg7
I208
sa(dp11
g6
I1416
sg7
I95
sasVvhints
p12
(lp13
(dp14
g6
I42
sg7
I203
sa(dp15
g6
I782
sg7
I194
sa(dp16
g6
I782
sg7
I114
sass."
EndChar

StartChar: numbersign
Encoding: 236 35 236
GlifName: numbersign
Width: 2048
VWidth: 0
GlyphClass: 2
Flags: W
LayerCount: 2
Fore
SplineSet
741 1184 m 257
 741 99 l 257
 800 99 l 257
 800 1184 l 257
 741 1184 l 257
1236 1192 m 257
 1236 95 l 257
 1307 95 l 257
 1307 1192 l 257
 1236 1192 l 257
617 995 m 257
 617 937 l 257
 1418 937 l 257
 1418 995 l 257
 617 995 l 257
621 493 m 257
 621 417 l 257
 1431 417 l 257
 1431 493 l 257
 621 493 l 257
EndSplineSet
PickledDataWithLists: "(dp0
."
EndChar

StartChar: o
Encoding: 237 111 237
GlifName: o
Width: 2048
VWidth: 0
GlyphClass: 2
Flags: W
LayerCount: 2
Fore
SplineSet
103.5 1024 m 257
 102.5 0 l 257
 163.5 0 l 257
 160 1023 l 257
 103.5 1024 l 257
1884.5 1023 m 257
 1884.5 0 l 257
 1945.5 0 l 257
 1945.5 1023 l 257
 1884.5 1023 l 257
152 1023 m 257
 153 967 l 257
 1888.5 967 l 257
 1889 1023 l 257
 152 1023 l 257
149.5 58 m 257
 150.5 0 l 257
 1896.5 0 l 257
 1892.5 62 l 257
 149.5 58 l 257
EndSplineSet
EndChar

StartChar: oe
Encoding: 242 339 242
GlifName: oe
Width: 2048
VWidth: 0
GlyphClass: 2
Flags: W
LayerCount: 2
Fore
SplineSet
1099 506 m 257
 1102 446 l 257
 1911 446 l 257
 1911 506 l 257
 1099 506 l 257
1886 1023 m 257
 1886 445 l 257
 1945 445 l 257
 1945 1023 l 257
 1886 1023 l 257
93 1024 m 257
 93 0 l 257
 152 0 l 257
 152 1024 l 257
 93 1024 l 257
1060 1024 m 257
 1060 0 l 257
 1121 0 l 257
 1121 1024 l 257
 1060 1024 l 257
148 1024 m 257
 148 964 l 257
 1946 964 l 257
 1946 1024 l 257
 148 1024 l 257
139 62 m 257
 139 0 l 257
 1955 0 l 257
 1955 62 l 257
 139 62 l 257
EndSplineSet
EndChar

StartChar: ogonek
Encoding: 243 731 243
GlifName: ogonek
Width: 2048
VWidth: 0
GlyphClass: 2
Flags: W
LayerCount: 2
Fore
SplineSet
753 -300.3 m 257
 753 -360.3 l 257
 1294 -360.3 l 257
 1294 -300.3 l 257
 753 -300.3 l 257
753 50.7002 m 257
 753 -360.3 l 257
 813 -360.3 l 257
 813 50.7002 l 257
 753 50.7002 l 257
753 50.7002 m 257
 753 -8.2998 l 257
 1295 -8.2998 l 257
 1295 50.7002 l 257
 753 50.7002 l 257
EndSplineSet
EndChar

StartChar: one
Encoding: 247 49 247
GlifName: one
Width: 2048
VWidth: 0
GlyphClass: 2
Flags: W
LayerCount: 2
Fore
SplineSet
1053.5 0 m 257
 1113.5 0 l 257
 1113.5 1551 l 257
 1053.5 1551 l 257
 1053.5 0 l 257
1053.5 1551 m 257
 934.5 1426 l 257
 985.5 1398 l 257
 1113.5 1550 l 257
 1053.5 1551 l 257
EndSplineSet
EndChar

StartChar: onehalf
Encoding: 248 189 248
GlifName: onehalf
Width: 2048
VWidth: 0
GlyphClass: 2
Flags: W
HStem: -8 104 44 52 292 109 565 83
VStem: 726 110 1005 122 1124 2 1311 6 1311 16
LayerCount: 2
Fore
SplineSet
1393 1480 m 257
 96.5996 10 l 257
 199.6 10 l 257
 1496 1480 l 257
 1393 1480 l 257
297 1017 m 257
 361 1017 l 257
 361 1551 l 257
 297 1551 l 257
 297 1017 l 257
297 1551 m 257
 170 1508 l 257
 224 1498 l 257
 361 1551 l 257
 297 1551 l 257
1314 623 m 257
 1604 623 l 257
 1604 381 l 257
 1317 381 l 257
 1317 0 l 257
 1622 0 l 257
 1622 25 l 257
 1340 26 l 257
 1340 356 l 257
 1627 356 l 257
 1627 648 l 257
 1314 648 l 257
 1314 623 l 257
EndSplineSet
PickledDataWithLists: "(dp0
Vcom.fontlab.hintData
p1
(dp2
Vhhints
p3
(lp4
(dp5
Vposition
p6
I-8
sVwidth
p7
I104
sa(dp8
g6
I44
sg7
I52
sa(dp9
g6
I292
sg7
I109
sa(dp10
g6
I565
sg7
I83
sasVvhints
p11
(lp12
(dp13
g6
I726
sg7
I110
sa(dp14
g6
I1005
sg7
I122
sa(dp15
g6
I1124
sg7
I2
sa(dp16
g6
I1311
sg7
I6
sa(dp17
g6
I1311
sg7
I16
sass."
EndChar

StartChar: onequarter
Encoding: 249 188 249
GlifName: onequarter
Width: 2048
VWidth: 0
GlyphClass: 2
Flags: W
HStem: 5 8 306 23 356 42 378 19
VStem: 732 110 1053 81 1307 84
LayerCount: 2
Fore
SplineSet
1562 1480 m 257
 78.75 10 l 257
 181.75 10 l 257
 1665 1480 l 257
 1562 1480 l 257
386 1045 m 257
 420 1045 l 257
 420 1551 l 257
 386 1551 l 257
 386 1045 l 257
386 1551 m 257
 276 1456 l 257
 283 1442 l 257
 419 1551 l 257
 386 1551 l 257
1464 379 m 257
 1803 379 l 257
 1803 7 l 257
 1831 7 l 257
 1828 768 l 257
 1802 768 l 257
 1802 409 l 257
 1490 409 l 257
 1490 770 l 257
 1464 770 l 257
 1464 379 l 257
EndSplineSet
PickledDataWithLists: "(dp0
Vcom.fontlab.hintData
p1
(dp2
Vhhints
p3
(lp4
(dp5
Vposition
p6
I5
sVwidth
p7
I8
sa(dp8
g6
I306
sg7
I23
sa(dp9
g6
I356
sg7
I42
sa(dp10
g6
I378
sg7
I19
sasVvhints
p11
(lp12
(dp13
g6
I732
sg7
I110
sa(dp14
g6
I1053
sg7
I81
sa(dp15
g6
I1307
sg7
I84
sass."
EndChar

StartChar: ordfeminine
Encoding: 250 170 250
GlifName: ordfeminine
Width: 2048
VWidth: 0
GlyphClass: 2
Flags: W
LayerCount: 2
Fore
SplineSet
693 1319 m 257
 693 1252 l 257
 1342 1252 l 257
 1342 1319 l 257
 693 1319 l 257
1304 1320 m 257
 1304 296 l 257
 1381 296 l 257
 1381 1320 l 257
 1304 1320 l 257
696 895 m 257
 696 833 l 257
 1320 833 l 257
 1320 895 l 257
 696 895 l 257
697 872 m 257
 697 294 l 257
 768 294 l 257
 768 872 l 257
 697 872 l 257
706 369 m 257
 706 294 l 257
 1370 294 l 257
 1370 369 l 257
 706 369 l 257
590 67 m 257
 590 4 l 257
 1458 4 l 257
 1458 67 l 257
 590 67 l 257
EndSplineSet
EndChar

StartChar: ordmasculine
Encoding: 251 186 251
GlifName: ordmasculine
Width: 2048
VWidth: 0
GlyphClass: 2
Flags: W
LayerCount: 2
Fore
SplineSet
620 1022 m 257
 620 0 l 257
 679 0 l 257
 679 1022 l 257
 620 1022 l 257
1377 1024 m 257
 1377 0 l 257
 1438 0 l 257
 1438 1024 l 257
 1377 1024 l 257
681 1027 m 257
 681 967 l 257
 1382 967 l 257
 1382 1027 l 257
 681 1027 l 257
666 62 m 257
 666 0 l 257
 1385 0 l 257
 1385 62 l 257
 666 62 l 257
512 -70 m 257
 512 -136 l 257
 1536 -136 l 257
 1536 -70 l 257
 512 -70 l 257
EndSplineSet
EndChar

StartChar: oslash
Encoding: 252 248 252
GlifName: oslash
Width: 2048
VWidth: 0
GlyphClass: 2
Flags: W
LayerCount: 2
Fore
SplineSet
1928.5 1125 m 257
 78.5 -36 l 257
 118.5 -70 l 257
 1969.5 1073 l 257
 1928.5 1125 l 257
111.5 1022 m 257
 111.5 0 l 257
 172.5 0 l 257
 172.5 1022 l 257
 111.5 1022 l 257
1868.5 1024 m 257
 1868.5 0 l 257
 1928.5 0 l 257
 1928.5 1024 l 257
 1868.5 1024 l 257
153.5 1024 m 257
 153.5 963 l 257
 1899.5 963 l 257
 1899.5 1024 l 257
 153.5 1024 l 257
155.5 63 m 257
 155.5 1 l 257
 1904.5 1 l 257
 1904.5 63 l 257
 155.5 63 l 257
EndSplineSet
EndChar

StartChar: p
Encoding: 254 112 254
GlifName: p
Width: 2048
VWidth: 0
GlyphClass: 2
Flags: W
LayerCount: 2
Fore
SplineSet
189.5 1181 m 257
 189.5 -406 l 257
 249.5 -406 l 257
 249.5 1181 l 257
 189.5 1181 l 257
233.5 1024 m 257
 233.5 963 l 257
 1845.5 964 l 257
 1843.5 1024 l 257
 233.5 1024 l 257
235.5 61 m 257
 238.5 1 l 257
 1858.5 1 l 257
 1855.5 61 l 257
 235.5 61 l 257
1795.5 1023 m 257
 1795.5 -1 l 257
 1856.5 -1 l 257
 1853.5 1024 l 257
 1795.5 1023 l 257
EndSplineSet
EndChar

StartChar: paragraph
Encoding: 255 182 255
GlifName: paragraph
Width: 2048
VWidth: 0
GlyphClass: 2
Flags: W
LayerCount: 2
Fore
SplineSet
601.5 1044 m 257
 601.5 985 l 257
 1166.5 985 l 257
 1166.5 1044 l 257
 601.5 1044 l 257
601.5 1552 m 257
 601.5 1000 l 257
 663.5 1000 l 257
 663.5 1552 l 257
 601.5 1552 l 257
601.5 1552 m 257
 601.5 1493 l 257
 1421.5 1493 l 257
 1421.5 1552 l 257
 601.5 1552 l 257
1151.5 1552 m 257
 1151.5 0 l 257
 1216.5 0 l 257
 1216.5 1552 l 257
 1151.5 1552 l 257
1384.5 1552 m 257
 1384.5 0 l 257
 1446.5 0 l 257
 1446.5 1552 l 257
 1384.5 1552 l 257
EndSplineSet
EndChar

StartChar: parenleft
Encoding: 256 40 256
GlifName: parenleft
Width: 2048
VWidth: 0
GlyphClass: 2
Flags: W
LayerCount: 2
Fore
SplineSet
828.5 1026 m 257
 828.5 179 l 257
 956.5 179 l 257
 956.5 1026 l 257
 828.5 1026 l 257
1192.5 1636 m 257
 828.5 1026 l 257
 956.5 1026 l 257
 1219.5 1633 l 257
 1192.5 1636 l 257
828.5 179 m 257
 1165.5 -307 l 257
 1194.5 -309 l 257
 956.5 179 l 257
 828.5 179 l 257
EndSplineSet
PickledDataWithLists: "(dp0
."
EndChar

StartChar: parenright
Encoding: 257 41 257
GlifName: parenright
Width: 2048
VWidth: 0
GlyphClass: 2
Flags: W
LayerCount: 2
Fore
SplineSet
1062.5 1026 m 257
 1062.5 179 l 257
 1190.5 179 l 257
 1190.5 1026 l 257
 1062.5 1026 l 257
857.5 1636 m 257
 1062.5 1026 l 257
 1190.5 1026 l 257
 895.5 1635 l 257
 857.5 1636 l 257
1062.5 179 m 257
 857.5 -307 l 257
 886.5 -309 l 257
 1190.5 179 l 257
 1062.5 179 l 257
EndSplineSet
EndChar

StartChar: percent
Encoding: 258 37 258
GlifName: percent
Width: 2048
VWidth: 0
GlyphClass: 2
Flags: W
LayerCount: 2
Fore
SplineSet
634 444 m 257
 663 417 l 257
 1410 775 l 257
 1391 801 l 257
 634 444 l 257
740 1148 m 257
 740 803 l 257
 771 803 l 257
 771 1148 l 257
 740 1148 l 257
740 1152 m 257
 740 1126 l 257
 1087 1126 l 257
 1087 1152 l 257
 740 1152 l 257
740 826 m 257
 740 789 l 257
 1084 789 l 257
 1084 826 l 257
 740 826 l 257
1051 1152 m 257
 1051 791 l 257
 1087 791 l 257
 1087 1152 l 257
 1051 1152 l 257
1067 436 m 257
 1067 94 l 257
 1110 94 l 257
 1110 436 l 257
 1067 436 l 257
1067 440 m 257
 1067 397 l 257
 1414 397 l 257
 1414 440 l 257
 1067 440 l 257
1067 109 m 257
 1067 77 l 257
 1411 77 l 257
 1411 109 l 257
 1067 109 l 257
1380 440 m 257
 1380 79 l 257
 1414 79 l 257
 1414 440 l 257
 1380 440 l 257
EndSplineSet
PickledDataWithLists: "(dp0
."
EndChar

StartChar: period
Encoding: 259 46 259
GlifName: period
Width: 2048
VWidth: 0
GlyphClass: 2
Flags: W
LayerCount: 2
Fore
SplineSet
952.5 113 m 257
 952.5 -1 l 257
 1095.5 -1 l 257
 1095.5 113 l 257
 952.5 113 l 257
EndSplineSet
PickledDataWithLists: "(dp0
."
EndChar

StartChar: periodcentered
Encoding: 260 183 260
GlifName: periodcentered
Width: 2048
VWidth: 0
GlyphClass: 2
Flags: W
HStem: 899 247
VStem: 900 265
LayerCount: 2
Fore
SplineSet
976 1056 m 257
 976 955 l 257
 1072 955 l 257
 1072 1056 l 257
 976 1056 l 257
EndSplineSet
PickledDataWithLists: "(dp0
Vcom.fontlab.hintData
p1
(dp2
Vhhints
p3
(lp4
(dp5
Vposition
p6
I899
sVwidth
p7
I247
sasVvhints
p8
(lp9
(dp10
g6
I900
sg7
I265
sass."
EndChar

StartChar: perthousand
Encoding: 261 8240 261
GlifName: perthousand
Width: 2048
VWidth: 0
GlyphClass: 2
Flags: W
LayerCount: 2
Fore
SplineSet
1173.5 436 m 257
 1173.5 110 l 257
 1251.5 110 l 257
 1251.5 436 l 257
 1173.5 436 l 257
1173.5 440 m 257
 1173.5 345 l 257
 1520.5 345 l 257
 1520.5 440 l 257
 1173.5 440 l 257
1173.5 159 m 257
 1173.5 77 l 257
 1517.5 77 l 257
 1517.5 159 l 257
 1173.5 159 l 257
1428.5 440 m 257
 1428.5 79 l 257
 1520.5 79 l 257
 1520.5 440 l 257
 1428.5 440 l 257
527.5 522 m 257
 570.5 377 l 257
 1394.5 716 l 257
 1350.5 860 l 257
 527.5 522 l 257
667.5 1148 m 257
 667.5 822 l 257
 745.5 822 l 257
 745.5 1148 l 257
 667.5 1148 l 257
667.5 1152 m 257
 667.5 1057 l 257
 1014.5 1057 l 257
 1014.5 1152 l 257
 667.5 1152 l 257
667.5 871 m 257
 667.5 789 l 257
 1011.5 789 l 257
 1011.5 871 l 257
 667.5 871 l 257
922.5 1152 m 257
 922.5 791 l 257
 1014.5 791 l 257
 1014.5 1152 l 257
 922.5 1152 l 257
772.5 436 m 257
 772.5 110 l 257
 850.5 110 l 257
 850.5 436 l 257
 772.5 436 l 257
772.5 440 m 257
 772.5 345 l 257
 1119.5 345 l 257
 1119.5 440 l 257
 772.5 440 l 257
772.5 159 m 257
 772.5 77 l 257
 1116.5 77 l 257
 1116.5 159 l 257
 772.5 159 l 257
1027.5 440 m 257
 1027.5 79 l 257
 1119.5 79 l 257
 1119.5 440 l 257
 1027.5 440 l 257
EndSplineSet
EndChar

StartChar: plus
Encoding: 262 43 262
GlifName: plus
Width: 2048
VWidth: 0
GlyphClass: 2
Flags: W
LayerCount: 2
Fore
SplineSet
946 1221 m 257
 946 165 l 257
 1056 165 l 257
 1056 1221 l 257
 946 1221 l 257
573 796 m 257
 573 693 l 257
 1475 693 l 257
 1475 796 l 257
 573 796 l 257
EndSplineSet
PickledDataWithLists: "(dp0
."
EndChar

StartChar: plusminus
Encoding: 263 177 263
GlifName: plusminus
Width: 2048
VWidth: 0
GlyphClass: 2
Flags: W
LayerCount: 2
Fore
SplineSet
611 110 m 257
 611 48 l 257
 1437 48 l 257
 1437 110 l 257
 611 110 l 257
978 1221 m 257
 978 228 l 257
 1039 228 l 257
 1039 1221 l 257
 978 1221 l 257
573 744 m 257
 573 686 l 257
 1475 686 l 257
 1475 744 l 257
 573 744 l 257
EndSplineSet
EndChar

StartChar: q
Encoding: 264 113 264
GlifName: q
Width: 2048
VWidth: 0
GlyphClass: 2
Flags: W
LayerCount: 2
Fore
SplineSet
1549.5 1191 m 257
 1549.5 -411 l 257
 1607.5 -410 l 257
 1609.5 1188 l 257
 1549.5 1191 l 257
145.5 1025 m 257
 145.5 961 l 257
 1594.5 961 l 257
 1594.5 1025 l 257
 145.5 1025 l 257
151.5 57 m 257
 151.5 0 l 257
 1567.5 0 l 257
 1567.5 57 l 257
 151.5 57 l 257
137.5 1025 m 257
 137.5 0 l 257
 196.5 0 l 257
 196.5 1025 l 257
 137.5 1025 l 257
1553.5 -344 m 257
 1553.5 -410 l 257
 1910.5 -410 l 257
 1910.5 -344 l 257
 1553.5 -344 l 257
EndSplineSet
EndChar

StartChar: question
Encoding: 265 63 265
GlifName: question
Width: 2048
VWidth: 0
GlyphClass: 2
Flags: W
LayerCount: 2
Fore
SplineSet
880.5 134 m 257
 880.5 0 l 257
 992.5 0 l 257
 991.5 134 l 257
 880.5 134 l 257
703.5 1519 m 257
 703.5 1426 l 257
 1340.5 1426 l 257
 1340.5 1519 l 257
 703.5 1519 l 257
1258.5 1514 m 257
 1258.5 966 l 257
 1344.5 966 l 257
 1344.5 1514 l 257
 1258.5 1514 l 257
880.5 1015 m 257
 880.5 948 l 257
 1344.5 948 l 257
 1344.5 1015 l 257
 880.5 1015 l 257
880.5 1011 m 257
 880.5 392 l 257
 976.5 392 l 257
 976.5 1011 l 257
 880.5 1011 l 257
EndSplineSet
PickledDataWithLists: "(dp0
."
EndChar

StartChar: questiondown
Encoding: 266 191 266
GlifName: questiondown
Width: 2048
VWidth: 0
GlyphClass: 2
Flags: W
VStem: 704 641
LayerCount: 2
Fore
SplineSet
1167.5 1273 m 257
 1167.5 1519 l 257
 1109.5 1519 l 257
 1109.5 1272 l 257
 1167.5 1273 l 257
1344.5 0 m 257
 1344.5 61 l 257
 707.5 61 l 257
 707.5 0 l 257
 1344.5 0 l 257
763.5 5 m 257
 763.5 553 l 257
 703.5 553 l 257
 703.5 5 l 257
 763.5 5 l 257
1167.5 504 m 257
 1167.5 566 l 257
 703.5 566 l 257
 703.5 504 l 257
 1167.5 504 l 257
1167.5 508 m 257
 1167.5 1127 l 257
 1109.5 1127 l 257
 1109.5 508 l 257
 1167.5 508 l 257
EndSplineSet
PickledDataWithLists: "(dp0
Vcom.fontlab.hintData
p1
(dp2
Vvhints
p3
(lp4
(dp5
Vposition
p6
I704
sVwidth
p7
I641
sass."
EndChar

StartChar: quotedbl
Encoding: 267 34 267
GlifName: quotedbl
Width: 2048
VWidth: 0
GlyphClass: 2
Flags: W
LayerCount: 2
Fore
SplineSet
792.5 1326 m 257
 857.5 1326 l 257
 857.5 1574 l 257
 792.5 1574 l 257
 792.5 1326 l 257
1195.5 1326 m 257
 1255.5 1326 l 257
 1255.5 1574 l 257
 1195.5 1574 l 257
 1195.5 1326 l 257
EndSplineSet
PickledDataWithLists: "(dp0
."
EndChar

StartChar: quotedblbase
Encoding: 268 8222 268
GlifName: quotedblbase
Width: 2048
VWidth: 0
GlyphClass: 2
Flags: W
LayerCount: 2
Fore
SplineSet
892 126 m 257
 892 8 l 257
 1001 8 l 257
 1001 126 l 257
 892 126 l 257
892 8 m 257
 822 -118 l 257
 876 -129 l 257
 1001 8 l 257
 892 8 l 257
1117 126 m 257
 1117 8 l 257
 1226 8 l 257
 1226 126 l 257
 1117 126 l 257
1117 8 m 257
 1047 -118 l 257
 1101 -129 l 257
 1226 8 l 257
 1117 8 l 257
EndSplineSet
EndChar

StartChar: quotedblleft
Encoding: 269 8220 269
GlifName: quotedblleft
Width: 2048
VWidth: 0
GlyphClass: 2
Flags: W
LayerCount: 2
Fore
SplineSet
997.25 1952.75 m 257
 997.25 2067.25 l 257
 873.25 2067.25 l 257
 873.25 1952.75 l 257
 997.25 1952.75 l 257
947.75 2003.75 m 257
 1006.75 2144.25 l 257
 935.25 2174.25 l 257
 874.25 2069.25 l 257
 947.75 2003.75 l 257
1165.25 1952.75 m 257
 1165.25 2067.25 l 257
 1041.25 2067.25 l 257
 1041.25 1952.75 l 257
 1165.25 1952.75 l 257
1115.75 2003.75 m 257
 1174.75 2144.25 l 257
 1103.25 2174.25 l 257
 1042.25 2069.25 l 257
 1115.75 2003.75 l 257
EndSplineSet
EndChar

StartChar: quotedblright
Encoding: 270 8221 270
GlifName: quotedblright
Width: 2048
VWidth: 0
GlyphClass: 2
Flags: W
LayerCount: 2
Fore
SplineSet
1046.25 2174.25 m 257
 1046.25 2059.75 l 257
 1170.25 2059.75 l 257
 1170.25 2174.25 l 257
 1046.25 2174.25 l 257
1095.75 2123.25 m 257
 1036.75 1982.75 l 257
 1108.25 1952.75 l 257
 1169.25 2057.75 l 257
 1095.75 2123.25 l 257
887.25 2174.25 m 257
 887.25 2059.75 l 257
 1011.25 2059.75 l 257
 1011.25 2174.25 l 257
 887.25 2174.25 l 257
936.75 2123.25 m 257
 877.75 1982.75 l 257
 949.25 1952.75 l 257
 1010.25 2057.75 l 257
 936.75 2123.25 l 257
EndSplineSet
EndChar

StartChar: quoteleft
Encoding: 271 8216 271
GlifName: quoteleft
Width: 2048
VWidth: 0
GlyphClass: 2
Flags: W
LayerCount: 2
Fore
SplineSet
1073.78 1912.9 m 257
 1073.78 2077.78 l 257
 942.74 2082.1 l 257
 942.74 1917.22 l 257
 1073.78 1912.9 l 257
1039.26 2066 m 257
 1105.26 2275 l 257
 1035.26 2285 l 257
 949.26 2054 l 257
 1039.26 2066 l 257
EndSplineSet
EndChar

StartChar: quoteright
Encoding: 272 8217 272
GlifName: quoteright
Width: 2048
VWidth: 0
GlyphClass: 2
Flags: W
LayerCount: 2
Fore
SplineSet
966 2168 m 257
 966 2056 l 257
 1082 2056 l 257
 1082 2168 l 257
 966 2168 l 257
1025 2140 m 257
 980 1927 l 257
 1034 1882 l 257
 1082 2056 l 257
 1025 2140 l 257
EndSplineSet
EndChar

StartChar: quotesinglbase
Encoding: 273 8218 273
GlifName: quotesinglbase
Width: 2048
VWidth: 0
GlyphClass: 2
Flags: W
LayerCount: 2
Fore
SplineSet
1004.5 126 m 257
 1004.5 8 l 257
 1113.5 8 l 257
 1113.5 126 l 257
 1004.5 126 l 257
1004.5 8 m 257
 934.5 -118 l 257
 988.5 -129 l 257
 1113.5 8 l 257
 1004.5 8 l 257
EndSplineSet
EndChar

StartChar: quotesingle
Encoding: 274 39 274
GlifName: quotesingle
Width: 2048
VWidth: 0
GlyphClass: 2
Flags: W
LayerCount: 2
Fore
SplineSet
992.5 1496 m 257
 992.5 1317 l 257
 1055.5 1317 l 257
 1055.5 1496 l 257
 992.5 1496 l 257
EndSplineSet
PickledDataWithLists: "(dp0
."
EndChar

StartChar: r
Encoding: 275 114 275
GlifName: r
Width: 2048
VWidth: 0
GlyphClass: 2
Flags: W
LayerCount: 2
Fore
SplineSet
145.5 1022 m 257
 145.5 961 l 257
 1902.5 961 l 257
 1902.5 1022 l 257
 145.5 1022 l 257
872.5 989 m 257
 872.5 -2 l 257
 931.5 -2 l 257
 931.5 989 l 257
 872.5 989 l 257
1842.5 976 m 257
 1842.5 650 l 257
 1902.5 650 l 257
 1902.5 976 l 257
 1842.5 976 l 257
EndSplineSet
EndChar

StartChar: registered
Encoding: 278 174 278
GlifName: registered
Width: 2048
VWidth: 0
GlyphClass: 2
Flags: W
HStem: 801 8<977 977 977 1012>
LayerCount: 2
Fore
SplineSet
909 1032 m 257
 909 501 l 257
 946 501 l 257
 946 1032 l 257
 909 1032 l 257
934 1032 m 257
 934 994 l 257
 1163 994 l 257
 1163 1032 l 257
 934 1032 l 257
1134 1032 m 257
 1134 802 l 257
 1172 802 l 257
 1172 1032 l 257
 1134 1032 l 257
930 848 m 257
 930 801 l 257
 1168 801 l 257
 1168 848 l 257
 930 848 l 257
977 809 m 257
 1176 500 l 257
 1219 500 l 257
 1012 809 l 257
 977 809 l 257
553 1540 m 257
 553 0 l 257
 615 0 l 257
 615 1540 l 257
 553 1540 l 257
1433 1537 m 257
 1433 0 l 257
 1495 0 l 257
 1495 1537 l 257
 1433 1537 l 257
592 1538 m 257
 592 1478 l 257
 1464 1478 l 257
 1464 1538 l 257
 592 1538 l 257
588 61 m 257
 588 0 l 257
 1480 0 l 257
 1480 61 l 257
 588 61 l 257
EndSplineSet
PickledDataWithLists: "(dp0
Vcom.fontlab.hintData
p1
(dp2
Vhhints
p3
(lp4
(dp5
Vposition
p6
I801
sVwidth
p7
I8
sass."
EndChar

StartChar: ring
Encoding: 279 730 279
GlifName: ring
Width: 2048
VWidth: 0
GlyphClass: 2
Flags: W
LayerCount: 2
Fore
SplineSet
878.469 1302.45 m 257
 1167.53 1302.45 l 257
 1167.53 1048.55 l 257
 878.469 1048.55 l 257
 878.469 1302.45 l 257
844 1331 m 257
 844 1022 l 257
 1204 1022 l 257
 1204 1331 l 257
 844 1331 l 257
EndSplineSet
EndChar

StartChar: s
Encoding: 280 115 280
GlifName: s
Width: 2048
VWidth: 0
GlyphClass: 2
Flags: W
LayerCount: 2
Fore
SplineSet
207 1024 m 257
 208 964 l 257
 1841 964 l 257
 1840 1024 l 257
 207 1024 l 257
207 1024 m 257
 207 736 l 257
 268 736 l 257
 268 1024 l 257
 207 1024 l 257
208 59 m 257
 207 0 l 257
 1838 0 l 257
 1837 59 l 257
 208 59 l 257
1775 299 m 257
 1775 12 l 257
 1838 12 l 257
 1838 299 l 257
 1775 299 l 257
207 736 m 257
 1775 299 l 257
 1838 299 l 257
 268 736 l 257
 207 736 l 257
EndSplineSet
EndChar

StartChar: section
Encoding: 285 167 285
GlifName: section
Width: 2048
VWidth: 0
GlyphClass: 2
Flags: W
HStem: 88 7<1350 1374 1350 1410 1350 1410 1350 1410 1350 1410 1350 1410 1350 1410>
LayerCount: 2
Fore
SplineSet
638 1237 m 257
 638 1178 l 257
 1236 1178 l 257
 1236 1237 l 257
 638 1237 l 257
638 1237 m 257
 638 605 l 257
 697 605 l 257
 701 1237 l 257
 638 1237 l 257
675 -200 m 257
 675 -260 l 257
 1383 -260 l 257
 1383 -200 l 257
 675 -200 l 257
1350 -259 m 257
 1410 -259 l 257
 1410 95 l 257
 1350 95 l 257
 1350 -259 l 257
638 605 m 257
 1349 88 l 257
 1410 88 l 257
 696 606 l 257
 638 605 l 257
638 1626 m 257
 638 1566 l 257
 1236 1566 l 257
 1236 1626 l 257
 638 1626 l 257
638 1629 m 257
 638 1237 l 257
 701 1237 l 257
 701 1629 l 257
 638 1629 l 257
666 88 m 257
 666 39 l 257
 1374 39 l 257
 1374 88 l 257
 666 88 l 257
1349 88 m 257
 1410 88 l 257
 1410 442 l 257
 1349 442 l 257
 1349 88 l 257
638 1237 m 257
 1350 442 l 257
 1410 442 l 257
 701 1237 l 257
 638 1237 l 257
EndSplineSet
PickledDataWithLists: "(dp0
Vcom.fontlab.hintData
p1
(dp2
Vhhints
p3
(lp4
(dp5
Vposition
p6
I88
sVwidth
p7
I7
sass."
EndChar

StartChar: semicolon
Encoding: 286 59 286
GlifName: semicolon
Width: 2048
VWidth: 0
GlyphClass: 2
Flags: W
LayerCount: 2
Fore
SplineSet
955.5 164 m 257
 955.5 7 l 257
 1092.5 7 l 257
 1092.5 164 l 257
 955.5 164 l 257
1039.5 135 m 257
 998.5 -99 l 257
 1047.5 -148 l 257
 1090.5 26 l 257
 1039.5 135 l 257
955.5 503 m 257
 955.5 346 l 257
 1092.5 346 l 257
 1092.5 503 l 257
 955.5 503 l 257
EndSplineSet
PickledDataWithLists: "(dp0
."
EndChar

StartChar: seven
Encoding: 287 55 287
GlifName: seven
Width: 2048
VWidth: 0
GlyphClass: 2
Flags: W
LayerCount: 2
Fore
SplineSet
54 1495 m 257
 1929 1495 l 257
 1937 0 l 257
 1994 0 l 257
 1991 1557 l 257
 54 1554 l 257
 54 1495 l 257
EndSplineSet
EndChar

StartChar: six
Encoding: 288 54 288
GlifName: six
Width: 2048
VWidth: 0
GlyphClass: 2
Flags: W
LayerCount: 2
Fore
SplineSet
41 1548 m 257
 51.5 201 l 257
 52 0 l 257
 2001 4 l 257
 2004 819 l 257
 103 820 l 257
 103 1488 l 257
 2009 1488 l 257
 2009 1548 l 257
 41 1548 l 257
1942 759 m 257
 1942 63 l 257
 109 63 l 257
 109 759 l 257
 1942 759 l 257
EndSplineSet
EndChar

StartChar: slash
Encoding: 289 47 289
GlifName: slash
Width: 2048
VWidth: 0
GlyphClass: 2
Flags: W
LayerCount: 2
Fore
SplineSet
1266 1474 m 257
 679 4 l 257
 782 10 l 257
 1369 1480 l 257
 1266 1474 l 257
EndSplineSet
PickledDataWithLists: "(dp0
."
EndChar

StartChar: sterling
Encoding: 291 163 291
GlifName: sterling
Width: 2048
VWidth: 0
GlyphClass: 2
Flags: W
LayerCount: 2
Fore
SplineSet
947 1543 m 257
 947 1482 l 257
 1136 1482 l 257
 1136 1543 l 257
 947 1543 l 257
609 770 m 257
 609 705 l 257
 1335 705 l 257
 1335 770 l 257
 609 770 l 257
923 1542 m 257
 923 3 l 257
 999 3 l 257
 999 1542 l 257
 923 1542 l 257
713 72 m 257
 713 3 l 257
 1439 3 l 257
 1439 72 l 257
 713 72 l 257
EndSplineSet
EndChar

StartChar: t
Encoding: 292 116 292
GlifName: t
Width: 2048
VWidth: 0
GlyphClass: 2
Flags: W
LayerCount: 2
Fore
SplineSet
975.5 1529 m 257
 975.5 0 l 257
 1036.5 0 l 257
 1036.5 1529 l 257
 975.5 1529 l 257
988.5 60 m 257
 988.5 0 l 257
 1891.5 0 l 257
 1891.5 60 l 257
 988.5 60 l 257
156.5 1025 m 257
 157.5 965 l 257
 1855.5 965 l 257
 1854.5 1025 l 257
 156.5 1025 l 257
EndSplineSet
EndChar

StartChar: tcaron
Encoding: 293 357 293
GlifName: tcaron
Width: 2048
VWidth: 0
GlyphClass: 2
Flags: W
LayerCount: 2
Fore
SplineSet
975.5 1529 m 257
 975.5 0 l 257
 1036.5 0 l 257
 1036.5 1529 l 257
 975.5 1529 l 257
988.5 60 m 257
 988.5 0 l 257
 1891.5 0 l 257
 1891.5 60 l 257
 988.5 60 l 257
156.5 1025 m 257
 156.5 965 l 257
 1854.5 965 l 257
 1854.5 1025 l 257
 156.5 1025 l 257
1165.5 1496 m 257
 1165.5 1317 l 257
 1228.5 1317 l 257
 1228.5 1496 l 257
 1165.5 1496 l 257
EndSplineSet
EndChar

StartChar: thorn
Encoding: 294 254 294
GlifName: thorn
Width: 2048
VWidth: 0
GlyphClass: 2
Flags: W
LayerCount: 2
Fore
SplineSet
153.5 1034 m 257
 153.5 -406 l 257
 212.5 -406 l 257
 212.5 1034 l 257
 153.5 1034 l 257
206.5 667 m 257
 206.5 605 l 257
 1894.5 605 l 257
 1894.5 667 l 257
 206.5 667 l 257
192.5 -135 m 257
 192.5 -195 l 257
 1894.5 -195 l 257
 1894.5 -135 l 257
 192.5 -135 l 257
1834.5 650 m 257
 1834.5 -167 l 257
 1894.5 -170 l 257
 1894.5 646 l 257
 1834.5 650 l 257
EndSplineSet
EndChar

StartChar: three
Encoding: 295 51 295
GlifName: three
Width: 2048
VWidth: 0
GlyphClass: 2
Flags: W
LayerCount: 2
Fore
SplineSet
100.5 736 m 257
 1927 736 l 257
 1927 52 l 257
 59 52 l 257
 68.5 -8 l 257
 1980.5 -8 l 257
 1987 1550 l 257
 89 1550 l 257
 89 1493 l 257
 1925 1493 l 257
 1925 796 l 257
 101 796 l 257
 100.5 736 l 257
EndSplineSet
EndChar

StartChar: threequarters
Encoding: 296 190 296
GlifName: threequarters
Width: 2048
VWidth: 0
GlyphClass: 2
Flags: W
HStem: -4 8 298 23 347 42 369 19 915 100 998 17 1212 8 1304 15 1479 95
VStem: 799 36 799 83 1086 81 1340 84
LayerCount: 2
Fore
SplineSet
1374 1483 m 257
 210 6 l 257
 260 -67 l 257
 1423 1410 l 257
 1374 1483 l 257
96 1272 m 257
 663 1272 l 257
 663 1084 l 257
 59 1084 l 257
 67 1015 l 257
 725 1015 l 257
 731 1553 l 257
 86 1553 l 257
 86 1484 l 257
 661 1484 l 257
 661 1340 l 257
 96 1340 l 257
 96 1272 l 257
1251 340 m 257
 1879 340 l 257
 1879 7 l 257
 1964 7 l 257
 1957 687 l 257
 1877 687 l 257
 1877 428 l 257
 1338 428 l 257
 1338 689 l 257
 1251 689 l 257
 1251 340 l 257
EndSplineSet
PickledDataWithLists: "(dp0
Vcom.fontlab.hintData
p1
(dp2
Vhhints
p3
(lp4
(dp5
Vposition
p6
I-4
sVwidth
p7
I8
sa(dp8
g6
I298
sg7
I23
sa(dp9
g6
I347
sg7
I42
sa(dp10
g6
I369
sg7
I19
sa(dp11
g6
I915
sg7
I100
sa(dp12
g6
I998
sg7
I17
sa(dp13
g6
I1212
sg7
I8
sa(dp14
g6
I1304
sg7
I15
sa(dp15
g6
I1479
sg7
I95
sasVvhints
p16
(lp17
(dp18
g6
I799
sg7
I36
sa(dp19
g6
I799
sg7
I83
sa(dp20
g6
I1086
sg7
I81
sa(dp21
g6
I1340
sg7
I84
sass."
EndChar

StartChar: tilde
Encoding: 297 732 297
GlifName: tilde
Width: 2048
VWidth: 0
GlyphClass: 2
Flags: W
LayerCount: 2
Fore
SplineSet
878.5 279 m 257
 878.5 229 l 257
 1228.5 158 l 257
 1228.5 208 l 257
 878.5 279 l 257
638.5 223 m 257
 651.5 165 l 257
 878.5 229 l 257
 878.5 279 l 257
 638.5 223 l 257
1228.5 208 m 257
 1228.5 158 l 257
 1409.5 309 l 257
 1396.5 356 l 257
 1228.5 208 l 257
EndSplineSet
EndChar

StartChar: tildecomb
Encoding: 298 771 298
GlifName: tildecomb
Width: 2048
VWidth: 0
GlyphClass: 4
Flags: W
LayerCount: 2
Fore
SplineSet
878.5 1966 m 257
 878.5 1916 l 257
 1228.5 1845 l 257
 1228.5 1895 l 257
 878.5 1966 l 257
638.5 1910 m 257
 651.5 1852 l 257
 878.5 1916 l 257
 878.5 1966 l 257
 638.5 1910 l 257
1228.5 1895 m 257
 1228.5 1845 l 257
 1409.5 1996 l 257
 1396.5 2043 l 257
 1228.5 1895 l 257
EndSplineSet
EndChar

StartChar: two
Encoding: 300 50 300
GlifName: two
Width: 2048
VWidth: 0
GlyphClass: 2
Flags: W
LayerCount: 2
Fore
SplineSet
109 1484 m 257
 1882 1484 l 257
 1882 908 l 257
 116 908 l 257
 116 0 l 257
 1928 0 l 257
 1928 59 l 257
 176 61 l 257
 176 848 l 257
 1942 849 l 257
 1942 1544 l 257
 109 1544 l 257
 109 1484 l 257
EndSplineSet
EndChar

StartChar: u
Encoding: 301 117 301
GlifName: u
Width: 2048
VWidth: 0
GlyphClass: 2
Flags: W
LayerCount: 2
Fore
SplineSet
137.5 1034 m 257
 137.5 0 l 257
 196.5 0 l 257
 197.5 1034 l 257
 137.5 1034 l 257
1511.5 1033 m 257
 1511.5 4 l 257
 1570.5 4 l 257
 1570.5 1033 l 257
 1511.5 1033 l 257
184.5 61 m 257
 185.5 0 l 257
 1910.5 0 l 257
 1910.5 61 l 257
 184.5 61 l 257
EndSplineSet
EndChar

StartChar: underscore
Encoding: 309 95 309
GlifName: underscore
Width: 2048
VWidth: 0
GlyphClass: 2
Flags: W
LayerCount: 2
Fore
SplineSet
0 0 m 257
 0 -40 l 257
 2048 -40 l 257
 2048 0 l 257
 0 0 l 257
EndSplineSet
EndChar

StartChar: uni00B2
Encoding: 311 178 311
GlifName: uni00B_2
Width: 2048
VWidth: 0
GlyphClass: 2
Flags: W
HStem: 892 104 944 52 1192 109 1465 83
VStem: 790 122 909 2 1096 6 1096 16
LayerCount: 2
Fore
SplineSet
672 1519 m 257
 1510 1519 l 257
 1510 1277 l 257
 675 1277 l 257
 675 895 l 257
 1531 895 l 257
 1531 920 l 257
 703 921 l 257
 703 1251 l 257
 1538 1252 l 257
 1538 1544 l 257
 672 1544 l 257
 672 1519 l 257
EndSplineSet
PickledDataWithLists: "(dp0
Vcom.fontlab.hintData
p1
(dp2
Vhhints
p3
(lp4
(dp5
Vposition
p6
I892
sVwidth
p7
I104
sa(dp8
g6
I944
sg7
I52
sa(dp9
g6
I1192
sg7
I109
sa(dp10
g6
I1465
sg7
I83
sasVvhints
p11
(lp12
(dp13
g6
I790
sg7
I122
sa(dp14
g6
I909
sg7
I2
sa(dp15
g6
I1096
sg7
I6
sa(dp16
g6
I1096
sg7
I16
sass."
EndChar

StartChar: uni00B3
Encoding: 312 179 312
GlifName: uni00B_3
Width: 2048
VWidth: 0
GlyphClass: 2
Flags: W
HStem: 887 100 970 17 1184 8 1276 15 1451 95
VStem: 1086 36 1086 83
LayerCount: 2
Fore
SplineSet
100.5 736 m 257
 1927 736 l 257
 1927 52 l 257
 59 52 l 257
 68.5 -8 l 257
 1980.5 -8 l 257
 1987 1550 l 257
 89 1550 l 257
 89 1493 l 257
 1925 1493 l 257
 1925 796 l 257
 101 796 l 257
 100.5 736 l 257
EndSplineSet
PickledDataWithLists: "(dp0
Vcom.fontlab.hintData
p1
(dp2
Vhhints
p3
(lp4
(dp5
Vposition
p6
I887
sVwidth
p7
I100
sa(dp8
g6
I970
sg7
I17
sa(dp9
g6
I1184
sg7
I8
sa(dp10
g6
I1276
sg7
I15
sa(dp11
g6
I1451
sg7
I95
sasVvhints
p12
(lp13
(dp14
g6
I1086
sg7
I36
sa(dp15
g6
I1086
sg7
I83
sass."
EndChar

StartChar: uni00B9
Encoding: 313 185 313
GlifName: uni00B_9
Width: 2048
VWidth: 0
GlyphClass: 2
Flags: W
VStem: 932 110
LayerCount: 2
Fore
SplineSet
1053.5 0 m 257
 1113.5 0 l 257
 1113.5 1551 l 257
 1053.5 1551 l 257
 1053.5 0 l 257
1053.5 1551 m 257
 934.5 1426 l 257
 985.5 1398 l 257
 1113.5 1550 l 257
 1053.5 1551 l 257
EndSplineSet
PickledDataWithLists: "(dp0
Vcom.fontlab.hintData
p1
(dp2
Vvhints
p3
(lp4
(dp5
Vposition
p6
I932
sVwidth
p7
I110
sass."
EndChar

StartChar: uni0123
Encoding: 315 291 315
GlifName: uni0123
Width: 2048
VWidth: 0
GlyphClass: 2
Flags: W
LayerCount: 2
Fore
SplineSet
226 1024 m 257
 226 0 l 257
 285 0 l 257
 285 1024 l 257
 226 1024 l 257
266 1024 m 257
 266 964 l 257
 1806 964 l 257
 1806 1024 l 257
 266 1024 l 257
1767 1024 m 257
 1767 -411 l 257
 1828 -411 l 257
 1828 1024 l 257
 1767 1024 l 257
289 61 m 257
 289 -1 l 257
 1770 -1 l 257
 1770 61 l 257
 289 61 l 257
220 -354 m 257
 220 -413 l 257
 1779 -413 l 257
 1779 -354 l 257
 220 -354 l 257
1055 1399 m 257
 1055 1198 l 257
 1116 1198 l 257
 1116 1399 l 257
 1055 1399 l 257
EndSplineSet
EndChar

StartChar: uni0192
Encoding: 326 402 326
GlifName: uni0192
Width: 2048
VWidth: 0
GlyphClass: 2
Flags: W
LayerCount: 2
Fore
SplineSet
974.5 1025 m 257
 974.5 -406 l 257
 1035.5 -406 l 257
 1035.5 1025 l 257
 974.5 1025 l 257
1001.5 1025 m 257
 1001.5 966 l 257
 1794.5 966 l 257
 1794.5 1025 l 257
 1001.5 1025 l 257
315.5 559 m 257
 315.5 500 l 257
 1534.5 500 l 257
 1534.5 559 l 257
 315.5 559 l 257
253.5 -345 m 257
 253.5 -404 l 257
 1028.5 -404 l 257
 1028.5 -345 l 257
 253.5 -345 l 257
EndSplineSet
PickledDataWithLists: "(dp0
."
EndChar

StartChar: uni0237
Encoding: 331 567 331
GlifName: uni0237
Width: 2048
VWidth: 0
GlyphClass: 2
Flags: W
LayerCount: 2
Fore
SplineSet
1791.5 1024 m 257
 1791.5 -411 l 257
 1850.5 -411 l 257
 1850.5 1024 l 257
 1791.5 1024 l 257
197.5 -348 m 257
 197.5 -409 l 257
 1811.5 -409 l 257
 1811.5 -348 l 257
 197.5 -348 l 257
198.5 -6 m 257
 198.5 -378 l 257
 258.5 -378 l 257
 258.5 -6 l 257
 198.5 -6 l 257
EndSplineSet
EndChar

StartChar: uni02C9
Encoding: 332 713 332
GlifName: uni02C_9
Width: 2048
VWidth: 0
GlyphClass: 2
Flags: W
LayerCount: 2
Fore
SplineSet
744 1630 m 257
 744 1552 l 257
 1304 1552 l 257
 1304 1630 l 257
 744 1630 l 257
EndSplineSet
EndChar

StartChar: uni02CA
Encoding: 333 714 333
GlifName: uni02C_A_
Width: 2048
VWidth: 0
GlyphClass: 2
Flags: W
LayerCount: 2
Fore
SplineSet
1037 949 m 257
 958 764 l 257
 1011 730 l 257
 1090 915 l 257
 1037 949 l 257
EndSplineSet
EndChar

StartChar: uni02CB
Encoding: 334 715 334
GlifName: uni02C_B_
Width: 2048
VWidth: 0
GlyphClass: 2
Flags: W
LayerCount: 2
Fore
SplineSet
931.5 877 m 257
 1056.5 673 l 257
 1116.5 727 l 257
 991.5 932 l 257
 931.5 877 l 257
EndSplineSet
EndChar

StartChar: uni0302
Encoding: 335 770 335
GlifName: uni0302
Width: 2048
VWidth: 0
GlyphClass: 4
Flags: W
LayerCount: 2
Fore
SplineSet
1023.25 2308 m 257
 987.25 2307 l 257
 854.75 1998 l 257
 882.25 1981 l 257
 1023.25 2308 l 257
990.25 2306 m 257
 1151.75 1976.5 l 257
 1193.25 1994.5 l 257
 1026.75 2309.5 l 257
 990.25 2306 l 257
EndSplineSet
EndChar

StartChar: uni0304
Encoding: 336 772 336
GlifName: uni0304
Width: 2048
VWidth: 0
GlyphClass: 4
Flags: W
LayerCount: 2
Fore
SplineSet
744 1630 m 257
 744 1552 l 257
 1304 1552 l 257
 1304 1630 l 257
 744 1630 l 257
EndSplineSet
EndChar

StartChar: uni0306
Encoding: 337 774 337
GlifName: uni0306
Width: 2048
VWidth: 0
GlyphClass: 4
Flags: W
LayerCount: 2
Fore
SplineSet
1189 1552 m 257
 1189 1480 l 257
 1354 1552 l 257
 1354 1645 l 257
 1189 1552 l 257
865 1550 m 257
 864 1480 l 257
 1189 1480 l 257
 1189 1552 l 257
 865 1550 l 257
694 1630 m 257
 694 1552 l 257
 864 1480 l 257
 865 1550 l 257
 694 1630 l 257
EndSplineSet
EndChar

StartChar: uni0307
Encoding: 338 775 338
GlifName: uni0307
Width: 2048
VWidth: 0
GlyphClass: 4
Flags: W
LayerCount: 2
Fore
SplineSet
968 1738 m 257
 968 1637 l 257
 1080 1637 l 257
 1080 1738 l 257
 968 1738 l 257
EndSplineSet
EndChar

StartChar: uni0308
Encoding: 339 776 339
GlifName: uni0308
Width: 2048
VWidth: 0
GlyphClass: 4
Flags: W
LayerCount: 2
Fore
SplineSet
847 1738 m 257
 847 1637 l 257
 959 1637 l 257
 959 1738 l 257
 847 1738 l 257
1089 1738 m 257
 1089 1637 l 257
 1201 1637 l 257
 1201 1738 l 257
 1089 1738 l 257
EndSplineSet
EndChar

StartChar: uni030A
Encoding: 340 778 340
GlifName: uni030A_
Width: 2048
VWidth: 0
GlyphClass: 4
Flags: W
LayerCount: 2
Fore
SplineSet
949 1756.5 m 257
 1097 1756.5 l 257
 1097 1626.5 l 257
 949 1626.5 l 257
 949 1756.5 l 257
844 1847 m 257
 844 1538 l 257
 1204 1538 l 257
 1204 1847 l 257
 844 1847 l 257
EndSplineSet
EndChar

StartChar: uni030C
Encoding: 342 780 342
GlifName: uni030C_
Width: 2048
VWidth: 0
GlyphClass: 4
Flags: W
LayerCount: 2
Fore
SplineSet
1023 1284 m 257
 882 1611 l 257
 855 1594 l 257
 987 1285 l 257
 1023 1284 l 257
990 1286 m 257
 1027 1283 l 257
 1193 1598 l 257
 1152 1616 l 257
 990 1286 l 257
EndSplineSet
EndChar

StartChar: uni0326
Encoding: 343 806 343
GlifName: uni0326
Width: 2048
VWidth: 0
GlyphClass: 4
Flags: W
LayerCount: 2
Fore
SplineSet
990.5 -1 m 257
 990.5 -132 l 257
 1101.5 -132 l 257
 1101.5 -1 l 257
 990.5 -1 l 257
990.5 -132 m 257
 946.5 -246 l 257
 1009.5 -273 l 257
 1101.5 -132 l 257
 990.5 -132 l 257
EndSplineSet
EndChar

StartChar: uni0327
Encoding: 344 807 344
GlifName: uni0327
Width: 2048
VWidth: 0
GlyphClass: 4
Flags: W
LayerCount: 2
Fore
SplineSet
798 180 m 257
 798 -60 l 257
 856 -60 l 257
 856 180 l 257
 798 180 l 257
804 -347 m 257
 804 -408 l 257
 1250 -408 l 257
 1250 -347 l 257
 804 -347 l 257
1191 0 m 257
 1191 -372 l 257
 1250 -372 l 257
 1250 0 l 257
 1191 0 l 257
804 0 m 257
 804 -60 l 257
 1250 -60 l 257
 1250 0 l 257
 804 0 l 257
EndSplineSet
EndChar

StartChar: uni0328
Encoding: 345 808 345
GlifName: uni0328
Width: 2048
VWidth: 0
GlyphClass: 4
Flags: W
LayerCount: 2
Fore
SplineSet
753 -351 m 257
 753 -411 l 257
 1294 -411 l 257
 1294 -351 l 257
 753 -351 l 257
753 0 m 257
 753 -411 l 257
 813 -411 l 257
 813 0 l 257
 753 0 l 257
753 0 m 257
 753 -59 l 257
 1295 -59 l 257
 1295 0 l 257
 753 0 l 257
EndSplineSet
EndChar

StartChar: uni0900
Encoding: 346 2304 346
GlifName: uni0900
Width: 2048
VWidth: 0
GlyphClass: 4
Flags: W
LayerCount: 2
Fore
SplineSet
-4 1537.35 m 257
 0 1477.65 l 257
 2052 1477.65 l 257
 2048 1537.35 l 257
 -4 1537.35 l 257
183.65 2124 m 257
 183.65 1639 l 257
 243.35 1639 l 257
 243.35 2124 l 257
 183.65 2124 l 257
197.45 2121.65 m 257
 197.45 2061.35 l 257
 1610.8 2061.35 l 257
 1610.8 2121.65 l 257
 197.45 2121.65 l 257
893.067 1930.02 m 257
 893.067 1807.32 l 257
 1010.37 1807.32 l 257
 1010.37 1930.02 l 257
 893.067 1930.02 l 257
1588 2127 m 257
 1588 1636 l 257
 1648 1636 l 257
 1648 2127 l 257
 1588 2127 l 257
EndSplineSet
EndChar

StartChar: uni0901
Encoding: 347 2305 347
GlifName: uni0901
Width: 2048
VWidth: 0
GlyphClass: 4
Flags: W
LayerCount: 2
Fore
SplineSet
-2 1546 m 257
 -2 1486.3 l 257
 2050 1486.3 l 257
 2050 1546 l 257
 -2 1546 l 257
136.4 2124 m 257
 136.4 1639 l 257
 196.1 1639 l 257
 196.1 2124 l 257
 136.4 2124 l 257
171 1708 m 257
 171 1647.7 l 257
 1605 1647.7 l 257
 1605 1708 l 257
 171 1708 l 257
873.067 1962.02 m 257
 873.067 1839.32 l 257
 990.367 1839.32 l 257
 990.367 1962.02 l 257
 873.067 1962.02 l 257
1573.6 2132 m 257
 1573.6 1641 l 257
 1633.6 1641 l 257
 1633.6 2132 l 257
 1573.6 2132 l 257
EndSplineSet
EndChar

StartChar: uni0902
Encoding: 348 2306 348
GlifName: uni0902
Width: 2048
VWidth: 0
GlyphClass: 4
Flags: W
LayerCount: 2
Fore
SplineSet
609.3 1894.1 m 257
 609.3 1774.1 l 257
 729.3 1774.1 l 257
 729.3 1894.1 l 257
 609.3 1894.1 l 257
-3.5 1658.7 m 257
 -3.5 1599 l 257
 2051.5 1599 l 257
 2051.5 1658.7 l 257
 -3.5 1658.7 l 257
EndSplineSet
EndChar

StartChar: uni0903
Encoding: 349 2307 349
GlifName: uni0903
Width: 2048
VWidth: 0
GlyphClass: 2
Flags: W
LayerCount: 2
Fore
SplineSet
983 260.7 m 257
 983 140.7 l 257
 1103 140.7 l 257
 1103 260.7 l 257
 983 260.7 l 257
945.067 1162.02 m 257
 945.067 1039.32 l 257
 1062.37 1039.32 l 257
 1062.37 1162.02 l 257
 945.067 1162.02 l 257
EndSplineSet
EndChar

StartChar: uni0904
Encoding: 350 2308 350
GlifName: uni0904
Width: 2048
VWidth: 0
GlyphClass: 2
Flags: W
LayerCount: 2
Fore
SplineSet
771 2062 m 257
 771 1823 l 257
 832 1823 l 257
 832 2062 l 257
 771 2062 l 257
770 1866 m 257
 770 1809 l 257
 1765 1809 l 257
 1765 1866 l 257
 770 1866 l 257
1705 1863 m 257
 1705 1545 l 257
 1765 1545 l 257
 1765 1863 l 257
 1705 1863 l 257
1221 1553 m 257
 1221 1494 l 257
 2030 1494 l 257
 2030 1553 l 257
 1221 1553 l 257
1732 1518 m 257
 1732 1 l 257
 1793 1 l 257
 1793 1518 l 257
 1732 1518 l 257
43 1547 m 257
 43 1487 l 257
 1078 1487 l 257
 1078 1547 l 257
 43 1547 l 257
1045 1550 m 257
 1045 34 l 257
 1104 34 l 257
 1104 1550 l 257
 1045 1550 l 257
127 894 m 257
 127 835 l 257
 1759 835 l 257
 1759 894 l 257
 127 894 l 257
18 65 m 257
 18 1 l 257
 1104 1 l 257
 1104 65 l 257
 18 65 l 257
EndSplineSet
EndChar

StartChar: uni0905
Encoding: 351 2309 351
GlifName: a-deva
Width: 2048
VWidth: 0
GlyphClass: 2
Flags: W
LayerCount: 2
Fore
SplineSet
1203.5 1553 m 257
 1203.5 1494 l 257
 2035.5 1494 l 257
 2035.5 1553 l 257
 1203.5 1553 l 257
1702.5 1518 m 257
 1702.5 1 l 257
 1763.5 1 l 257
 1763.5 1518 l 257
 1702.5 1518 l 257
37.5 1547 m 257
 37.5 1487 l 257
 1060.5 1487 l 257
 1060.5 1547 l 257
 37.5 1547 l 257
1027.5 1550 m 257
 1027.5 34 l 257
 1086.5 34 l 257
 1086.5 1550 l 257
 1027.5 1550 l 257
121.5 894 m 257
 121.5 835 l 257
 1729.5 835 l 257
 1729.5 894 l 257
 121.5 894 l 257
12.5 65 m 257
 12.5 1 l 257
 1086.5 1 l 257
 1086.5 65 l 257
 12.5 65 l 257
EndSplineSet
EndChar

StartChar: uni0906
Encoding: 352 2310 352
GlifName: aa-deva
Width: 2048
VWidth: 0
GlyphClass: 2
Flags: W
LayerCount: 2
Fore
SplineSet
1019 1553 m 257
 1019 1494 l 257
 2020 1494 l 257
 2020 1553 l 257
 1019 1553 l 257
1520 1518 m 257
 1520 1 l 257
 1581 1 l 257
 1581 1518 l 257
 1520 1518 l 257
53 1547 m 257
 53 1487 l 257
 876 1487 l 257
 876 1547 l 257
 53 1547 l 257
843 1550 m 257
 843 34 l 257
 902 34 l 257
 902 1550 l 257
 843 1550 l 257
137 894 m 257
 137 835 l 257
 1545 835 l 257
 1545 894 l 257
 137 894 l 257
28 65 m 257
 28 1 l 257
 902 1 l 257
 902 65 l 257
 28 65 l 257
1903 1518 m 257
 1903 1 l 257
 1964 1 l 257
 1964 1518 l 257
 1903 1518 l 257
EndSplineSet
PickledDataWithLists: "(dp0
."
EndChar

StartChar: uni0907
Encoding: 353 2311 353
GlifName: uni0907
Width: 2048
VWidth: 0
GlyphClass: 2
Flags: W
LayerCount: 2
Fore
SplineSet
-6.5 1554 m 257
 -6.5 1493 l 257
 2054.5 1493 l 257
 2054.5 1554 l 257
 -6.5 1554 l 257
1389.5 1553 m 257
 1389.5 1173 l 257
 1448.5 1173 l 257
 1448.5 1553 l 257
 1389.5 1553 l 257
167.5 1205 m 257
 167.5 1144 l 257
 1448.5 1144 l 257
 1448.5 1205 l 257
 167.5 1205 l 257
167.5 1181 m 257
 167.5 845 l 257
 226.5 845 l 257
 226.5 1181 l 257
 167.5 1181 l 257
167.5 881 m 257
 167.5 819 l 257
 1513.5 819 l 257
 1513.5 881 l 257
 167.5 881 l 257
1480.5 881 m 257
 1480.5 285 l 257
 1540.5 285 l 257
 1540.5 881 l 257
 1480.5 881 l 257
145.5 298 m 257
 145.5 237 l 257
 1543.5 237 l 257
 1543.5 298 l 257
 145.5 298 l 257
261.5 298 m 257
 261.5 -244 l 257
 321.5 -244 l 257
 321.5 298 l 257
 261.5 298 l 257
EndSplineSet
EndChar

StartChar: uni0908
Encoding: 354 2312 354
GlifName: uni0908
Width: 2048
VWidth: 0
GlyphClass: 2
Flags: W
LayerCount: 2
Fore
SplineSet
-6.5 1556 m 257
 -6.5 1496 l 257
 2054.5 1496 l 257
 2054.5 1556 l 257
 -6.5 1556 l 257
1391.5 1553 m 257
 1391.5 1183 l 257
 1451.5 1183 l 257
 1451.5 1553 l 257
 1391.5 1553 l 257
170.5 1207 m 257
 170.5 1146 l 257
 1451.5 1146 l 257
 1451.5 1207 l 257
 170.5 1207 l 257
170.5 1181 m 257
 170.5 849 l 257
 230.5 849 l 257
 230.5 1181 l 257
 170.5 1181 l 257
170.5 881 m 257
 170.5 821 l 257
 1521.5 821 l 257
 1521.5 881 l 257
 170.5 881 l 257
1483.5 881 m 257
 1483.5 285 l 257
 1543.5 285 l 257
 1543.5 881 l 257
 1483.5 881 l 257
148.5 298 m 257
 148.5 237 l 257
 1546.5 237 l 257
 1546.5 298 l 257
 148.5 298 l 257
264.5 298 m 257
 264.5 -244 l 257
 324.5 -244 l 257
 324.5 298 l 257
 264.5 298 l 257
316.5 1860 m 257
 1246.5 1553 l 257
 1350.5 1549 l 257
 393.5 1908 l 257
 316.5 1860 l 257
EndSplineSet
EndChar

StartChar: uni0909
Encoding: 355 2313 355
GlifName: uni0909
Width: 2048
VWidth: 0
GlyphClass: 2
Flags: W
LayerCount: 2
Fore
SplineSet
11 1552 m 257
 11 1493 l 257
 2037 1493 l 257
 2037 1552 l 257
 11 1552 l 257
1135 1530 m 257
 1135 1001 l 257
 1194 1001 l 257
 1194 1530 l 257
 1135 1530 l 257
250 1044 m 257
 250 985 l 257
 1692 985 l 257
 1692 1044 l 257
 250 1044 l 257
1633 994 m 257
 1633 -9 l 257
 1693 -9 l 257
 1693 994 l 257
 1633 994 l 257
145 46 m 257
 145 -15 l 257
 1682 -15 l 257
 1682 46 l 257
 145 46 l 257
145 346 m 257
 145 19 l 257
 204 19 l 257
 204 346 l 257
 145 346 l 257
EndSplineSet
EndChar

StartChar: uni090A
Encoding: 356 2314 356
GlifName: uni090A_
Width: 2048
VWidth: 0
GlyphClass: 2
Flags: W
LayerCount: 2
Fore
SplineSet
11 1551 m 257
 11 1490 l 257
 2037 1490 l 257
 2037 1551 l 257
 11 1551 l 257
946 1530 m 257
 946 1001 l 257
 1007 1001 l 257
 1007 1530 l 257
 946 1530 l 257
166 1044 m 257
 166 983 l 257
 1771 983 l 257
 1771 1044 l 257
 166 1044 l 257
1241 994 m 257
 1241 -9 l 257
 1302 -9 l 257
 1302 994 l 257
 1241 994 l 257
61 46 m 257
 61 -15 l 257
 1299 -15 l 257
 1299 46 l 257
 61 46 l 257
61 346 m 257
 61 19 l 257
 122 19 l 257
 122 346 l 257
 61 346 l 257
1711 1023 m 257
 1711 197 l 257
 1771 197 l 257
 1771 1023 l 257
 1711 1023 l 257
EndSplineSet
EndChar

StartChar: uni090B
Encoding: 357 2315 357
GlifName: uni090B_
Width: 2048
VWidth: 0
GlyphClass: 2
Flags: W
LayerCount: 2
Fore
SplineSet
2 1552 m 257
 2 1492 l 257
 2039 1492 l 257
 2039 1552 l 257
 2 1552 l 257
1022 1533 m 257
 1022 0 l 257
 1081 0 l 257
 1081 1533 l 257
 1022 1533 l 257
20 1043 m 257
 20 983 l 257
 323 983 l 257
 323 1043 l 257
 20 1043 l 257
1043 471 m 257
 84 422 l 257
 169 376 l 257
 1078 417 l 257
 1043 471 l 257
323 1043 m 257
 323 983 l 257
 1070 902 l 257
 1069 958 l 257
 323 1043 l 257
1069 897 m 257
 1069 837 l 257
 1698 837 l 257
 1698 897 l 257
 1069 897 l 257
1656 897 m 257
 1656 265 l 257
 1717 265 l 257
 1717 897 l 257
 1656 897 l 257
1656 324 m 257
 1656 264 l 257
 2046 264 l 257
 2046 324 l 257
 1656 324 l 257
EndSplineSet
EndChar

StartChar: uni090C
Encoding: 358 2316 358
GlifName: uni090C_
Width: 2048
VWidth: 0
GlyphClass: 2
Flags: W
LayerCount: 2
Fore
SplineSet
0.5 1551 m 257
 0.5 1491 l 257
 2047.5 1491 l 257
 2047.5 1551 l 257
 0.5 1551 l 257
1160.5 1551 m 257
 1160.5 759 l 257
 1220.5 759 l 257
 1220.5 1551 l 257
 1160.5 1551 l 257
1792.5 791 m 257
 55.5 791 l 257
 55.5 731 l 257
 1792.5 731 l 257
 1792.5 791 l 257
58.5 777 m 257
 58.5 252 l 257
 118.5 252 l 257
 118.5 777 l 257
 58.5 777 l 257
660.5 791 m 257
 660.5 433 l 257
 720.5 433 l 257
 720.5 791 l 257
 660.5 791 l 257
1721.5 792 m 257
 1721.5 73 l 257
 1781.5 73 l 257
 1781.5 792 l 257
 1721.5 792 l 257
1765.5 132 m 257
 1765.5 71 l 257
 2045.5 71 l 257
 2045.5 132 l 257
 1765.5 132 l 257
EndSplineSet
EndChar

StartChar: uni090D
Encoding: 359 2317 359
GlifName: uni090D_
Width: 2048
VWidth: 0
GlyphClass: 2
Flags: W
LayerCount: 2
Fore
SplineSet
0 1553 m 257
 0 1493 l 257
 2048 1493 l 257
 2048 1553 l 257
 0 1553 l 257
1887 1545 m 257
 1887 779 l 257
 1946 779 l 257
 1946 1545 l 257
 1887 1545 l 257
1067 839 m 257
 1067 779 l 257
 1946 779 l 257
 1946 839 l 257
 1067 839 l 257
147 1542 m 257
 147 338 l 257
 207 338 l 257
 207 1542 l 257
 147 1542 l 257
147 358 m 257
 147 297 l 257
 1174 297 l 257
 1174 358 l 257
 147 358 l 257
1121 358 m 257
 1121 -98 l 257
 1181 -98 l 257
 1181 358 l 257
 1121 358 l 257
392 -38 m 257
 392 -98 l 257
 1179 -98 l 257
 1179 -38 l 257
 392 -38 l 257
162 2124 m 257
 162 1639 l 257
 221 1639 l 257
 221 2124 l 257
 162 2124 l 257
208 1701 m 257
 208 1641 l 257
 1842 1641 l 257
 1842 1701 l 257
 208 1701 l 257
1783 2132 m 257
 1783 1641 l 257
 1842 1641 l 257
 1842 2132 l 257
 1783 2132 l 257
EndSplineSet
EndChar

StartChar: uni090E
Encoding: 360 2318 360
GlifName: uni090E_
Width: 2048
VWidth: 0
GlyphClass: 2
Flags: W
LayerCount: 2
Fore
SplineSet
5.5 1553 m 257
 5.5 1493 l 257
 2042.5 1493 l 257
 2042.5 1553 l 257
 5.5 1553 l 257
1881.5 1545 m 257
 1881.5 779 l 257
 1940.5 779 l 257
 1940.5 1545 l 257
 1881.5 1545 l 257
1049.5 839 m 257
 1049.5 779 l 257
 1940.5 779 l 257
 1940.5 839 l 257
 1049.5 839 l 257
152.5 1542 m 257
 152.5 338 l 257
 212.5 338 l 257
 212.5 1542 l 257
 152.5 1542 l 257
152.5 358 m 257
 152.5 297 l 257
 1156.5 297 l 257
 1156.5 358 l 257
 152.5 358 l 257
1103.5 358 m 257
 1103.5 -98 l 257
 1163.5 -98 l 257
 1163.5 358 l 257
 1103.5 358 l 257
397.5 -38 m 257
 397.5 -98 l 257
 1161.5 -98 l 257
 1161.5 -38 l 257
 397.5 -38 l 257
530.5 2062 m 257
 530.5 1823 l 257
 591.5 1823 l 257
 591.5 2062 l 257
 530.5 2062 l 257
529.5 1866 m 257
 529.5 1809 l 257
 1964.5 1809 l 257
 1964.5 1866 l 257
 529.5 1866 l 257
1907.5 1840 m 257
 1907.5 1522 l 257
 1967.5 1522 l 257
 1967.5 1840 l 257
 1907.5 1840 l 257
EndSplineSet
EndChar

StartChar: uni090F
Encoding: 361 2319 361
GlifName: uni090F_
Width: 2048
VWidth: 0
GlyphClass: 2
Flags: W
LayerCount: 2
Fore
SplineSet
-5.5 1553 m 257
 -5.5 1493 l 257
 2053.5 1493 l 257
 2053.5 1553 l 257
 -5.5 1553 l 257
1892.5 1545 m 257
 1892.5 779 l 257
 1951.5 779 l 257
 1951.5 1545 l 257
 1892.5 1545 l 257
1146.5 839 m 257
 1146.5 779 l 257
 1951.5 779 l 257
 1951.5 839 l 257
 1146.5 839 l 257
141.5 1542 m 257
 141.5 338 l 257
 201.5 338 l 257
 201.5 1542 l 257
 141.5 1542 l 257
141.5 358 m 257
 141.5 297 l 257
 1253.5 297 l 257
 1253.5 358 l 257
 141.5 358 l 257
1200.5 358 m 257
 1200.5 -98 l 257
 1260.5 -98 l 257
 1260.5 358 l 257
 1200.5 358 l 257
386.5 -38 m 257
 386.5 -98 l 257
 1258.5 -98 l 257
 1258.5 -38 l 257
 386.5 -38 l 257
EndSplineSet
EndChar

StartChar: uni0910
Encoding: 362 2320 362
GlifName: uni0910
Width: 2048
VWidth: 0
GlyphClass: 2
Flags: W
LayerCount: 2
Fore
SplineSet
-5.5 1553 m 257
 -5.5 1493 l 257
 2053.5 1493 l 257
 2053.5 1553 l 257
 -5.5 1553 l 257
1890.5 1545 m 257
 1890.5 779 l 257
 1951.5 779 l 257
 1951.5 1545 l 257
 1890.5 1545 l 257
1146.5 840 m 257
 1146.5 779 l 257
 1951.5 779 l 257
 1951.5 840 l 257
 1146.5 840 l 257
141.5 1542 m 257
 141.5 338 l 257
 202.5 338 l 257
 202.5 1542 l 257
 141.5 1542 l 257
141.5 359 m 257
 141.5 297 l 257
 1253.5 297 l 257
 1253.5 359 l 257
 141.5 359 l 257
1213.5 358 m 257
 1213.5 -98 l 257
 1271.5 -98 l 257
 1271.5 358 l 257
 1213.5 358 l 257
386.5 -37 m 257
 386.5 -98 l 257
 1258.5 -98 l 257
 1258.5 -37 l 257
 386.5 -37 l 257
1067.5 1962 m 257
 1877.5 1547 l 257
 1949.5 1547 l 257
 1121.5 1998 l 257
 1067.5 1962 l 257
EndSplineSet
EndChar

StartChar: uni0911
Encoding: 363 2321 363
GlifName: uni0911
Width: 2048
VWidth: 0
GlyphClass: 2
Flags: W
LayerCount: 2
Fore
SplineSet
1328.5 1548 m 257
 1328.5 1487 l 257
 2040.5 1487 l 257
 2040.5 1548 l 257
 1328.5 1548 l 257
1344.5 1506 m 257
 1344.5 1 l 257
 1405.5 1 l 257
 1405.5 1506 l 257
 1344.5 1506 l 257
25.5 1548 m 257
 25.5 1488 l 257
 897.5 1488 l 257
 897.5 1548 l 257
 25.5 1548 l 257
863.5 1548 m 257
 863.5 30 l 257
 923.5 30 l 257
 923.5 1548 l 257
 863.5 1548 l 257
109.5 894 m 257
 109.5 834 l 257
 1381.5 834 l 257
 1381.5 894 l 257
 109.5 894 l 257
0.5 61 m 257
 0.5 1 l 257
 923.5 1 l 257
 923.5 61 l 257
 0.5 61 l 257
1835.5 1504 m 257
 1835.5 2 l 257
 1895.5 2 l 257
 1895.5 1504 l 257
 1835.5 1504 l 257
1326.5 2085 m 257
 1326.5 1639 l 257
 1387.5 1639 l 257
 1387.5 2085 l 257
 1326.5 2085 l 257
1332.5 1701 m 257
 1332.5 1641 l 257
 2047.5 1641 l 257
 2047.5 1701 l 257
 1332.5 1701 l 257
1976.5 2083 m 257
 1976.5 1641 l 257
 2047.5 1641 l 257
 2047.5 2083 l 257
 1976.5 2083 l 257
EndSplineSet
EndChar

StartChar: uni0912
Encoding: 364 2322 364
GlifName: oS_hort-deva
Width: 2048
VWidth: 0
GlyphClass: 2
Flags: W
LayerCount: 2
Fore
SplineSet
1040 1553 m 257
 1040 1494 l 257
 2032 1494 l 257
 2032 1553 l 257
 1040 1553 l 257
1425 1518 m 257
 1425 1 l 257
 1486 1 l 257
 1486 1518 l 257
 1425 1518 l 257
41 1547 m 257
 41 1487 l 257
 897 1487 l 257
 897 1547 l 257
 41 1547 l 257
864 1550 m 257
 864 34 l 257
 923 34 l 257
 923 1550 l 257
 864 1550 l 257
125 894 m 257
 125 835 l 257
 1450 835 l 257
 1450 894 l 257
 125 894 l 257
16 65 m 257
 16 1 l 257
 923 1 l 257
 923 65 l 257
 16 65 l 257
1915 1518 m 257
 1915 1 l 257
 1976 1 l 257
 1976 1518 l 257
 1915 1518 l 257
257 2062 m 257
 257 1823 l 257
 318 1823 l 257
 318 2062 l 257
 257 2062 l 257
256 1866 m 257
 256 1809 l 257
 1963 1809 l 257
 1963 1866 l 257
 256 1866 l 257
1906 1866 m 257
 1906 1534 l 257
 1966 1534 l 257
 1966 1866 l 257
 1906 1866 l 257
EndSplineSet
EndChar

StartChar: uni0913
Encoding: 365 2323 365
GlifName: uni0913
Width: 2048
VWidth: 0
GlyphClass: 2
Flags: W
LayerCount: 2
Fore
SplineSet
1015.5 1553 m 257
 1015.5 1494 l 257
 2035.5 1494 l 257
 2035.5 1553 l 257
 1015.5 1553 l 257
1554.5 1518 m 257
 1554.5 1 l 257
 1615.5 1 l 257
 1615.5 1518 l 257
 1554.5 1518 l 257
37.5 1547 m 257
 37.5 1487 l 257
 872.5 1487 l 257
 872.5 1547 l 257
 37.5 1547 l 257
839.5 1550 m 257
 839.5 34 l 257
 898.5 34 l 257
 898.5 1550 l 257
 839.5 1550 l 257
121.5 894 m 257
 121.5 835 l 257
 1579.5 835 l 257
 1579.5 894 l 257
 121.5 894 l 257
12.5 65 m 257
 12.5 1 l 257
 898.5 1 l 257
 898.5 65 l 257
 12.5 65 l 257
1918.5 1518 m 257
 1918.5 1 l 257
 1979.5 1 l 257
 1979.5 1518 l 257
 1918.5 1518 l 257
1430.5 1807 m 257
 1906.5 1529 l 257
 1982.5 1549 l 257
 1502.5 1826 l 257
 1430.5 1807 l 257
EndSplineSet
EndChar

StartChar: uni0914
Encoding: 366 2324 366
GlifName: uni0914
Width: 2048
VWidth: 0
GlyphClass: 2
Flags: W
LayerCount: 2
Fore
SplineSet
1353.5 1553 m 257
 1353.5 1494 l 257
 2035.5 1494 l 257
 2035.5 1553 l 257
 1353.5 1553 l 257
1554.5 1518 m 257
 1554.5 1 l 257
 1615.5 1 l 257
 1615.5 1518 l 257
 1554.5 1518 l 257
37.5 1547 m 257
 37.5 1487 l 257
 872.5 1487 l 257
 872.5 1547 l 257
 37.5 1547 l 257
839.5 1550 m 257
 839.5 34 l 257
 898.5 34 l 257
 898.5 1550 l 257
 839.5 1550 l 257
121.5 894 m 257
 121.5 835 l 257
 1579.5 835 l 257
 1579.5 894 l 257
 121.5 894 l 257
12.5 65 m 257
 12.5 1 l 257
 898.5 1 l 257
 898.5 65 l 257
 12.5 65 l 257
1918.5 1518 m 257
 1918.5 1 l 257
 1979.5 1 l 257
 1979.5 1518 l 257
 1918.5 1518 l 257
978.5 1682 m 257
 1550.5 1525 l 257
 1614.5 1540 l 257
 1019.5 1731 l 257
 978.5 1682 l 257
1090.5 1751 m 257
 1624.5 1542 l 257
 1705.5 1549 l 257
 1143.5 1783 l 257
 1090.5 1751 l 257
EndSplineSet
EndChar

StartChar: uni0915
Encoding: 367 2325 367
GlifName: ka-deva
Width: 2048
VWidth: 0
GlyphClass: 2
Flags: W
LayerCount: 2
Fore
SplineSet
0 1553 m 257
 0 1478 l 257
 2045 1469 l 257
 2048 1553 l 257
 0 1553 l 257
1110 1518 m 257
 1110 51 l 257
 1164 51 l 257
 1164 1518 l 257
 1110 1518 l 257
181 1067 m 257
 182 1012 l 257
 1130 1010 l 257
 1129 1069 l 257
 181 1067 l 257
170 1068 m 257
 169 604 l 257
 231 604 l 257
 230 1068 l 257
 170 1068 l 257
185 675 m 257
 185 605 l 257
 1157 605 l 257
 1157 675 l 257
 185 675 l 257
1135 999 m 257
 1135 942 l 257
 1912 942 l 257
 1912 999 l 257
 1135 999 l 257
1862 998 m 257
 1865 779 l 257
 1921 779 l 257
 1920 1000 l 257
 1862 998 l 257
EndSplineSet
EndChar

StartChar: uni0915_uni094D.half
Encoding: 368 -1 368
GlifName: uni0915_uni094D_.half
Width: 2048
VWidth: 0
GlyphClass: 2
Flags: W
LayerCount: 2
Fore
SplineSet
0 1548 m 257
 0 1478 l 257
 2048 1478 l 257
 2048 1548 l 257
 0 1548 l 257
1110 1518 m 257
 1110 51 l 257
 1164 51 l 257
 1164 1518 l 257
 1110 1518 l 257
181 1067 m 257
 182 1012 l 257
 1130 1010 l 257
 1129 1069 l 257
 181 1067 l 257
170 1068 m 257
 169 604 l 257
 231 604 l 257
 230 1068 l 257
 170 1068 l 257
185 675 m 257
 185 605 l 257
 1157 605 l 257
 1157 675 l 257
 185 675 l 257
1135 999 m 257
 1135 942 l 257
 2165 942 l 257
 2165 999 l 257
 1135 999 l 257
EndSplineSet
Ligature2: "halfHalfFormsinDevanagarilookup0 subtable" uni0915 uni094D
EndChar

StartChar: uni0915_uni094D_uni0937.akhn
Encoding: 370 -1 370
GlifName: uni0915_uni094D__uni0937.akhn
Width: 2048
VWidth: 0
GlyphClass: 3
Flags: W
LayerCount: 2
Fore
SplineSet
1689 1550 m 257
 1689 1491 l 257
 2048 1491 l 257
 2048 1550 l 257
 1689 1550 l 257
1886 1511 m 257
 1886 4 l 257
 1945 4 l 257
 1945 1511 l 257
 1886 1511 l 257
126 1078 m 257
 126 1018 l 257
 1945 1018 l 257
 1945 1078 l 257
 126 1078 l 257
126 1023 m 257
 186 1023 l 257
 186 1422 l 257
 126 1422 l 257
 126 1023 l 257
127 1435 m 257
 127 1374 l 257
 1079 1374 l 257
 1079 1435 l 257
 127 1435 l 257
1018 1422 m 257
 1018 1030 l 257
 1078 1030 l 257
 1078 1422 l 257
 1018 1422 l 257
158 647 m 257
 218 647 l 257
 1077 1028 l 257
 1019 1029 l 257
 158 647 l 257
158 647 m 257
 158 200 l 257
 218 200 l 257
 218 647 l 257
 158 647 l 257
158 226 m 257
 158 166 l 257
 1906 166 l 257
 1906 226 l 257
 158 226 l 257
EndSplineSet
Ligature2: "akhnAkhandinDevanagarilookup0 subtable" uni0915 uni094D uni0937
EndChar

StartChar: uni0916
Encoding: 371 2326 371
GlifName: uni0916
Width: 2048
VWidth: 0
GlyphClass: 2
Flags: W
LayerCount: 2
Fore
SplineSet
-4 1556 m 257
 -4 1496 l 257
 2052 1496 l 257
 2052 1556 l 257
 -4 1556 l 257
1859 1514 m 257
 1859 0 l 257
 1920 0 l 257
 1920 1514 l 257
 1859 1514 l 257
1033 979 m 257
 1033 919 l 257
 1461 919 l 257
 1461 979 l 257
 1033 979 l 257
1003 979 m 257
 1003 414 l 257
 1064 414 l 257
 1064 979 l 257
 1003 979 l 257
1003 429 m 257
 1003 368 l 257
 1875 368 l 257
 1875 429 l 257
 1003 429 l 257
457 1510 m 257
 457 120 l 257
 518 120 l 257
 518 1510 l 257
 457 1510 l 257
13 714 m 257
 13 654 l 257
 517 654 l 257
 517 714 l 257
 13 714 l 257
457 130 m 257
 457 70 l 257
 1857 70 l 257
 1857 130 l 257
 457 130 l 257
EndSplineSet
EndChar

StartChar: uni0916_uni094D.half
Encoding: 372 -1 372
GlifName: uni0916_uni094D_.haf
Width: 2048
VWidth: 0
GlyphClass: 2
Flags: W
LayerCount: 2
Fore
SplineSet
-4 1556 m 257
 -4 1496 l 257
 2052 1496 l 257
 2052 1556 l 257
 -4 1556 l 257
1033 979 m 257
 1033 919 l 257
 1461 919 l 257
 1461 979 l 257
 1033 979 l 257
1003 979 m 257
 1003 414 l 257
 1064 414 l 257
 1064 979 l 257
 1003 979 l 257
1003 429 m 257
 1003 368 l 257
 2050 368 l 257
 2050 429 l 257
 1003 429 l 257
457 1510 m 257
 457 120 l 257
 518 120 l 257
 518 1510 l 257
 457 1510 l 257
13 714 m 257
 13 654 l 257
 517 654 l 257
 517 714 l 257
 13 714 l 257
457 130 m 257
 457 70 l 257
 2032 70 l 257
 2032 130 l 257
 457 130 l 257
EndSplineSet
PickledDataWithLists: "(dp0
."
Ligature2: "halfHalfFormsinDevanagarilookup0 subtable" uni0916 uni094D
EndChar

StartChar: uni0917
Encoding: 374 2327 374
GlifName: uni0917
Width: 2048
VWidth: 0
GlyphClass: 2
Flags: W
LayerCount: 2
Fore
SplineSet
51 853 m 257
 121 853 l 257
 121 1044 l 257
 51 1044 l 257
 51 853 l 257
51 882 m 257
 51 812 l 257
 910 812 l 257
 910 882 l 257
 51 882 l 257
840 1556 m 257
 840 812 l 257
 910 812 l 257
 910 1556 l 257
 840 1556 l 257
1997 1557 m 257
 722 1557 l 257
 722 1496 l 257
 1997 1496 l 257
 1997 1557 l 257
1846 1523 m 257
 1846 0 l 257
 1916 0 l 257
 1916 1523 l 257
 1846 1523 l 257
EndSplineSet
EndChar

StartChar: uni0918
Encoding: 376 2328 376
GlifName: uni0918
Width: 2048
VWidth: 0
GlyphClass: 2
Flags: W
LayerCount: 2
Fore
SplineSet
1.5 1554 m 257
 1.5 1495 l 257
 2046.5 1495 l 257
 2046.5 1554 l 257
 1.5 1554 l 257
1865.5 1522 m 257
 1865.5 13 l 257
 1925.5 13 l 257
 1925.5 1522 l 257
 1865.5 1522 l 257
173.5 1515 m 257
 173.5 859 l 257
 232.5 859 l 257
 232.5 1515 l 257
 173.5 1515 l 257
218.5 867 m 257
 218.5 807 l 257
 974.5 807 l 257
 974.5 867 l 257
 218.5 867 l 257
179.5 328 m 257
 179.5 269 l 257
 1901.5 269 l 257
 1901.5 328 l 257
 179.5 328 l 257
173.5 269 m 257
 233.5 269 l 257
 233.5 814 l 257
 173.5 814 l 257
 173.5 269 l 257
EndSplineSet
EndChar

StartChar: uni0919
Encoding: 378 2329 378
GlifName: uni0919
Width: 2048
VWidth: 0
GlyphClass: 2
Flags: W
LayerCount: 2
Fore
SplineSet
-2 1554 m 257
 -2 1494 l 257
 2050 1494 l 257
 2050 1554 l 257
 -2 1554 l 257
1163 1543 m 257
 1163 1026 l 257
 1223 1026 l 257
 1223 1543 l 257
 1163 1543 l 257
1214 1086 m 257
 239 1086 l 257
 239 1026 l 257
 1214 1026 l 257
 1214 1086 l 257
227 1083 m 257
 227 629 l 257
 299 629 l 257
 299 1083 l 257
 227 1083 l 257
233 680 m 257
 233 620 l 257
 1300 620 l 257
 1300 680 l 257
 233 680 l 257
1237 680 m 257
 1237 29 l 257
 1300 29 l 257
 1300 680 l 257
 1237 680 l 257
114 61 m 257
 114 0 l 257
 1301 0 l 257
 1301 61 l 257
 114 61 l 257
114 202 m 257
 114 8 l 257
 174 8 l 257
 174 202 l 257
 114 202 l 257
1285 931 m 257
 1285 835 l 257
 1381 835 l 257
 1381 931 l 257
 1285 931 l 257
EndSplineSet
EndChar

StartChar: uni091A
Encoding: 380 2330 380
GlifName: uni091A_
Width: 2048
VWidth: 0
GlyphClass: 2
Flags: W
LayerCount: 2
Fore
SplineSet
0 1556 m 257
 0 1497 l 257
 2048 1497 l 257
 2048 1556 l 257
 0 1556 l 257
1803 1553 m 257
 1803 -2 l 257
 1862 -2 l 257
 1862 1553 l 257
 1803 1553 l 257
1829 421 m 257
 1829 480 l 257
 808 480 l 257
 808 421 l 257
 1829 421 l 257
808 837 m 257
 808 421 l 257
 867 421 l 257
 867 837 l 257
 808 837 l 257
72 852 m 257
 72 791 l 257
 1009 791 l 257
 1009 852 l 257
 72 852 l 257
EndSplineSet
EndChar

StartChar: uni091B
Encoding: 382 2331 382
GlifName: uni091B_
Width: 2048
VWidth: 0
GlyphClass: 2
Flags: W
LayerCount: 2
Fore
SplineSet
-3 1555 m 257
 -3 1495 l 257
 2051 1495 l 257
 2051 1555 l 257
 -3 1555 l 257
733 1128 m 257
 148 1128 l 257
 148 1069 l 257
 733 1069 l 257
 733 1128 l 257
139 1128 m 257
 139 538 l 257
 199 538 l 257
 199 1128 l 257
 139 1128 l 257
170 547 m 257
 170 487 l 257
 733 487 l 257
 733 547 l 257
 170 547 l 257
138 501 m 257
 138 0 l 257
 198 0 l 257
 198 501 l 257
 138 501 l 257
194 59 m 257
 194 0 l 257
 1541 0 l 257
 1541 59 l 257
 194 59 l 257
1482 6 m 257
 1541 6 l 257
 1541 1515 l 257
 1482 1515 l 257
 1482 6 l 257
1374 869 m 257
 1374 808 l 257
 2032 808 l 257
 2032 869 l 257
 1374 869 l 257
1973 868 m 257
 1973 471 l 257
 2032 471 l 257
 2032 868 l 257
 1973 868 l 257
EndSplineSet
EndChar

StartChar: uni091C
Encoding: 384 2332 384
GlifName: uni091C_
Width: 2048
VWidth: 0
GlyphClass: 2
Flags: W
LayerCount: 2
Fore
SplineSet
-17 1551 m 257
 -17 1492 l 257
 2065 1492 l 257
 2065 1551 l 257
 -17 1551 l 257
1857 1551 m 257
 1857 -12 l 257
 1918 -12 l 257
 1918 1551 l 257
 1857 1551 l 257
1030 860 m 257
 1030 801 l 257
 1878 801 l 257
 1878 860 l 257
 1030 860 l 257
1020 860 m 257
 1020 512 l 257
 1080 512 l 257
 1080 860 l 257
 1020 860 l 257
58 567 m 257
 58 508 l 257
 1080 508 l 257
 1080 567 l 257
 58 567 l 257
58 727 m 257
 58 509 l 257
 118 509 l 257
 118 727 l 257
 58 727 l 257
EndSplineSet
EndChar

StartChar: uni091C_uni094D_uni091E.akhn
Encoding: 386 -1 386
GlifName: uni091C__uni094D__uni091E_.akhn
Width: 2048
VWidth: 0
GlyphClass: 3
Flags: W
LayerCount: 2
Fore
SplineSet
-13 1549 m 257
 -13 1488 l 257
 2048 1488 l 257
 2048 1549 l 257
 -13 1549 l 257
1841 1551 m 257
 1841 -12 l 257
 1901 -12 l 257
 1901 1551 l 257
 1841 1551 l 257
909 860 m 257
 909 800 l 257
 1861 800 l 257
 1861 860 l 257
 909 860 l 257
863 860 m 257
 863 413 l 257
 922 413 l 257
 922 860 l 257
 863 860 l 257
41 428 m 257
 41 367 l 257
 922 367 l 257
 922 428 l 257
 41 428 l 257
41 368 m 257
 501 77 l 257
 590 75 l 257
 115 368 l 257
 41 368 l 257
EndSplineSet
Ligature2: "akhnAkhandinDevanagarilookup0 subtable" uni091C uni094D uni091E
EndChar

StartChar: uni091D
Encoding: 387 2333 387
GlifName: uni091D_
Width: 2048
VWidth: 0
GlyphClass: 2
Flags: W
LayerCount: 2
Fore
SplineSet
-8.5 1554 m 257
 -8.5 1494 l 257
 2056.5 1494 l 257
 2056.5 1554 l 257
 -8.5 1554 l 257
1852.5 1554 m 257
 1852.5 -5 l 257
 1913.5 -5 l 257
 1913.5 1554 l 257
 1852.5 1554 l 257
1107.5 1537 m 257
 1107.5 1024 l 257
 1167.5 1024 l 257
 1167.5 1537 l 257
 1107.5 1537 l 257
134.5 1084 m 257
 134.5 1024 l 257
 1167.5 1024 l 257
 1167.5 1084 l 257
 134.5 1084 l 257
134.5 1085 m 257
 134.5 651 l 257
 194.5 651 l 257
 194.5 1085 l 257
 134.5 1085 l 257
134.5 698 m 257
 134.5 638 l 257
 1907.5 638 l 257
 1907.5 698 l 257
 134.5 698 l 257
1079.5 691 m 257
 1079.5 7 l 257
 1139.5 7 l 257
 1139.5 691 l 257
 1079.5 691 l 257
134.5 63 m 257
 134.5 3 l 257
 1139.5 3 l 257
 1139.5 63 l 257
 134.5 63 l 257
134.5 63 m 257
 134.5 -148 l 257
 194.5 -148 l 257
 194.5 63 l 257
 134.5 63 l 257
EndSplineSet
EndChar

StartChar: uni091E
Encoding: 389 2334 389
GlifName: uni091E_
Width: 2048
VWidth: 0
GlyphClass: 2
Flags: W
LayerCount: 2
Fore
SplineSet
-5 1554 m 257
 -5 1493 l 257
 2053 1493 l 257
 2053 1554 l 257
 -5 1554 l 257
1899 1538 m 257
 1899 -8 l 257
 1959 -8 l 257
 1959 1538 l 257
 1899 1538 l 257
1094 672 m 257
 1094 612 l 257
 1920 612 l 257
 1920 672 l 257
 1094 672 l 257
84 960 m 257
 84 900 l 257
 1093 900 l 257
 1093 960 l 257
 84 960 l 257
1063 960 m 257
 1063 316 l 257
 1123 316 l 257
 1123 960 l 257
 1063 960 l 257
61 320 m 257
 61 260 l 257
 1123 260 l 257
 1123 320 l 257
 61 320 l 257
EndSplineSet
EndChar

StartChar: uni091F
Encoding: 391 2335 391
GlifName: uni091F_
Width: 2048
VWidth: 0
GlyphClass: 2
Flags: W
LayerCount: 2
Fore
SplineSet
5 1554 m 257
 5 1494 l 257
 2043 1494 l 257
 2043 1554 l 257
 5 1554 l 257
1728 1528 m 257
 1728 988 l 257
 1788 988 l 257
 1788 1528 l 257
 1728 1528 l 257
1788 1023 m 257
 115 1023 l 257
 115 963 l 257
 1788 963 l 257
 1788 1023 l 257
94 1024 m 257
 94 5 l 257
 154 5 l 257
 154 1024 l 257
 94 1024 l 257
94 60 m 257
 94 0 l 257
 1831 0 l 257
 1831 60 l 257
 94 60 l 257
EndSplineSet
EndChar

StartChar: uni0920
Encoding: 393 2336 393
GlifName: uni0920
Width: 2048
VWidth: 0
GlyphClass: 2
Flags: W
LayerCount: 2
Fore
SplineSet
-0.5 1551 m 257
 -0.5 1490 l 257
 2048.5 1490 l 257
 2048.5 1551 l 257
 -0.5 1551 l 257
1109.5 1510 m 257
 1109.5 1021 l 257
 1168.5 1021 l 257
 1168.5 1510 l 257
 1109.5 1510 l 257
84.5 1024 m 257
 84.5 963 l 257
 1985.5 963 l 257
 1985.5 1024 l 257
 84.5 1024 l 257
71.5 1024 m 257
 71.5 13 l 257
 133.5 13 l 257
 133.5 1024 l 257
 71.5 1024 l 257
1914.5 1001 m 257
 1914.5 -2 l 257
 1985.5 -2 l 257
 1985.5 1001 l 257
 1914.5 1001 l 257
72.5 58 m 257
 72.5 -3 l 257
 1965.5 -3 l 257
 1965.5 58 l 257
 72.5 58 l 257
EndSplineSet
EndChar

StartChar: uni0921
Encoding: 395 2337 395
GlifName: uni0921
Width: 2048
VWidth: 0
GlyphClass: 2
Flags: W
LayerCount: 2
Fore
SplineSet
-1.5 1554 m 257
 -1.5 1494 l 257
 2049.5 1494 l 257
 2049.5 1554 l 257
 -1.5 1554 l 257
892.5 1546 m 257
 892.5 1015 l 257
 952.5 1015 l 257
 952.5 1546 l 257
 892.5 1546 l 257
892.5 1025 m 257
 892.5 965 l 257
 1947.5 965 l 257
 1947.5 1025 l 257
 892.5 1025 l 257
1913.5 1025 m 257
 1913.5 5 l 257
 1973.5 5 l 257
 1973.5 1025 l 257
 1913.5 1025 l 257
58.5 62 m 257
 58.5 0 l 257
 1973.5 0 l 257
 1973.5 62 l 257
 58.5 62 l 257
58.5 331 m 257
 58.5 5 l 257
 118.5 5 l 257
 118.5 331 l 257
 58.5 331 l 257
EndSplineSet
EndChar

StartChar: uni0922
Encoding: 397 2338 397
GlifName: uni0922
Width: 2048
VWidth: 0
GlyphClass: 2
Flags: W
LayerCount: 2
Fore
SplineSet
0 1549 m 257
 0 1488 l 257
 2048 1488 l 257
 2048 1549 l 257
 0 1549 l 257
1711 1528 m 257
 1711 988 l 257
 1793 988 l 257
 1793 1528 l 257
 1711 1528 l 257
1793 1023 m 257
 120 1023 l 257
 120 962 l 257
 1793 962 l 257
 1793 1023 l 257
99 1024 m 257
 99 5 l 257
 159 5 l 257
 159 1024 l 257
 99 1024 l 257
99 60 m 257
 99 0 l 257
 1836 0 l 257
 1836 60 l 257
 99 60 l 257
1778 544 m 257
 1778 -2 l 257
 1838 -2 l 257
 1838 544 l 257
 1778 544 l 257
1508 547 m 257
 1508 487 l 257
 1836 487 l 257
 1836 547 l 257
 1508 547 l 257
EndSplineSet
EndChar

StartChar: uni0923
Encoding: 399 2339 399
GlifName: uni0923
Width: 2048
VWidth: 0
GlyphClass: 2
Flags: W
LayerCount: 2
Fore
SplineSet
-3 1548 m 257
 -3 1488 l 257
 2051 1488 l 257
 2051 1548 l 257
 -3 1548 l 257
1883 1530 m 257
 1883 -1 l 257
 1943 -1 l 257
 1943 1530 l 257
 1883 1530 l 257
107 1543 m 257
 107 855 l 257
 167 855 l 257
 167 1543 l 257
 107 1543 l 257
1115 1528 m 257
 1115 844 l 257
 1175 844 l 257
 1175 1528 l 257
 1115 1528 l 257
107 885 m 257
 107 825 l 257
 1175 825 l 257
 1175 885 l 257
 107 885 l 257
EndSplineSet
EndChar

StartChar: uni0924
Encoding: 401 2340 401
GlifName: uni0924
Width: 2048
VWidth: 0
GlyphClass: 2
Flags: W
LayerCount: 2
Fore
SplineSet
-15 1557 m 257
 -15 1497 l 257
 2063 1497 l 257
 2063 1557 l 257
 -15 1557 l 257
1813 1534 m 257
 1813 1 l 257
 1872 1 l 257
 1872 1534 l 257
 1813 1534 l 257
1827 788 m 257
 120 788 l 257
 120 728 l 257
 1827 728 l 257
 1827 788 l 257
120 766 m 257
 120 26 l 257
 180 26 l 257
 180 766 l 257
 120 766 l 257
EndSplineSet
EndChar

StartChar: uni0925
Encoding: 403 2341 403
GlifName: uni0925
Width: 2048
VWidth: 0
GlyphClass: 2
Flags: W
LayerCount: 2
Fore
SplineSet
1647 1552 m 257
 1647 1492 l 257
 2031 1492 l 257
 2031 1552 l 257
 1647 1552 l 257
1923 1541 m 257
 1923 -18 l 257
 1982 -18 l 257
 1982 1541 l 257
 1923 1541 l 257
17 1550 m 257
 17 1490 l 257
 974 1490 l 257
 974 1550 l 257
 17 1550 l 257
913 1503 m 257
 913 986 l 257
 973 986 l 257
 973 1503 l 257
 913 1503 l 257
974 1018 m 257
 21 1018 l 257
 21 957 l 257
 974 957 l 257
 974 1018 l 257
21 983 m 257
 21 132 l 257
 80 132 l 257
 80 983 l 257
 21 983 l 257
21 191 m 257
 21 132 l 257
 1982 132 l 257
 1982 191 l 257
 21 191 l 257
EndSplineSet
EndChar

StartChar: uni0926
Encoding: 405 2342 405
GlifName: uni0926
Width: 2048
VWidth: 0
GlyphClass: 2
Flags: W
LayerCount: 2
Fore
SplineSet
3.5 1553 m 257
 3.5 1493 l 257
 2044.5 1493 l 257
 2044.5 1553 l 257
 3.5 1553 l 257
1133.5 1515 m 257
 1133.5 966 l 257
 1192.5 966 l 257
 1192.5 1515 l 257
 1133.5 1515 l 257
1191.5 1023 m 257
 57.5 1023 l 257
 57.5 963 l 257
 1191.5 963 l 257
 1191.5 1023 l 257
57.5 1011 m 257
 57.5 318 l 257
 116.5 318 l 257
 116.5 1011 l 257
 57.5 1011 l 257
57.5 346 m 257
 57.5 285 l 257
 1321.5 285 l 257
 1321.5 346 l 257
 57.5 346 l 257
1261.5 325 m 257
 1261.5 -7 l 257
 1321.5 -7 l 257
 1321.5 325 l 257
 1261.5 325 l 257
EndSplineSet
EndChar

StartChar: uni0927
Encoding: 407 2343 407
GlifName: uni0927
Width: 2048
VWidth: 0
GlyphClass: 2
Flags: W
LayerCount: 2
Fore
SplineSet
1691 1554 m 257
 1691 1493 l 257
 1992 1493 l 257
 1992 1554 l 257
 1691 1554 l 257
1880 1512 m 257
 1880 -6 l 257
 1939 -6 l 257
 1939 1512 l 257
 1880 1512 l 257
57 1553 m 257
 57 1492 l 257
 961 1492 l 257
 961 1553 l 257
 57 1553 l 257
57 1501 m 257
 57 844 l 257
 118 844 l 257
 118 1501 l 257
 57 1501 l 257
56 882 m 257
 56 823 l 257
 967 823 l 257
 967 882 l 257
 56 882 l 257
90 830 m 257
 90 163 l 257
 150 163 l 257
 150 830 l 257
 90 830 l 257
90 186 m 257
 90 126 l 257
 1899 126 l 257
 1899 186 l 257
 90 186 l 257
EndSplineSet
EndChar

StartChar: uni0928
Encoding: 409 2344 409
GlifName: uni0928
Width: 2048
VWidth: 0
GlyphClass: 2
Flags: W
LayerCount: 2
Fore
SplineSet
3 1552 m 257
 3 1493 l 257
 2045 1493 l 257
 2045 1552 l 257
 3 1552 l 257
1868 1548 m 257
 1868 3 l 257
 1929 3 l 257
 1929 1548 l 257
 1868 1548 l 257
98 744 m 257
 98 683 l 257
 1899 683 l 257
 1899 744 l 257
 98 744 l 257
99 741 m 257
 99 456 l 257
 159 456 l 257
 159 741 l 257
 99 741 l 257
EndSplineSet
EndChar

StartChar: uni0929
Encoding: 411 2345 411
GlifName: uni0929
Width: 2048
VWidth: 0
GlyphClass: 2
Flags: W
LayerCount: 2
Fore
SplineSet
0 1552 m 257
 0 1493 l 257
 2042 1493 l 257
 2042 1552 l 257
 0 1552 l 257
1865 1548 m 257
 1865 3 l 257
 1926 3 l 257
 1926 1548 l 257
 1865 1548 l 257
95 744 m 257
 95 683 l 257
 1896 683 l 257
 1896 744 l 257
 95 744 l 257
96 741 m 257
 96 456 l 257
 156 456 l 257
 156 741 l 257
 96 741 l 257
1024.5 -52 m 257
 1024.5 -166 l 257
 1167.5 -166 l 257
 1167.5 -52 l 257
 1024.5 -52 l 257
EndSplineSet
Ligature2: "nuktNuktaFormsinDevanagarilookup0 subtable" uni0928 uni093C
EndChar

StartChar: uni092A
Encoding: 413 2346 413
GlifName: uni092A_
Width: 2048
VWidth: 0
GlyphClass: 2
Flags: W
LayerCount: 2
Fore
SplineSet
-4 1552 m 257
 -4 1491 l 257
 2052 1491 l 257
 2052 1552 l 257
 -4 1552 l 257
1851 1539 m 257
 1851 2 l 257
 1912 2 l 257
 1912 1539 l 257
 1851 1539 l 257
98 1551 m 257
 98 965 l 257
 158 965 l 257
 158 1551 l 257
 98 1551 l 257
98 1025 m 257
 98 966 l 257
 1878 966 l 257
 1878 1025 l 257
 98 1025 l 257
EndSplineSet
EndChar

StartChar: uni092B
Encoding: 415 2347 415
GlifName: uni092B_
Width: 2048
VWidth: 0
GlyphClass: 2
Flags: W
LayerCount: 2
Fore
SplineSet
0.5 1551 m 257
 0.5 1491 l 257
 2047.5 1491 l 257
 2047.5 1551 l 257
 0.5 1551 l 257
1452.5 1539 m 257
 1452.5 2 l 257
 1512.5 2 l 257
 1512.5 1539 l 257
 1452.5 1539 l 257
93.5 1551 m 257
 93.5 965 l 257
 153.5 965 l 257
 153.5 1551 l 257
 93.5 1551 l 257
93.5 1024 m 257
 93.5 964 l 257
 1987.5 964 l 257
 1987.5 1024 l 257
 93.5 1024 l 257
1936.5 1024 m 257
 1936.5 686 l 257
 1996.5 686 l 257
 1996.5 1024 l 257
 1936.5 1024 l 257
EndSplineSet
EndChar

StartChar: uni092C
Encoding: 417 2348 417
GlifName: uni092C_
Width: 2048
VWidth: 0
GlyphClass: 2
Flags: W
LayerCount: 2
Fore
SplineSet
-0.5 1550 m 257
 -0.5 1491 l 257
 2048.5 1491 l 257
 2048.5 1550 l 257
 -0.5 1550 l 257
1823.5 1520 m 257
 1823.5 -25 l 257
 1883.5 -25 l 257
 1883.5 1520 l 257
 1823.5 1520 l 257
76.5 1021 m 257
 76.5 232 l 257
 136.5 232 l 257
 136.5 1021 l 257
 76.5 1021 l 257
77.5 264 m 257
 77.5 204 l 257
 1833.5 204 l 257
 1833.5 264 l 257
 77.5 264 l 257
101.5 926 m 257
 1748.5 259 l 257
 1836.5 262 l 257
 139.5 968 l 257
 101.5 926 l 257
75.5 1025 m 257
 75.5 964 l 257
 1125.5 964 l 257
 1125.5 1025 l 257
 75.5 1025 l 257
EndSplineSet
EndChar

StartChar: uni092D
Encoding: 419 2349 419
GlifName: uni092D_
Width: 2048
VWidth: 0
GlyphClass: 2
Flags: W
LayerCount: 2
Fore
SplineSet
72 61 m 257
 72 0 l 257
 576 0 l 257
 576 61 l 257
 72 61 l 257
72 320 m 257
 72 0 l 257
 140 0 l 257
 140 320 l 257
 72 320 l 257
1582.5 1551 m 257
 1582.5 1492 l 257
 2027.5 1492 l 257
 2027.5 1551 l 257
 1582.5 1551 l 257
1891.5 1543 m 257
 1891.5 0 l 257
 1951.5 0 l 257
 1951.5 1543 l 257
 1891.5 1543 l 257
20.5 1552 m 257
 20.5 1099 l 257
 80.5 1099 l 257
 80.5 1552 l 257
 20.5 1552 l 257
46.5 1552 m 257
 46.5 1491 l 257
 619.5 1491 l 257
 619.5 1552 l 257
 46.5 1552 l 257
573.5 1551 m 257
 573.5 -1 l 257
 633.5 -1 l 257
 633.5 1551 l 257
 573.5 1551 l 257
79.5 333 m 257
 79.5 273 l 257
 1923.5 273 l 257
 1923.5 333 l 257
 79.5 333 l 257
EndSplineSet
EndChar

StartChar: uni092E
Encoding: 421 2350 421
GlifName: uni092E_
Width: 2048
VWidth: 0
GlyphClass: 2
Flags: W
LayerCount: 2
Fore
SplineSet
72 61 m 257
 72 0 l 257
 626 0 l 257
 626 61 l 257
 72 61 l 257
72 320 m 257
 72 0 l 257
 140 0 l 257
 140 320 l 257
 72 320 l 257
3 1548 m 257
 3 1488 l 257
 2045 1488 l 257
 2045 1548 l 257
 3 1548 l 257
1910 1543 m 257
 1910 0 l 257
 1969 0 l 257
 1969 1543 l 257
 1910 1543 l 257
591 1538 m 257
 591 0 l 257
 650 0 l 257
 650 1538 l 257
 591 1538 l 257
97 333 m 257
 97 273 l 257
 1941 273 l 257
 1941 333 l 257
 97 333 l 257
EndSplineSet
EndChar

StartChar: uni092F
Encoding: 423 2351 423
GlifName: uni092F_
Width: 2048
VWidth: 0
GlyphClass: 2
Flags: W
LayerCount: 2
Fore
SplineSet
-9 1550 m 257
 -9 1489 l 257
 2057 1489 l 257
 2057 1550 l 257
 -9 1550 l 257
1863 1531 m 257
 1863 0 l 257
 1923 0 l 257
 1923 1531 l 257
 1863 1531 l 257
134 1490 m 257
 626 847 l 257
 684 846 l 257
 187 1542 l 257
 134 1490 l 257
626 847 m 257
 137 472 l 257
 197 462 l 257
 684 846 l 257
 626 847 l 257
206 524 m 257
 137 472 l 257
 1865 199 l 257
 1888 256 l 257
 206 524 l 257
EndSplineSet
EndChar

StartChar: uni0930
Encoding: 425 2352 425
GlifName: uni0930
Width: 2048
VWidth: 0
GlyphClass: 2
Flags: W
LayerCount: 2
Fore
SplineSet
-0.5 1552 m 257
 -0.5 1492 l 257
 2048.5 1492 l 257
 2048.5 1552 l 257
 -0.5 1552 l 257
1237.5 1540 m 257
 1237.5 790 l 257
 1297.5 790 l 257
 1297.5 1540 l 257
 1237.5 1540 l 257
1297.5 802 m 257
 352.5 802 l 257
 352.5 742 l 257
 1297.5 742 l 257
 1297.5 802 l 257
352.5 742 m 257
 1356.5 0 l 257
 1428.5 -2 l 257
 386.5 802 l 257
 352.5 742 l 257
EndSplineSet
EndChar

StartChar: uni0930_uni094D.blwf
Encoding: 426 -1 426
GlifName: uni0930_uni094D_.blwf
Width: 2048
VWidth: 0
GlyphClass: 4
Flags: W
LayerCount: 2
Fore
SplineSet
-14 1550 m 257
 -14 1490 l 257
 2050 1490 l 257
 2050 1550 l 257
 -14 1550 l 257
-630 -171 m 257
 -447 -511 l 257
 -379 -510 l 257
 -586 -104 l 257
 -630 -171 l 257
-586 -104 m 257
 -846 -499 l 257
 -778 -497 l 257
 -556 -163 l 257
 -586 -104 l 257
EndSplineSet
Ligature2: "blwfBelowBaseFormsinDevanagarilookup0 subtable" uni0930 uni094D
EndChar

StartChar: uni0930_uni094D.rphf
Encoding: 428 -1 428
GlifName: uni0930_uni094D_.rphf
Width: 2048
VWidth: 0
GlyphClass: 4
Flags: W
LayerCount: 2
Fore
SplineSet
-11 1552 m 257
 -11 1492 l 257
 2052 1492 l 257
 2052 1552 l 257
 -11 1552 l 257
-381 1550 m 257
 -321 1550 l 257
 -320 1869 l 257
 -380 1869 l 257
 -381 1550 l 257
-256 2002 m 257
 -256 1942 l 257
 72 1942 l 257
 72 2002 l 257
 -256 2002 l 257
-256 2002 m 257
 -380 1869 l 257
 -320 1869 l 257
 -256 1942 l 257
 -256 2002 l 257
EndSplineSet
Ligature2: "rphfRephForminDevanagarilookup0 subtable" uni0930 uni094D
EndChar

StartChar: uni0931
Encoding: 429 2353 429
GlifName: uni0931
Width: 2048
VWidth: 0
GlyphClass: 2
Flags: W
LayerCount: 2
Fore
SplineSet
0 1552 m 257
 0 1492 l 257
 2049 1492 l 257
 2049 1552 l 257
 0 1552 l 257
1238 1540 m 257
 1238 790 l 257
 1298 790 l 257
 1298 1540 l 257
 1238 1540 l 257
1298 802 m 257
 353 802 l 257
 353 742 l 257
 1298 742 l 257
 1298 802 l 257
353 742 m 257
 1357 0 l 257
 1429 -2 l 257
 387 802 l 257
 353 742 l 257
777 -80 m 257
 777 -194 l 257
 920 -194 l 257
 920 -80 l 257
 777 -80 l 257
EndSplineSet
Ligature2: "nuktNuktaFormsinDevanagarilookup0 subtable" uni0930 uni093C
EndChar

StartChar: uni0932
Encoding: 431 2354 431
GlifName: uni0932
Width: 2048
VWidth: 0
GlyphClass: 2
Flags: W
LayerCount: 2
Fore
SplineSet
-5.5 1550 m 257
 -5.5 1490 l 257
 2053.5 1490 l 257
 2053.5 1550 l 257
 -5.5 1550 l 257
1928.5 1544 m 257
 1868.5 1544 l 257
 1868.5 2 l 257
 1928.5 2 l 257
 1928.5 1544 l 257
37.5 750 m 257
 37.5 195 l 257
 97.5 195 l 257
 97.5 750 l 257
 37.5 750 l 257
37.5 782 m 257
 37.5 722 l 257
 1897.5 722 l 257
 1897.5 782 l 257
 37.5 782 l 257
953.5 753 m 257
 953.5 374 l 257
 1013.5 374 l 257
 1013.5 753 l 257
 953.5 753 l 257
EndSplineSet
EndChar

StartChar: uni0933
Encoding: 433 2355 433
GlifName: uni0933
Width: 2048
VWidth: 0
GlyphClass: 2
Flags: W
LayerCount: 2
Fore
SplineSet
-5.5 1553 m 257
 -5.5 1492 l 257
 2053.5 1492 l 257
 2053.5 1553 l 257
 -5.5 1553 l 257
1928.5 1544 m 257
 1868.5 1544 l 257
 1868.5 194 l 257
 1928.5 194 l 257
 1928.5 1544 l 257
37.5 760 m 257
 37.5 194 l 257
 97.5 194 l 257
 97.5 760 l 257
 37.5 760 l 257
37.5 782 m 257
 37.5 722 l 257
 1906.5 722 l 257
 1906.5 782 l 257
 37.5 782 l 257
953.5 753 m 257
 953.5 214 l 257
 1013.5 214 l 257
 1013.5 753 l 257
 953.5 753 l 257
39.5 251 m 257
 39.5 191 l 257
 1928.5 191 l 257
 1928.5 251 l 257
 39.5 251 l 257
EndSplineSet
EndChar

StartChar: uni0934
Encoding: 435 2356 435
GlifName: uni0934
Width: 2048
VWidth: 0
GlyphClass: 2
Flags: W
LayerCount: 2
Fore
SplineSet
0 1553 m 257
 0 1492 l 257
 2059 1492 l 257
 2059 1553 l 257
 0 1553 l 257
1934 1544 m 257
 1874 1544 l 257
 1874 194 l 257
 1934 194 l 257
 1934 1544 l 257
43 760 m 257
 43 194 l 257
 103 194 l 257
 103 760 l 257
 43 760 l 257
43 782 m 257
 43 722 l 257
 1912 722 l 257
 1912 782 l 257
 43 782 l 257
959 753 m 257
 959 214 l 257
 1019 214 l 257
 1019 753 l 257
 959 753 l 257
45 251 m 257
 45 191 l 257
 1934 191 l 257
 1934 251 l 257
 45 251 l 257
1041 -14 m 257
 1041 -128 l 257
 1184 -128 l 257
 1184 -14 l 257
 1041 -14 l 257
EndSplineSet
Ligature2: "nuktNuktaFormsinDevanagarilookup0 subtable" uni0933 uni093C
EndChar

StartChar: uni0935
Encoding: 437 2357 437
GlifName: uni0935
Width: 2048
VWidth: 0
GlyphClass: 2
Flags: W
LayerCount: 2
Fore
SplineSet
-0.5 1550 m 257
 -0.5 1490 l 257
 2048.5 1490 l 257
 2048.5 1550 l 257
 -0.5 1550 l 257
1823.5 1519 m 257
 1823.5 -25 l 257
 1883.5 -25 l 257
 1883.5 1519 l 257
 1823.5 1519 l 257
76.5 1021 m 257
 76.5 232 l 257
 136.5 232 l 257
 136.5 1021 l 257
 76.5 1021 l 257
77.5 264 m 257
 77.5 204 l 257
 1833.5 204 l 257
 1833.5 264 l 257
 77.5 264 l 257
75.5 1026 m 257
 75.5 965 l 257
 1125.5 965 l 257
 1125.5 1026 l 257
 75.5 1026 l 257
EndSplineSet
EndChar

StartChar: uni0936
Encoding: 439 2358 439
GlifName: uni0936
Width: 2048
VWidth: 0
GlyphClass: 2
Flags: W
LayerCount: 2
Fore
SplineSet
1221 1554 m 257
 1221 1494 l 257
 1998 1494 l 257
 1998 1554 l 257
 1221 1554 l 257
1887 1520 m 257
 1887 -4 l 257
 1949 -4 l 257
 1949 1520 l 257
 1887 1520 l 257
50 1543 m 257
 50 1224 l 257
 110 1224 l 257
 110 1543 l 257
 50 1543 l 257
50 1554 m 257
 50 1494 l 257
 1033 1494 l 257
 1033 1554 l 257
 50 1554 l 257
1009 1554 m 257
 1009 963 l 257
 1069 963 l 257
 1069 1554 l 257
 1009 1554 l 257
113 1023 m 257
 113 963 l 257
 1060 963 l 257
 1060 1023 l 257
 113 1023 l 257
113 963 m 257
 942 8 l 257
 999 28 l 257
 191 963 l 257
 113 963 l 257
EndSplineSet
EndChar

StartChar: uni0937
Encoding: 441 2359 441
GlifName: uni0937
Width: 2048
VWidth: 0
GlyphClass: 2
Flags: W
LayerCount: 2
Fore
SplineSet
-4 1552 m 257
 -4 1491 l 257
 2052 1491 l 257
 2052 1552 l 257
 -4 1552 l 257
1851 1539 m 257
 1851 2 l 257
 1912 2 l 257
 1912 1539 l 257
 1851 1539 l 257
98 1551 m 257
 98 965 l 257
 158 965 l 257
 158 1551 l 257
 98 1551 l 257
98 1025 m 257
 98 966 l 257
 1878 966 l 257
 1878 1025 l 257
 98 1025 l 257
98 1529 m 257
 1766 973 l 257
 1913 971 l 257
 329 1522 l 257
 98 1529 l 257
EndSplineSet
EndChar

StartChar: uni0938
Encoding: 443 2360 443
GlifName: uni0938
Width: 2048
VWidth: 0
GlyphClass: 2
Flags: W
LayerCount: 2
Fore
SplineSet
-1 1550 m 257
 -1 1491 l 257
 2049 1491 l 257
 2049 1550 l 257
 -1 1550 l 257
1876 1544 m 257
 1876 2 l 257
 1935 2 l 257
 1935 1544 l 257
 1876 1544 l 257
157 1509 m 257
 157 719 l 257
 218 719 l 257
 218 1509 l 257
 157 1509 l 257
157 720 m 257
 157 659 l 257
 1883 659 l 257
 1883 720 l 257
 157 720 l 257
157 659 m 257
 630 -3 l 257
 697 -1 l 257
 221 659 l 257
 157 659 l 257
EndSplineSet
EndChar

StartChar: uni0939
Encoding: 445 2361 445
GlifName: uni0939
Width: 2048
VWidth: 0
GlyphClass: 2
Flags: W
LayerCount: 2
Fore
SplineSet
-3.5 1555 m 257
 -3.5 1494 l 257
 2051.5 1494 l 257
 2051.5 1555 l 257
 -3.5 1555 l 257
1297.5 1514 m 257
 1306.5 1174 l 257
 1367.5 1174 l 257
 1358.5 1514 l 257
 1297.5 1514 l 257
1369.5 1196 m 257
 857.5 1196 l 257
 857.5 1135 l 257
 1369.5 1135 l 257
 1369.5 1196 l 257
853.5 1188 m 257
 854.5 784 l 257
 935.5 784 l 257
 934.5 1188 l 257
 853.5 1188 l 257
1541.5 789 m 257
 1541.5 577 l 257
 1601.5 577 l 257
 1601.5 789 l 257
 1541.5 789 l 257
141.5 840 m 257
 141.5 779 l 257
 1601.5 781 l 257
 1601.5 841 l 257
 141.5 840 l 257
141.5 793 m 257
 141.5 215 l 257
 201.5 215 l 257
 201.5 793 l 257
 141.5 793 l 257
201.5 216 m 257
 140.5 214 l 257
 724.5 4 l 257
 754.5 53 l 257
 201.5 216 l 257
EndSplineSet
EndChar

StartChar: uni093A
Encoding: 447 2362 447
GlifName: uni093A_
Width: 2048
VWidth: 0
GlyphClass: 4
Flags: W
LayerCount: 2
Fore
SplineSet
995 1633 m 257
 995 1090 l 257
 1053 1090 l 257
 1053 1633 l 257
 995 1633 l 257
EndSplineSet
EndChar

StartChar: uni093B
Encoding: 448 2363 448
GlifName: uni093B_
Width: 2048
VWidth: 0
GlyphClass: 2
Flags: W
LayerCount: 2
Fore
SplineSet
1088.5 1548 m 257
 1088.5 4 l 257
 1148.5 4 l 257
 1148.5 1548 l 257
 1088.5 1548 l 257
29.5 1085 m 257
 29.5 1025 l 257
 2018.5 1025 l 257
 2018.5 1085 l 257
 29.5 1085 l 257
EndSplineSet
EndChar

StartChar: uni093C
Encoding: 449 2364 449
GlifName: uni093C_
Width: 2048
VWidth: 0
GlyphClass: 4
Flags: W
HStem: -194 114<952.5 1095.5>
VStem: 952 143
LayerCount: 2
Fore
SplineSet
952.5 -80 m 257
 952.5 -194 l 257
 1095.5 -194 l 257
 1095.5 -80 l 257
 952.5 -80 l 257
EndSplineSet
PickledDataWithLists: "(dp0
Vcom.fontlab.hintData
p1
(dp2
Vhhints
p3
(lp4
(dp5
Vposition
p6
I-194
sVwidth
p7
I114
sasVvhints
p8
(lp9
(dp10
g6
I952
sg7
I143
sass."
EndChar

StartChar: uni093D
Encoding: 450 2365 450
GlifName: uni093D_
Width: 2048
VWidth: 0
GlyphClass: 2
Flags: W
LayerCount: 2
Fore
SplineSet
189 1264 m 257
 189 1195 l 257
 2048 1195 l 257
 2048 1264 l 257
 189 1264 l 257
187 1195 m 257
 1954 258 l 257
 2018 269 l 257
 261 1197 l 257
 187 1195 l 257
308 179 m 257
 300 104 l 257
 2022 206 l 257
 2018 269 l 257
 308 179 l 257
0 460 m 257
 299 107 l 257
 311 176 l 257
 48 498 l 257
 0 460 l 257
EndSplineSet
EndChar

StartChar: uni093E
Encoding: 451 2366 451
GlifName: uni093E_
Width: 2048
VWidth: 0
GlyphClass: 2
Flags: W
LayerCount: 2
Fore
SplineSet
-3 1550 m 257
 -3 1491 l 257
 2051 1491 l 257
 2051 1550 l 257
 -3 1550 l 257
991 1514 m 257
 991 1 l 257
 1050 1 l 257
 1050 1514 l 257
 991 1514 l 257
EndSplineSet
EndChar

StartChar: uni093F
Encoding: 452 2367 452
GlifName: uni093F_
Width: 2048
VWidth: 0
GlyphClass: 2
Flags: W
LayerCount: 2
Fore
SplineSet
0.5 1551 m 257
 0.5 1490 l 257
 2033.5 1490 l 257
 2033.5 1551 l 257
 0.5 1551 l 257
878.5 1937 m 257
 891.5 2 l 257
 952.5 2 l 257
 939.5 1937 l 257
 878.5 1937 l 257
899.5 1937 m 257
 899.5 1878 l 257
 2407.5 1878 l 257
 2407.5 1937 l 257
 899.5 1937 l 257
2343.5 1936 m 257
 2349.5 1646 l 257
 2406.5 1646 l 257
 2407.5 1937 l 257
 2343.5 1936 l 257
EndSplineSet
EndChar

StartChar: uni0940
Encoding: 453 2368 453
GlifName: uni0940
Width: 2048
VWidth: 0
GlyphClass: 2
Flags: W
LayerCount: 2
Fore
SplineSet
-1 1551 m 257
 -1 1489 l 257
 2048 1489 l 257
 2048 1551 l 257
 -1 1551 l 257
1075 1867 m 257
 1075 12 l 257
 1135 12 l 257
 1135 1867 l 257
 1075 1867 l 257
1135 1827 m 257
 1135 1895 l 257
 -594 1895 l 257
 -594 1827 l 257
 1135 1827 l 257
-605 1895 m 257
 -605 1563 l 257
 -545 1563 l 257
 -545 1895 l 257
 -605 1895 l 257
EndSplineSet
EndChar

StartChar: uni0941
Encoding: 454 2369 454
GlifName: uni0941
Width: 2048
VWidth: 0
GlyphClass: 4
Flags: W
LayerCount: 2
Fore
SplineSet
0.5 1553 m 257
 0.5 1493 l 257
 2048.5 1493 l 257
 2048.5 1553 l 257
 0.5 1553 l 257
-449.5 -23 m 257
 -449.5 -83 l 257
 -20.5 -83 l 257
 -20.5 -23 l 257
 -449.5 -23 l 257
-80.5 -40 m 257
 -80.5 -458 l 257
 -20.5 -458 l 257
 -20.5 -40 l 257
 -80.5 -40 l 257
-718.5 -407 m 257
 -718.5 -467 l 257
 -19.5 -467 l 257
 -19.5 -407 l 257
 -718.5 -407 l 257
-718.5 -183 m 257
 -718.5 -448 l 257
 -658.5 -448 l 257
 -658.5 -183 l 257
 -718.5 -183 l 257
EndSplineSet
EndChar

StartChar: uni0942
Encoding: 455 2370 455
GlifName: uni0942
Width: 2048
VWidth: 0
GlyphClass: 4
Flags: W
LayerCount: 2
Fore
SplineSet
-19.5 1559 m 257
 -19.5 1499 l 257
 2047.5 1499 l 257
 2047.5 1559 l 257
 -19.5 1559 l 257
-708.5 -287 m 257
 -708.5 -226 l 257
 -890.5 -226 l 257
 -890.5 -287 l 257
 -708.5 -287 l 257
-834.5 -289 m 257
 -834.5 0 l 257
 -895.5 0 l 257
 -895.5 -289 l 257
 -834.5 -289 l 257
-895.5 0 m 257
 -895.5 -61 l 257
 -479.5 -61 l 257
 -479.5 0 l 257
 -895.5 0 l 257
-479.5 -61 m 257
 -189.5 -406 l 257
 -109.5 -409 l 257
 -479.5 0 l 257
 -479.5 -61 l 257
EndSplineSet
EndChar

StartChar: uni0943
Encoding: 456 2371 456
GlifName: uni0943
Width: 2048
VWidth: 0
GlyphClass: 4
Flags: W
LayerCount: 2
Fore
SplineSet
-1 1549 m 257
 -1 1490 l 257
 2048 1490 l 257
 2048 1549 l 257
 -1 1549 l 257
-295 9 m 257
 -677 -133 l 257
 -651 -188 l 257
 -270 -46 l 257
 -295 9 l 257
-686 -132 m 257
 -508 -611 l 257
 -443 -591 l 257
 -621 -112 l 257
 -686 -132 l 257
-517 -591 m 257
 -496 -643 l 257
 -40 -464 l 257
 -71 -420 l 257
 -517 -591 l 257
EndSplineSet
EndChar

StartChar: uni0944
Encoding: 457 2372 457
GlifName: uni0944
Width: 2048
VWidth: 0
GlyphClass: 4
Flags: W
LayerCount: 2
Fore
SplineSet
-54.5 1554 m 257
 -54.5 1494 l 257
 2048.5 1494 l 257
 2048.5 1554 l 257
 -54.5 1554 l 257
-255.5 -7 m 257
 -613.5 -107 l 257
 -597.5 -165 l 257
 -238.5 -64 l 257
 -255.5 -7 l 257
-639.5 -116 m 257
 -403.5 -958 l 257
 -345.5 -942 l 257
 -582.5 -99 l 257
 -639.5 -116 l 257
-493.5 -496 m 257
 -476.5 -556 l 257
 -103.5 -451 l 257
 -120.5 -391 l 257
 -493.5 -496 l 257
-375.5 -888 m 257
 -364.5 -947 l 257
 14.5 -841 l 257
 2.5 -782 l 257
 -375.5 -888 l 257
EndSplineSet
EndChar

StartChar: uni0945
Encoding: 458 2373 458
GlifName: uni0945
Width: 2048
VWidth: 0
GlyphClass: 4
Flags: W
LayerCount: 2
Fore
SplineSet
-5 1553 m 257
 -5 1493 l 257
 2050 1493 l 257
 2050 1553 l 257
 -5 1553 l 257
-1082 2109 m 257
 -1082 1624 l 257
 -1023 1624 l 257
 -1023 2109 l 257
 -1082 2109 l 257
-1036 1687 m 257
 -1036 1626 l 257
 -442 1626 l 257
 -442 1687 l 257
 -1036 1687 l 257
-478 2117 m 257
 -478 1626 l 257
 -418 1626 l 257
 -418 2117 l 257
 -478 2117 l 257
EndSplineSet
EndChar

StartChar: uni0946
Encoding: 459 2374 459
GlifName: uni0946
Width: 2048
VWidth: 0
GlyphClass: 4
Flags: W
LayerCount: 2
Fore
SplineSet
-72.5 1553 m 257
 -72.5 1493 l 257
 2048.5 1493 l 257
 2048.5 1553 l 257
 -72.5 1553 l 257
-813.5 2062 m 257
 -813.5 1823 l 257
 -752.5 1823 l 257
 -752.5 2062 l 257
 -813.5 2062 l 257
-814.5 1866 m 257
 -814.5 1809 l 257
 168.5 1809 l 257
 168.5 1866 l 257
 -814.5 1866 l 257
111.5 1858 m 257
 111.5 1540 l 257
 171.5 1540 l 257
 171.5 1858 l 257
 111.5 1858 l 257
EndSplineSet
EndChar

StartChar: uni0947
Encoding: 460 2375 460
GlifName: uni0947
Width: 2048
VWidth: 0
GlyphClass: 4
Flags: W
LayerCount: 2
Fore
SplineSet
-90 1553 m 257
 -90 1493 l 257
 2049 1493 l 257
 2049 1553 l 257
 -90 1553 l 257
-697 1962 m 257
 1 1547 l 257
 105 1547 l 257
 -611 1998 l 257
 -697 1962 l 257
EndSplineSet
EndChar

StartChar: uni0948
Encoding: 461 2376 461
GlifName: uni0948
Width: 2048
VWidth: 0
GlyphClass: 4
Flags: W
LayerCount: 2
Fore
SplineSet
0.5 1554 m 257
 0.5 1494 l 257
 2048.5 1494 l 257
 2048.5 1554 l 257
 0.5 1554 l 257
-810.5 1771 m 257
 35.5 1544 l 257
 171.5 1544 l 257
 -737.5 1867 l 257
 -810.5 1771 l 257
-328.5 1991 m 257
 222.5 1522 l 257
 297.5 1547 l 257
 -258.5 2030 l 257
 -328.5 1991 l 257
EndSplineSet
EndChar

StartChar: uni0949
Encoding: 462 2377 462
GlifName: uni0949
Width: 2048
VWidth: 0
GlyphClass: 2
Flags: W
LayerCount: 2
Fore
SplineSet
-0.5 1548 m 257
 -0.5 1487 l 257
 2048.5 1487 l 257
 2048.5 1548 l 257
 -0.5 1548 l 257
988.5 1504 m 257
 988.5 2 l 257
 1048.5 2 l 257
 1048.5 1504 l 257
 988.5 1504 l 257
247.5 2085 m 257
 247.5 1639 l 257
 308.5 1639 l 257
 308.5 2085 l 257
 247.5 2085 l 257
253.5 1701 m 257
 253.5 1641 l 257
 1792.5 1641 l 257
 1792.5 1701 l 257
 253.5 1701 l 257
1721.5 2083 m 257
 1721.5 1641 l 257
 1792.5 1641 l 257
 1792.5 2083 l 257
 1721.5 2083 l 257
EndSplineSet
EndChar

StartChar: uni094A
Encoding: 463 2378 463
GlifName: uni094A_
Width: 2048
VWidth: 0
GlyphClass: 2
Flags: W
LayerCount: 2
Fore
SplineSet
-79 1553 m 257
 -79 1494 l 257
 2048 1496 l 257
 2048 1555 l 257
 -79 1553 l 257
1005 1518 m 257
 1005 1 l 257
 1066 1 l 257
 1066 1518 l 257
 1005 1518 l 257
-728 2062 m 257
 -728 1823 l 257
 -667 1823 l 257
 -667 2062 l 257
 -728 2062 l 257
-729 1866 m 257
 -729 1809 l 257
 1053 1809 l 257
 1053 1866 l 257
 -729 1866 l 257
993 1863 m 257
 993 1545 l 257
 1053 1545 l 257
 1053 1863 l 257
 993 1863 l 257
EndSplineSet
EndChar

StartChar: uni094B
Encoding: 464 2379 464
GlifName: uni094B_
Width: 2048
VWidth: 0
GlyphClass: 2
Flags: W
LayerCount: 2
Fore
SplineSet
-28 1548 m 257
 -28 1488 l 257
 2049 1488 l 257
 2049 1548 l 257
 -28 1548 l 257
1009.5 1509 m 257
 1008.5 5 l 257
 1068.5 5 l 257
 1069.5 1509 l 257
 1009.5 1509 l 257
-58 2053 m 257
 945.5 1512 l 257
 992.5 1550 l 257
 -12 2092 l 257
 -58 2053 l 257
EndSplineSet
EndChar

StartChar: uni094C
Encoding: 465 2380 465
GlifName: uni094C_
Width: 2048
VWidth: 0
GlyphClass: 2
Flags: W
LayerCount: 2
Fore
SplineSet
-59 1553 m 257
 -59 1494 l 257
 2049 1494 l 257
 2049 1553 l 257
 -59 1553 l 257
1011 1505 m 257
 1008 3 l 257
 1070 1 l 257
 1072 1503 l 257
 1011 1505 l 257
-205 1828 m 257
 871 1546 l 257
 964 1545 l 257
 -117 1845 l 257
 -205 1828 l 257
192 1887 m 257
 1000 1537 l 257
 1076 1541 l 257
 263 1909 l 257
 192 1887 l 257
EndSplineSet
EndChar

StartChar: uni094D
Encoding: 466 2381 466
GlifName: uni094D_
Width: 2048
VWidth: 0
GlyphClass: 4
Flags: W
LayerCount: 2
Fore
SplineSet
-277 -16 m 257
 -277 -77 l 257
 67 -77 l 257
 67 -16 l 257
 -277 -16 l 257
38 -71 m 257
 529 -418 l 257
 559 -366 l 257
 67 -15 l 257
 38 -71 l 257
-19 1549 m 257
 -19 1489 l 257
 2049 1489 l 257
 2049 1549 l 257
 -19 1549 l 257
EndSplineSet
EndChar

StartChar: glyph094D
Encoding: 467 -1 467
GlifName: uni094D_.alt
Width: 2048
VWidth: 0
GlyphClass: 4
Flags: W
LayerCount: 2
Fore
SplineSet
235 -16 m 257
 235 -77 l 257
 579 -77 l 257
 579 -16 l 257
 235 -16 l 257
550 -71 m 257
 1041 -418 l 257
 1071 -366 l 257
 579 -15 l 257
 550 -71 l 257
EndSplineSet
EndChar

StartChar: uni094E
Encoding: 468 2382 468
GlifName: uni094E_
Width: 2048
VWidth: 0
GlyphClass: 2
Flags: W
LayerCount: 2
Fore
SplineSet
864 1554 m 257
 864 -1 l 257
 924 -1 l 257
 924 1554 l 257
 864 1554 l 257
882 1554 m 257
 882 1495 l 257
 1184 1495 l 257
 1184 1554 l 257
 882 1554 l 257
EndSplineSet
EndChar

StartChar: uni094F
Encoding: 469 2383 469
GlifName: uni094F_
Width: 2048
VWidth: 0
GlyphClass: 2
Flags: W
LayerCount: 2
Fore
SplineSet
-79 1553 m 257
 -79 1494 l 257
 2048 1496 l 257
 2048 1555 l 257
 -79 1553 l 257
1005 1518 m 257
 1005 1 l 257
 1066 1 l 257
 1066 1518 l 257
 1005 1518 l 257
-329 2062 m 257
 -329 1823 l 257
 -268 1823 l 257
 -268 2062 l 257
 -329 2062 l 257
-330 1866 m 257
 -330 1809 l 257
 1053 1809 l 257
 1053 1866 l 257
 -330 1866 l 257
993 1863 m 257
 993 1545 l 257
 1053 1545 l 257
 1053 1863 l 257
 993 1863 l 257
841 2323 m 257
 789 2064 l 257
 827 2058 l 257
 887 2313 l 257
 841 2323 l 257
801 2121 m 257
 788 2066 l 257
 1430 1922 l 257
 1465 1961 l 257
 801 2121 l 257
1406 1972 m 257
 1073 1548 l 257
 1132 1549 l 257
 1465 1966 l 257
 1406 1972 l 257
EndSplineSet
EndChar

StartChar: uni0950
Encoding: 470 2384 470
GlifName: uni0950
Width: 2048
VWidth: 0
GlyphClass: 2
Flags: W
LayerCount: 2
Fore
SplineSet
1825 894 m 257
 1825 510 l 257
 1886 510 l 257
 1886 894 l 257
 1825 894 l 257
50 1547 m 257
 50 1487 l 257
 940 1487 l 257
 940 1547 l 257
 50 1547 l 257
919 1548 m 257
 919 36 l 257
 980 36 l 257
 980 1548 l 257
 919 1548 l 257
134 894 m 257
 134 834 l 257
 1855 834 l 257
 1855 894 l 257
 134 894 l 257
25 62 m 257
 25 1 l 257
 978 1 l 257
 978 62 l 257
 25 62 l 257
1044 1415 m 257
 1044 986 l 257
 1074 986 l 257
 1074 1415 l 257
 1044 1415 l 257
1064 1017 m 257
 1064 986 l 257
 1967 985 l 257
 1967 1016 l 257
 1064 1017 l 257
1950 1420 m 257
 1950 985 l 257
 1980 985 l 257
 1980 1420 l 257
 1950 1420 l 257
1211 1269 m 257
 1211 1188 l 257
 1828 1188 l 257
 1828 1269 l 257
 1211 1269 l 257
EndSplineSet
EndChar

StartChar: uni0951
Encoding: 471 2385 471
GlifName: uni0951
Width: 2048
VWidth: 0
GlyphClass: 4
Flags: W
LayerCount: 2
Fore
SplineSet
993.5 1968 m 257
 993.5 1614 l 257
 1054.5 1614 l 257
 1054.5 1968 l 257
 993.5 1968 l 257
EndSplineSet
EndChar

StartChar: uni0952
Encoding: 472 2386 472
GlifName: uni0952
Width: 2048
VWidth: 0
GlyphClass: 4
Flags: W
LayerCount: 2
Fore
SplineSet
-1438.5 -225 m 257
 -1438.5 -285 l 257
 -609.5 -285 l 257
 -609.5 -225 l 257
 -1438.5 -225 l 257
EndSplineSet
EndChar

StartChar: uni0953
Encoding: 473 2387 473
GlifName: uni0953
Width: 2048
VWidth: 0
GlyphClass: 4
Flags: W
LayerCount: 2
Fore
SplineSet
-1179.5 2289 m 257
 -912.5 1837 l 257
 -868.5 1839 l 257
 -1090.5 2334 l 257
 -1179.5 2289 l 257
EndSplineSet
EndChar

StartChar: uni0954
Encoding: 474 2388 474
GlifName: uni0954
Width: 2048
VWidth: 0
GlyphClass: 4
Flags: W
LayerCount: 2
Fore
SplineSet
-999 2394 m 257
 -1153 1885 l 257
 -1108 1892 l 257
 -895 2377 l 257
 -999 2394 l 257
EndSplineSet
EndChar

StartChar: uni0955
Encoding: 475 2389 475
GlifName: uni0955
Width: 2048
VWidth: 0
GlyphClass: 4
Flags: W
LayerCount: 2
Fore
SplineSet
-10.5 1553 m 257
 -10.5 1493 l 257
 2048.5 1493 l 257
 2048.5 1553 l 257
 -10.5 1553 l 257
-659.5 2182 m 257
 -659.5 1697 l 257
 -600.5 1697 l 257
 -600.5 2182 l 257
 -659.5 2182 l 257
-613.5 1760 m 257
 -613.5 1699 l 257
 1004.5 1699 l 257
 1004.5 1760 l 257
 -613.5 1760 l 257
968.5 2190 m 257
 968.5 1699 l 257
 1028.5 1699 l 257
 1028.5 2190 l 257
 968.5 2190 l 257
-752.5 1648 m 257
 -752.5 1588 l 257
 1099.5 1588 l 257
 1099.5 1648 l 257
 -752.5 1648 l 257
EndSplineSet
EndChar

StartChar: uni0956
Encoding: 476 2390 476
GlifName: uni0956
Width: 2048
VWidth: 0
GlyphClass: 4
Flags: W
LayerCount: 2
Fore
SplineSet
-12 1553 m 257
 -12 1493 l 257
 2048 1493 l 257
 2048 1553 l 257
 -12 1553 l 257
-623 1 m 257
 -622 -391 l 257
 -552 -391 l 257
 -553 1 l 257
 -623 1 l 257
-577 -330 m 257
 -577 -390 l 257
 17 -390 l 257
 17 -330 l 257
 -577 -330 l 257
-18 1 m 257
 -18 -391 l 257
 41 -391 l 257
 41 1 l 257
 -18 1 l 257
EndSplineSet
EndChar

StartChar: uni0957
Encoding: 477 2391 477
GlifName: uni0957
Width: 2048
VWidth: 0
GlyphClass: 4
Flags: W
LayerCount: 2
Fore
SplineSet
812 1553 m 257
 812 1493 l 257
 1847 1493 l 257
 1847 1553 l 257
 812 1553 l 257
201 1 m 257
 202 -236 l 257
 272 -236 l 257
 271 1 l 257
 201 1 l 257
247 -175 m 257
 247 -235 l 257
 841 -235 l 257
 841 -175 l 257
 247 -175 l 257
806 1 m 257
 806 -236 l 257
 865 -236 l 257
 865 1 l 257
 806 1 l 257
201 -394 m 257
 202 -639 l 257
 272 -639 l 257
 271 -394 l 257
 201 -394 l 257
247 -578 m 257
 247 -638 l 257
 841 -638 l 257
 841 -578 l 257
 247 -578 l 257
806 -394 m 257
 806 -641 l 257
 865 -641 l 257
 865 -394 l 257
 806 -394 l 257
EndSplineSet
EndChar

StartChar: uni0958
Encoding: 478 2392 478
GlifName: uni0958
Width: 2048
VWidth: 0
GlyphClass: 2
Flags: W
LayerCount: 2
Fore
SplineSet
153 1553 m 257
 153 1478 l 257
 2198 1469 l 257
 2201 1553 l 257
 153 1553 l 257
1263 1518 m 257
 1263 51 l 257
 1317 51 l 257
 1317 1518 l 257
 1263 1518 l 257
334 1067 m 257
 335 1012 l 257
 1283 1010 l 257
 1282 1069 l 257
 334 1067 l 257
323 1068 m 257
 322 604 l 257
 384 604 l 257
 383 1068 l 257
 323 1068 l 257
338 675 m 257
 338 605 l 257
 1310 605 l 257
 1310 675 l 257
 338 675 l 257
1288 999 m 257
 1288 942 l 257
 2065 942 l 257
 2065 999 l 257
 1288 999 l 257
2015 998 m 257
 2018 779 l 257
 2074 779 l 257
 2073 1000 l 257
 2015 998 l 257
801.5 -6 m 257
 801.5 -120 l 257
 944.5 -120 l 257
 944.5 -6 l 257
 801.5 -6 l 257
EndSplineSet
Ligature2: "nuktNuktaFormsinDevanagarilookup0 subtable" uni0915 uni093C
EndChar

StartChar: uni0959
Encoding: 480 2393 480
GlifName: uni0959
Width: 2048
VWidth: 0
GlyphClass: 2
Flags: W
LayerCount: 2
Fore
SplineSet
0 1556 m 257
 0 1496 l 257
 2056 1496 l 257
 2056 1556 l 257
 0 1556 l 257
1863 1514 m 257
 1863 0 l 257
 1924 0 l 257
 1924 1514 l 257
 1863 1514 l 257
1037 979 m 257
 1037 919 l 257
 1465 919 l 257
 1465 979 l 257
 1037 979 l 257
1007 979 m 257
 1007 414 l 257
 1068 414 l 257
 1068 979 l 257
 1007 979 l 257
1007 429 m 257
 1007 368 l 257
 1879 368 l 257
 1879 429 l 257
 1007 429 l 257
461 1510 m 257
 461 120 l 257
 522 120 l 257
 522 1510 l 257
 461 1510 l 257
17 714 m 257
 17 654 l 257
 521 654 l 257
 521 714 l 257
 17 714 l 257
461 130 m 257
 461 70 l 257
 1861 70 l 257
 1861 130 l 257
 461 130 l 257
964.5 -80 m 257
 964.5 -194 l 257
 1107.5 -194 l 257
 1107.5 -80 l 257
 964.5 -80 l 257
EndSplineSet
Ligature2: "nuktNuktaFormsinDevanagarilookup0 subtable" uni0916 uni093C
EndChar

StartChar: uni095A
Encoding: 482 2394 482
GlifName: uni095A_
Width: 2048
VWidth: 0
GlyphClass: 2
Flags: W
LayerCount: 2
Fore
SplineSet
59 853 m 257
 129 853 l 257
 129 1044 l 257
 59 1044 l 257
 59 853 l 257
59 882 m 257
 59 812 l 257
 918 812 l 257
 918 882 l 257
 59 882 l 257
848 1556 m 257
 848 812 l 257
 918 812 l 257
 918 1556 l 257
 848 1556 l 257
2005 1557 m 257
 730 1557 l 257
 730 1496 l 257
 2005 1496 l 257
 2005 1557 l 257
1854 1523 m 257
 1854 0 l 257
 1924 0 l 257
 1924 1523 l 257
 1854 1523 l 257
944.5 12 m 257
 944.5 -102 l 257
 1087.5 -102 l 257
 1087.5 12 l 257
 944.5 12 l 257
EndSplineSet
Ligature2: "nuktNuktaFormsinDevanagarilookup0 subtable" uni0917 uni093C
EndChar

StartChar: uni095B
Encoding: 484 2395 484
GlifName: uni095B_
Width: 2048
VWidth: 0
GlyphClass: 2
Flags: W
LayerCount: 2
Fore
SplineSet
0 1551 m 257
 0 1492 l 257
 2082 1492 l 257
 2082 1551 l 257
 0 1551 l 257
1874 1551 m 257
 1874 -12 l 257
 1935 -12 l 257
 1935 1551 l 257
 1874 1551 l 257
1047 860 m 257
 1047 801 l 257
 1895 801 l 257
 1895 860 l 257
 1047 860 l 257
1037 860 m 257
 1037 512 l 257
 1097 512 l 257
 1097 860 l 257
 1037 860 l 257
75 567 m 257
 75 508 l 257
 1097 508 l 257
 1097 567 l 257
 75 567 l 257
75 727 m 257
 75 509 l 257
 135 509 l 257
 135 727 l 257
 75 727 l 257
947.5 -56 m 257
 947.5 -170 l 257
 1090.5 -170 l 257
 1090.5 -56 l 257
 947.5 -56 l 257
EndSplineSet
Ligature2: "nuktNuktaFormsinDevanagarilookup0 subtable" uni091C uni093C
EndChar

StartChar: uni095C
Encoding: 486 2396 486
GlifName: uni095C_
Width: 2048
VWidth: 0
GlyphClass: 2
Flags: W
LayerCount: 2
Fore
SplineSet
-5 1554 m 257
 -5 1494 l 257
 2046 1494 l 257
 2046 1554 l 257
 -5 1554 l 257
889 1546 m 257
 889 1015 l 257
 949 1015 l 257
 949 1546 l 257
 889 1546 l 257
889 1025 m 257
 889 965 l 257
 1944 965 l 257
 1944 1025 l 257
 889 1025 l 257
1910 1025 m 257
 1910 5 l 257
 1970 5 l 257
 1970 1025 l 257
 1910 1025 l 257
55 62 m 257
 55 0 l 257
 1970 0 l 257
 1970 62 l 257
 55 62 l 257
55 331 m 257
 55 5 l 257
 115 5 l 257
 115 331 l 257
 55 331 l 257
1035 -74 m 257
 1035 -188 l 257
 1178 -188 l 257
 1178 -74 l 257
 1035 -74 l 257
EndSplineSet
Ligature2: "nuktNuktaFormsinDevanagarilookup0 subtable" uni0921 uni093C
EndChar

StartChar: uni095D
Encoding: 488 2397 488
GlifName: uni095D_
Width: 2048
VWidth: 0
GlyphClass: 2
Flags: W
LayerCount: 2
Fore
SplineSet
0 1549 m 257
 0 1488 l 257
 2048 1488 l 257
 2048 1549 l 257
 0 1549 l 257
1711 1528 m 257
 1711 988 l 257
 1793 988 l 257
 1793 1528 l 257
 1711 1528 l 257
1793 1023 m 257
 120 1023 l 257
 120 962 l 257
 1793 962 l 257
 1793 1023 l 257
99 1024 m 257
 99 5 l 257
 159 5 l 257
 159 1024 l 257
 99 1024 l 257
99 60 m 257
 99 0 l 257
 1836 0 l 257
 1836 60 l 257
 99 60 l 257
1778 544 m 257
 1778 -2 l 257
 1838 -2 l 257
 1838 544 l 257
 1778 544 l 257
1508 547 m 257
 1508 487 l 257
 1836 487 l 257
 1836 547 l 257
 1508 547 l 257
1038.5 -152 m 257
 1038.5 -266 l 257
 1181.5 -266 l 257
 1181.5 -152 l 257
 1038.5 -152 l 257
EndSplineSet
Ligature2: "nuktNuktaFormsinDevanagarilookup0 subtable" uni0922 uni093C
EndChar

StartChar: uni095E
Encoding: 490 2398 490
GlifName: uni095E_
Width: 2048
VWidth: 0
GlyphClass: 2
Flags: W
LayerCount: 2
Fore
SplineSet
0 1551 m 257
 0 1491 l 257
 2047 1491 l 257
 2047 1551 l 257
 0 1551 l 257
1452 1539 m 257
 1452 2 l 257
 1512 2 l 257
 1512 1539 l 257
 1452 1539 l 257
93 1551 m 257
 93 965 l 257
 153 965 l 257
 153 1551 l 257
 93 1551 l 257
93 1024 m 257
 93 964 l 257
 1987 964 l 257
 1987 1024 l 257
 93 1024 l 257
1936 1024 m 257
 1936 686 l 257
 1996 686 l 257
 1996 1024 l 257
 1936 1024 l 257
966 6 m 257
 966 -108 l 257
 1109 -108 l 257
 1109 6 l 257
 966 6 l 257
EndSplineSet
Ligature2: "nuktNuktaFormsinDevanagarilookup0 subtable" uni092B uni093C
EndChar

StartChar: uni095F
Encoding: 492 2399 492
GlifName: uni095F_
Width: 2048
VWidth: 0
GlyphClass: 2
Flags: W
LayerCount: 2
Fore
SplineSet
0 1550 m 257
 0 1489 l 257
 2066 1489 l 257
 2066 1550 l 257
 0 1550 l 257
1872 1531 m 257
 1872 0 l 257
 1932 0 l 257
 1932 1531 l 257
 1872 1531 l 257
143 1490 m 257
 635 847 l 257
 693 846 l 257
 196 1542 l 257
 143 1490 l 257
635 847 m 257
 146 472 l 257
 206 462 l 257
 693 846 l 257
 635 847 l 257
215 524 m 257
 146 472 l 257
 1874 199 l 257
 1897 256 l 257
 215 524 l 257
1035.5 -14 m 257
 1035.5 -128 l 257
 1178.5 -128 l 257
 1178.5 -14 l 257
 1035.5 -14 l 257
EndSplineSet
Ligature2: "nuktNuktaFormsinDevanagarilookup0 subtable" uni092F uni093C
EndChar

StartChar: uni0960
Encoding: 494 2400 494
GlifName: uni0960
Width: 2048
VWidth: 0
GlyphClass: 2
Flags: W
LayerCount: 2
Fore
SplineSet
0 1552 m 257
 0 1492 l 257
 2041 1492 l 257
 2041 1552 l 257
 0 1552 l 257
1020 1533 m 257
 1020 0 l 257
 1079 0 l 257
 1081 1533 l 257
 1020 1533 l 257
18 1043 m 257
 18 983 l 257
 321 983 l 257
 321 1043 l 257
 18 1043 l 257
1041 471 m 257
 82 422 l 257
 167 376 l 257
 1076 417 l 257
 1041 471 l 257
321 1043 m 257
 321 983 l 257
 1067 902 l 257
 1067 958 l 257
 321 1043 l 257
1067 897 m 257
 1067 837 l 257
 1920 837 l 257
 1920 897 l 257
 1067 897 l 257
1878 897 m 257
 1878 265 l 257
 1939 265 l 257
 1939 897 l 257
 1878 897 l 257
1878 324 m 257
 1878 264 l 257
 2048 264 l 257
 2048 324 l 257
 1878 324 l 257
1878 525 m 257
 1878 465 l 257
 2048 465 l 257
 2048 525 l 257
 1878 525 l 257
EndSplineSet
EndChar

StartChar: uni0961
Encoding: 495 2401 495
GlifName: uni0961
Width: 2048
VWidth: 0
GlyphClass: 2
Flags: W
LayerCount: 2
Fore
SplineSet
-7.5 1551 m 257
 -7.5 1491 l 257
 2055.5 1491 l 257
 2055.5 1551 l 257
 -7.5 1551 l 257
1217.5 1551 m 257
 1217.5 759 l 257
 1277.5 759 l 257
 1277.5 1551 l 257
 1217.5 1551 l 257
1988.5 791 m 257
 47.5 791 l 257
 47.5 731 l 257
 1988.5 731 l 257
 1988.5 791 l 257
50.5 777 m 257
 50.5 252 l 257
 110.5 252 l 257
 110.5 777 l 257
 50.5 777 l 257
984.5 791 m 257
 984.5 433 l 257
 1044.5 433 l 257
 1044.5 791 l 257
 984.5 791 l 257
1917.5 792 m 257
 1917.5 73 l 257
 1977.5 73 l 257
 1977.5 792 l 257
 1917.5 792 l 257
1948 134 m 257
 1948 73 l 257
 2040 73 l 257
 2040 134 l 257
 1948 134 l 257
1948 430 m 257
 1948 369 l 257
 2040 369 l 257
 2040 430 l 257
 1948 430 l 257
EndSplineSet
EndChar

StartChar: uni0962
Encoding: 496 2402 496
GlifName: uni0962
Width: 2048
VWidth: 0
GlyphClass: 4
Flags: W
LayerCount: 2
Fore
SplineSet
-7.5 1551 m 257
 -7.5 1491 l 257
 2047.5 1491 l 257
 2047.5 1551 l 257
 -7.5 1551 l 257
119 -16 m 257
 -798 -16 l 257
 -798 -76 l 257
 119 -76 l 257
 119 -16 l 257
-795 -30 m 257
 -795 -555 l 257
 -735 -555 l 257
 -735 -30 l 257
 -795 -30 l 257
-373 -16 m 257
 -373 -374 l 257
 -313 -374 l 257
 -313 -16 l 257
 -373 -16 l 257
48 -15 m 257
 48 -503 l 257
 108 -503 l 257
 108 -15 l 257
 48 -15 l 257
78 -442 m 257
 78 -503 l 257
 170 -503 l 257
 170 -442 l 257
 78 -442 l 257
EndSplineSet
EndChar

StartChar: uni0963
Encoding: 497 2403 497
GlifName: uni0963
Width: 2048
VWidth: 0
GlyphClass: 4
Flags: W
LayerCount: 2
Fore
SplineSet
-7.5 1551 m 257
 -7.5 1491 l 257
 2047.5 1491 l 257
 2047.5 1551 l 257
 -7.5 1551 l 257
119 -16 m 257
 -798 -16 l 257
 -798 -76 l 257
 119 -76 l 257
 119 -16 l 257
-795 -30 m 257
 -795 -555 l 257
 -735 -555 l 257
 -735 -30 l 257
 -795 -30 l 257
-373 -16 m 257
 -373 -374 l 257
 -313 -374 l 257
 -313 -16 l 257
 -373 -16 l 257
48 -15 m 257
 48 -734 l 257
 108 -734 l 257
 108 -15 l 257
 48 -15 l 257
78 -673 m 257
 78 -734 l 257
 170 -734 l 257
 170 -673 l 257
 78 -673 l 257
78 -377 m 257
 78 -438 l 257
 170 -438 l 257
 170 -377 l 257
 78 -377 l 257
EndSplineSet
EndChar

StartChar: uni0964
Encoding: 498 2404 498
GlifName: uni0964
Width: 2048
VWidth: 0
GlyphClass: 2
Flags: W
LayerCount: 2
Fore
SplineSet
994.5 1027 m 257
 994.5 -79 l 257
 1053.5 -79 l 257
 1053.5 1027 l 257
 994.5 1027 l 257
EndSplineSet
EndChar

StartChar: uni0965
Encoding: 499 2405 499
GlifName: uni0965
Width: 2048
VWidth: 0
GlyphClass: 2
Flags: W
LayerCount: 2
Fore
SplineSet
884 1027 m 257
 884 -79 l 257
 943 -79 l 257
 943 1027 l 257
 884 1027 l 257
1105 1027 m 257
 1105 -79 l 257
 1164 -79 l 257
 1164 1027 l 257
 1105 1027 l 257
EndSplineSet
EndChar

StartChar: uni0966
Encoding: 500 2406 500
GlifName: uni0966
Width: 2048
VWidth: 0
GlyphClass: 2
Flags: W
LayerCount: 2
Fore
SplineSet
119 994 m 257
 119 336 l 257
 179 336 l 257
 179 994 l 257
 119 994 l 257
119 1024 m 257
 119 963 l 257
 867 963 l 257
 867 1024 l 257
 119 1024 l 257
808 1023 m 257
 808 341 l 257
 869 341 l 257
 869 1023 l 257
 808 1023 l 257
119 349 m 257
 119 288 l 257
 869 288 l 257
 869 349 l 257
 119 349 l 257
EndSplineSet
EndChar

StartChar: uni0967
Encoding: 501 2407 501
GlifName: uni0967
Width: 2048
VWidth: 0
GlyphClass: 2
Flags: W
LayerCount: 2
Fore
SplineSet
227 1279 m 257
 227 748 l 257
 286 748 l 257
 286 1279 l 257
 227 1279 l 257
271 1279 m 257
 271 1218 l 257
 841 1218 l 257
 841 1279 l 257
 271 1279 l 257
827 1279 m 257
 827 -29 l 257
 887 -29 l 257
 887 1279 l 257
 827 1279 l 257
274 809 m 257
 274 749 l 257
 848 749 l 257
 848 809 l 257
 274 809 l 257
EndSplineSet
EndChar

StartChar: uni0968
Encoding: 502 2408 502
GlifName: uni0968
Width: 2048
VWidth: 0
GlyphClass: 2
Flags: W
LayerCount: 2
Fore
SplineSet
177 1275 m 257
 177 1216 l 257
 817 1216 l 257
 817 1275 l 257
 177 1275 l 257
809 1274 m 257
 809 497 l 257
 869 497 l 257
 869 1274 l 257
 809 1274 l 257
224 547 m 257
 224 488 l 257
 869 488 l 257
 869 547 l 257
 224 547 l 257
221 486 m 257
 777 4 l 257
 883 0 l 257
 294 494 l 257
 221 486 l 257
172 1275 m 257
 172 913 l 257
 231 913 l 257
 231 1275 l 257
 172 1275 l 257
EndSplineSet
EndChar

StartChar: uni0969
Encoding: 503 2409 503
GlifName: uni0969
Width: 2048
VWidth: 0
GlyphClass: 2
Flags: W
LayerCount: 2
Fore
SplineSet
332 1258 m 257
 332 1198 l 257
 792 1198 l 257
 792 1258 l 257
 332 1258 l 257
732 1247 m 257
 732 311 l 257
 792 311 l 257
 792 1247 l 257
 732 1247 l 257
355 863 m 257
 355 803 l 257
 789 803 l 257
 789 863 l 257
 355 863 l 257
333 355 m 257
 333 295 l 257
 792 295 l 257
 792 355 l 257
 333 355 l 257
333 295 m 257
 412 -107 l 257
 484 -89 l 257
 396 317 l 257
 333 295 l 257
EndSplineSet
EndChar

StartChar: uni096A
Encoding: 504 2410 504
GlifName: uni096A_
Width: 2048
VWidth: 0
GlyphClass: 2
Flags: W
LayerCount: 2
Fore
SplineSet
875 970 m 257
 158 317 l 257
 218 317 l 257
 935 970 l 257
 875 970 l 257
161 963 m 257
 857 317 l 257
 917 317 l 257
 222 963 l 257
 161 963 l 257
158 88 m 257
 158 28 l 257
 917 28 l 257
 917 88 l 257
 158 88 l 257
158 317 m 257
 158 69 l 257
 218 69 l 257
 218 317 l 257
 158 317 l 257
857 317 m 257
 857 60 l 257
 917 60 l 257
 917 317 l 257
 857 317 l 257
161 1169 m 257
 161 963 l 257
 222 963 l 257
 222 1169 l 257
 161 1169 l 257
875 1171 m 257
 875 970 l 257
 935 970 l 257
 935 1171 l 257
 875 1171 l 257
EndSplineSet
EndChar

StartChar: uni096B
Encoding: 505 2411 505
GlifName: uni096B_
Width: 2048
VWidth: 0
GlyphClass: 2
Flags: W
LayerCount: 2
Fore
SplineSet
123 1285 m 257
 123 524 l 257
 183 524 l 257
 183 1285 l 257
 123 1285 l 257
121 531 m 257
 121 471 l 257
 862 471 l 257
 862 531 l 257
 121 531 l 257
845 911 m 257
 847 -8 l 257
 906 -6 l 257
 904 912 l 257
 845 911 l 257
449 22 m 257
 449 -39 l 257
 906 -39 l 257
 906 22 l 257
 449 22 l 257
EndSplineSet
EndChar

StartChar: uni096C
Encoding: 506 2412 506
GlifName: uni096C_
Width: 2048
VWidth: 0
GlyphClass: 2
Flags: W
LayerCount: 2
Fore
SplineSet
131 1269 m 257
 131 1209 l 257
 776 1209 l 257
 776 1269 l 257
 131 1269 l 257
89 1269 m 257
 89 136 l 257
 148 136 l 257
 148 1269 l 257
 89 1269 l 257
124 750 m 257
 124 691 l 257
 766 691 l 257
 766 750 l 257
 124 750 l 257
119 196 m 257
 119 135 l 257
 856 135 l 257
 856 196 l 257
 119 196 l 257
795 323 m 257
 795 -96 l 257
 856 -96 l 257
 856 323 l 257
 795 323 l 257
EndSplineSet
EndChar

StartChar: uni096D
Encoding: 507 2413 507
GlifName: uni096D_
Width: 2048
VWidth: 0
GlyphClass: 2
Flags: W
LayerCount: 2
Fore
SplineSet
59 1168 m 257
 59 157 l 257
 118 157 l 257
 118 1168 l 257
 59 1168 l 257
59 176 m 257
 59 116 l 257
 947 116 l 257
 947 176 l 257
 59 176 l 257
917 1073 m 257
 917 116 l 257
 976 116 l 257
 976 1073 l 257
 917 1073 l 257
933 1073 m 257
 505 1073 l 257
 505 1012 l 257
 933 1012 l 257
 933 1073 l 257
470 1073 m 257
 470 708 l 257
 530 708 l 257
 531 1073 l 257
 470 1073 l 257
EndSplineSet
EndChar

StartChar: uni096E
Encoding: 508 2414 508
GlifName: uni096E_
Width: 2048
VWidth: 0
GlyphClass: 2
Flags: W
LayerCount: 2
Fore
SplineSet
119 106 m 257
 119 45 l 257
 907 45 l 257
 907 106 l 257
 119 106 l 257
636 1153 m 257
 119 108 l 257
 173 80 l 257
 690 1125 l 257
 636 1153 l 257
EndSplineSet
EndChar

StartChar: uni096F
Encoding: 509 2415 509
GlifName: uni096F_
Width: 2048
VWidth: 0
GlyphClass: 2
Flags: W
LayerCount: 2
Fore
SplineSet
259 666 m 257
 259 606 l 257
 814 606 l 257
 814 666 l 257
 259 666 l 257
794 607 m 257
 853 607 l 257
 853 1237 l 257
 794 1237 l 257
 794 607 l 257
226 1265 m 257
 226 1206 l 257
 853 1206 l 257
 853 1265 l 257
 226 1265 l 257
230 1261 m 257
 230 490 l 257
 289 490 l 257
 289 1261 l 257
 230 1261 l 257
230 490 m 257
 637 -36 l 257
 700 -40 l 257
 289 490 l 257
 230 490 l 257
EndSplineSet
EndChar

StartChar: uni0970
Encoding: 510 2416 510
GlifName: uni0970
Width: 2048
VWidth: 0
GlyphClass: 2
Flags: W
HStem: 278 171
VStem: 916 214
LayerCount: 2
Fore
SplineSet
916.75 448.5 m 257
 916.75 277.5 l 257
 1131.25 277.5 l 257
 1131.25 448.5 l 257
 916.75 448.5 l 257
EndSplineSet
PickledDataWithLists: "(dp0
Vcom.fontlab.hintData
p1
(dp2
Vhhints
p3
(lp4
(dp5
Vposition
p6
I278
sVwidth
p7
I171
sasVvhints
p8
(lp9
(dp10
g6
I916
sg7
I214
sass."
EndChar

StartChar: uni0971
Encoding: 511 2417 511
GlifName: uni0971
Width: 2048
VWidth: 0
GlyphClass: 2
Flags: W
HStem: 306 114<952.5 1095.5>
VStem: 952 143
LayerCount: 2
Fore
SplineSet
952.5 420 m 257
 952.5 306 l 257
 1095.5 306 l 257
 1095.5 420 l 257
 952.5 420 l 257
EndSplineSet
PickledDataWithLists: "(dp0
Vcom.fontlab.hintData
p1
(dp2
Vhhints
p3
(lp4
(dp5
Vposition
p6
I306
sVwidth
p7
I114
sasVvhints
p8
(lp9
(dp10
g6
I952
sg7
I143
sass."
EndChar

StartChar: uni0972
Encoding: 512 2418 512
GlifName: uni0972
Width: 2048
VWidth: 0
GlyphClass: 2
Flags: W
LayerCount: 2
Fore
SplineSet
1209 1553 m 257
 1209 1494 l 257
 2033 1494 l 257
 2033 1553 l 257
 1209 1553 l 257
1935 1518 m 257
 1935 1 l 257
 1996 1 l 257
 1996 1518 l 257
 1935 1518 l 257
43 1547 m 257
 43 1487 l 257
 1066 1487 l 257
 1066 1547 l 257
 43 1547 l 257
1033 1550 m 257
 1033 34 l 257
 1092 34 l 257
 1092 1550 l 257
 1033 1550 l 257
127 894 m 257
 127 835 l 257
 1962 835 l 257
 1962 894 l 257
 127 894 l 257
18 65 m 257
 18 1 l 257
 1092 1 l 257
 1092 65 l 257
 18 65 l 257
857 2100 m 257
 857 1615 l 257
 916 1615 l 257
 916 2100 l 257
 857 2100 l 257
903 1678 m 257
 903 1617 l 257
 2024 1617 l 257
 2024 1678 l 257
 903 1678 l 257
1988 2108 m 257
 1988 1617 l 257
 2048 1617 l 257
 2048 2108 l 257
 1988 2108 l 257
EndSplineSet
EndChar

StartChar: uni0973
Encoding: 513 2419 513
GlifName: uni0973
Width: 2048
VWidth: 0
GlyphClass: 2
Flags: W
LayerCount: 2
Fore
SplineSet
1751 1553 m 257
 1751 1494 l 257
 2048 1494 l 257
 2048 1553 l 257
 1751 1553 l 257
1950 1518 m 257
 1950 1 l 257
 2011 1 l 257
 2011 1518 l 257
 1950 1518 l 257
43 1547 m 257
 43 1487 l 257
 1078 1487 l 257
 1078 1547 l 257
 43 1547 l 257
1045 1550 m 257
 1045 34 l 257
 1104 34 l 257
 1104 1550 l 257
 1045 1550 l 257
127 894 m 257
 127 835 l 257
 1977 835 l 257
 1977 894 l 257
 127 894 l 257
18 65 m 257
 18 1 l 257
 1104 1 l 257
 1104 65 l 257
 18 65 l 257
1948 1788 m 257
 1948 1530 l 257
 2006 1530 l 257
 2006 1788 l 257
 1948 1788 l 257
EndSplineSet
EndChar

StartChar: uni0974
Encoding: 514 2420 514
GlifName: uni0974
Width: 2048
VWidth: 0
GlyphClass: 2
Flags: W
LayerCount: 2
Fore
SplineSet
1322 1548 m 257
 1322 1487 l 257
 2051 1487 l 257
 2051 1548 l 257
 1322 1548 l 257
1460 1508 m 257
 1460 1 l 257
 1520 1 l 257
 1520 1508 l 257
 1460 1508 l 257
50 1547 m 257
 50 1487 l 257
 901 1487 l 257
 901 1547 l 257
 50 1547 l 257
866 1548 m 257
 866 30 l 257
 927 30 l 257
 927 1548 l 257
 866 1548 l 257
86 894 m 257
 86 834 l 257
 1486 834 l 257
 1486 894 l 257
 86 894 l 257
25 60 m 257
 25 1 l 257
 927 1 l 257
 927 60 l 257
 25 60 l 257
1914 1819 m 257
 1914 4 l 257
 1975 4 l 257
 1975 1819 l 257
 1914 1819 l 257
EndSplineSet
EndChar

StartChar: uni0975
Encoding: 515 2421 515
GlifName: uni0975
Width: 2048
VWidth: 0
GlyphClass: 2
Flags: W
LayerCount: 2
Fore
SplineSet
1328 1543 m 257
 1328 1482 l 257
 2040 1482 l 257
 2040 1543 l 257
 1328 1543 l 257
1349 1860 m 257
 1349 1 l 257
 1409 1 l 257
 1409 1860 l 257
 1349 1860 l 257
25 1548 m 257
 25 1487 l 257
 885 1487 l 257
 885 1548 l 257
 25 1548 l 257
850 1548 m 257
 850 45 l 257
 911 45 l 257
 911 1548 l 257
 850 1548 l 257
109 753 m 257
 109 693 l 257
 1391 693 l 257
 1391 753 l 257
 109 753 l 257
0 61 m 257
 0 1 l 257
 911 1 l 257
 911 61 l 257
 0 61 l 257
1835 1502 m 257
 1835 2 l 257
 1895 2 l 257
 1895 1502 l 257
 1835 1502 l 257
32 2062 m 257
 32 1823 l 257
 92 1823 l 257
 92 2062 l 257
 32 2062 l 257
31 1866 m 257
 31 1806 l 257
 1408 1806 l 257
 1408 1866 l 257
 31 1866 l 257
579 2450 m 257
 398 2104 l 257
 439 2080 l 257
 634 2415 l 257
 579 2450 l 257
460 2143 m 257
 428 2086 l 257
 2025 1800 l 257
 2060 1840 l 257
 460 2143 l 257
2034 1852 m 257
 1799 1524 l 257
 1854 1528 l 257
 2086 1832 l 257
 2034 1852 l 257
EndSplineSet
EndChar

StartChar: uni0976
Encoding: 516 2422 516
GlifName: uni0976
Width: 2048
VWidth: 0
GlyphClass: 2
Flags: W
LayerCount: 2
Fore
SplineSet
1740 1552 m 257
 1740 1492 l 257
 2051 1492 l 257
 2051 1552 l 257
 1740 1552 l 257
1939 1520 m 257
 1939 1 l 257
 2000 1 l 257
 2000 1520 l 257
 1939 1520 l 257
50 1547 m 257
 50 1486 l 257
 1085 1486 l 257
 1085 1547 l 257
 50 1547 l 257
1051 1548 m 257
 1051 30 l 257
 1111 30 l 257
 1111 1548 l 257
 1051 1548 l 257
134 894 m 257
 134 835 l 257
 1965 835 l 257
 1965 894 l 257
 134 894 l 257
25 61 m 257
 25 1 l 257
 1111 1 l 257
 1111 61 l 257
 25 61 l 257
75 -58 m 257
 76 -391 l 257
 135 -391 l 257
 134 -58 l 257
 75 -58 l 257
103 -329 m 257
 103 -390 l 257
 1885 -390 l 257
 1885 -329 l 257
 103 -329 l 257
1849 -53 m 257
 1849 -391 l 257
 1909 -391 l 257
 1909 -53 l 257
 1849 -53 l 257
EndSplineSet
EndChar

StartChar: uni0977
Encoding: 517 2423 517
GlifName: uni0977
Width: 2048
VWidth: 0
GlyphClass: 2
Flags: W
LayerCount: 2
Fore
SplineSet
1733 1553 m 257
 1733 1494 l 257
 2030 1494 l 257
 2030 1553 l 257
 1733 1553 l 257
1932 1518 m 257
 1932 1 l 257
 1993 1 l 257
 1993 1518 l 257
 1932 1518 l 257
43 1547 m 257
 43 1487 l 257
 1078 1487 l 257
 1078 1547 l 257
 43 1547 l 257
1045 1550 m 257
 1045 34 l 257
 1104 34 l 257
 1104 1550 l 257
 1045 1550 l 257
127 894 m 257
 127 835 l 257
 1959 835 l 257
 1959 894 l 257
 127 894 l 257
18 65 m 257
 18 1 l 257
 1104 1 l 257
 1104 65 l 257
 18 65 l 257
166 -44 m 257
 167 -281 l 257
 237 -281 l 257
 236 -44 l 257
 166 -44 l 257
212 -220 m 257
 212 -280 l 257
 1830 -280 l 257
 1830 -220 l 257
 212 -220 l 257
1795 -44 m 257
 1795 -281 l 257
 1854 -281 l 257
 1854 -44 l 257
 1795 -44 l 257
166 -439 m 257
 167 -684 l 257
 237 -684 l 257
 236 -439 l 257
 166 -439 l 257
212 -623 m 257
 212 -683 l 257
 1830 -683 l 257
 1830 -623 l 257
 212 -623 l 257
1795 -439 m 257
 1795 -686 l 257
 1854 -686 l 257
 1854 -439 l 257
 1795 -439 l 257
EndSplineSet
EndChar

StartChar: uni0978
Encoding: 518 2424 518
GlifName: uni0978
Width: 2048
VWidth: 0
GlyphClass: 2
Flags: W
LayerCount: 2
Fore
SplineSet
7 1552 m 257
 7 1492 l 257
 2046 1492 l 257
 2046 1552 l 257
 7 1552 l 257
335 1509 m 257
 335 907 l 257
 396 907 l 257
 396 1509 l 257
 335 1509 l 257
1338 1023 m 257
 61 1023 l 257
 61 963 l 257
 1338 963 l 257
 1338 1023 l 257
1289 1023 m 257
 1289 246 l 257
 1350 246 l 257
 1350 1023 l 257
 1289 1023 l 257
EndSplineSet
EndChar

StartChar: uni0979
Encoding: 519 2425 519
GlifName: uni0979
Width: 2048
VWidth: 0
GlyphClass: 2
Flags: W
LayerCount: 2
Fore
SplineSet
-17 1551 m 257
 -17 1492 l 257
 2065 1492 l 257
 2065 1551 l 257
 -17 1551 l 257
1857 1551 m 257
 1857 -12 l 257
 1918 -12 l 257
 1918 1551 l 257
 1857 1551 l 257
1030 860 m 257
 1030 801 l 257
 1878 801 l 257
 1878 860 l 257
 1030 860 l 257
1020 860 m 257
 1020 512 l 257
 1080 512 l 257
 1080 860 l 257
 1020 860 l 257
58 567 m 257
 58 508 l 257
 1080 508 l 257
 1080 567 l 257
 58 567 l 257
58 727 m 257
 58 509 l 257
 118 509 l 257
 118 727 l 257
 58 727 l 257
1013 153 m 257
 1013 39 l 257
 1156 39 l 257
 1156 153 l 257
 1013 153 l 257
211 153 m 257
 211 39 l 257
 354 39 l 257
 354 153 l 257
 211 153 l 257
552 -80 m 257
 552 -194 l 257
 695 -194 l 257
 695 -80 l 257
 552 -80 l 257
EndSplineSet
EndChar

StartChar: uni097A
Encoding: 520 2426 520
GlifName: uni097A_
Width: 2048
VWidth: 0
GlyphClass: 2
Flags: W
LayerCount: 2
Fore
SplineSet
-8.5 1550 m 257
 -8.5 1489 l 257
 2056.5 1489 l 257
 2056.5 1550 l 257
 -8.5 1550 l 257
1862.5 1531 m 257
 1862.5 0 l 257
 1922.5 0 l 257
 1922.5 1531 l 257
 1862.5 1531 l 257
134.5 1490 m 257
 326.5 847 l 257
 384.5 846 l 257
 187.5 1542 l 257
 134.5 1490 l 257
326.5 847 m 257
 137.5 472 l 257
 197.5 450 l 257
 384.5 846 l 257
 326.5 847 l 257
168.5 524 m 257
 137.5 472 l 257
 1864.5 199 l 257
 1887.5 256 l 257
 168.5 524 l 257
198 1409 m 257
 189 1341 l 257
 1882 304 l 257
 1893 387 l 257
 198 1409 l 257
EndSplineSet
EndChar

StartChar: uni097B
Encoding: 521 2427 521
GlifName: uni097B_
Width: 2048
VWidth: 0
GlyphClass: 2
Flags: W
HStem: 812 70<57 916 846 916> 853 29<57 127 127 127> 1496 61<216 1991 216 1991> 1496 27<1840 1840 1840 1910>
VStem: 57 70<853 882 812 1044 853 1044 853 1044> 334 70 816 70
LayerCount: 2
Fore
SplineSet
57 853 m 257
 127 853 l 257
 127 1044 l 257
 57 1044 l 257
 57 853 l 257
57 882 m 257
 57 812 l 257
 916 812 l 257
 916 882 l 257
 57 882 l 257
846 1556 m 257
 846 812 l 257
 916 812 l 257
 916 1556 l 257
 846 1556 l 257
1991 1557 m 257
 216 1557 l 257
 216 1496 l 257
 1991 1496 l 257
 1991 1557 l 257
1840 1523 m 257
 1840 0 l 257
 1910 0 l 257
 1910 1523 l 257
 1840 1523 l 257
162 60 m 257
 162 0 l 257
 1892 0 l 257
 1892 60 l 257
 162 60 l 257
EndSplineSet
PickledDataWithLists: "(dp0
Vcom.fontlab.hintData
p1
(dp2
Vhhints
p3
(lp4
(dp5
Vposition
p6
I812
sVwidth
p7
I70
sa(dp8
g6
I853
sg7
I29
sa(dp9
g6
I1496
sg7
I61
sa(dp10
g6
I1496
sg7
I27
sasVvhints
p11
(lp12
(dp13
g6
I57
sg7
I70
sa(dp14
g6
I334
sg7
I70
sa(dp15
g6
I816
sg7
I70
sass."
EndChar

StartChar: uni097C
Encoding: 522 2428 522
GlifName: uni097C_
Width: 2048
VWidth: 0
GlyphClass: 2
Flags: W
LayerCount: 2
Fore
SplineSet
-17 1551 m 257
 -17 1492 l 257
 2065 1492 l 257
 2065 1551 l 257
 -17 1551 l 257
1857 1551 m 257
 1857 0 l 257
 1918 0 l 257
 1918 1551 l 257
 1857 1551 l 257
1030 860 m 257
 1030 801 l 257
 1878 801 l 257
 1878 860 l 257
 1030 860 l 257
1020 860 m 257
 1020 512 l 257
 1080 512 l 257
 1080 860 l 257
 1020 860 l 257
58 567 m 257
 58 508 l 257
 1080 508 l 257
 1080 567 l 257
 58 567 l 257
58 727 m 257
 58 509 l 257
 118 509 l 257
 118 727 l 257
 58 727 l 257
59 61 m 257
 59 0 l 257
 1876 0 l 257
 1876 61 l 257
 59 61 l 257
EndSplineSet
EndChar

StartChar: uni097D
Encoding: 523 2429 523
GlifName: uni097D_
Width: 2048
VWidth: 0
GlyphClass: 2
Flags: W
LayerCount: 2
Fore
SplineSet
192 1519 m 257
 192 1460 l 257
 1341 1460 l 257
 1341 1519 l 257
 192 1519 l 257
1289 1514 m 257
 1289 966 l 257
 1345 966 l 257
 1345 1514 l 257
 1289 1514 l 257
369 1015 m 257
 369 951 l 257
 1345 951 l 257
 1345 1015 l 257
 369 1015 l 257
369 1011 m 257
 369 206 l 257
 431 206 l 257
 431 1011 l 257
 369 1011 l 257
EndSplineSet
EndChar

StartChar: uni097E
Encoding: 524 2430 524
GlifName: uni097E_
Width: 2048
VWidth: 0
GlyphClass: 2
Flags: W
LayerCount: 2
Fore
SplineSet
2 1553 m 257
 2 1493 l 257
 2053 1493 l 257
 2053 1553 l 257
 2 1553 l 257
896 1545 m 257
 896 1014 l 257
 956 1014 l 257
 956 1545 l 257
 896 1545 l 257
896 1025 m 257
 896 966 l 257
 1951 966 l 257
 1951 1025 l 257
 896 1025 l 257
1917 1025 m 257
 1917 5 l 257
 1977 5 l 257
 1977 1025 l 257
 1917 1025 l 257
62 61 m 257
 62 0 l 257
 1977 0 l 257
 1977 61 l 257
 62 61 l 257
62 331 m 257
 62 5 l 257
 123 5 l 257
 123 331 l 257
 62 331 l 257
28 -81 m 257
 28 -141 l 257
 2044 -141 l 257
 2044 -81 l 257
 28 -81 l 257
EndSplineSet
EndChar

StartChar: uni097F
Encoding: 525 2431 525
GlifName: uni097F_
Width: 2048
VWidth: 0
GlyphClass: 2
Flags: W
LayerCount: 2
Fore
SplineSet
-2 1550 m 257
 -2 1491 l 257
 2050 1491 l 257
 2050 1550 l 257
 -2 1550 l 257
1825 1520 m 257
 1825 -25 l 257
 1885 -25 l 257
 1885 1520 l 257
 1825 1520 l 257
75 1021 m 257
 75 232 l 257
 135 232 l 257
 135 1021 l 257
 75 1021 l 257
76 264 m 257
 76 204 l 257
 1835 204 l 257
 1835 264 l 257
 76 264 l 257
100 926 m 257
 1750 259 l 257
 1838 262 l 257
 138 968 l 257
 100 926 l 257
74 1025 m 257
 74 964 l 257
 1124 964 l 257
 1124 1025 l 257
 74 1025 l 257
79 27 m 257
 79 -35 l 257
 1885 -35 l 257
 1885 27 l 257
 79 27 l 257
EndSplineSet
EndChar

StartChar: uni1E9E
Encoding: 526 7838 526
GlifName: uni1E_9E_
Width: 2048
VWidth: 0
GlyphClass: 2
Flags: W
LayerCount: 2
Fore
SplineSet
82 1547 m 257
 82 -4 l 257
 149 -4 l 257
 149 1547 l 257
 82 1547 l 257
123 1548 m 257
 123 1487 l 257
 1630 1487 l 257
 1630 1548 l 257
 123 1548 l 257
1598 1548 m 257
 1598 1023 l 257
 1666 1023 l 257
 1666 1548 l 257
 1598 1548 l 257
1610 1062 m 257
 875 1062 l 257
 875 826 l 257
 1610 826 l 257
 1610 1062 l 257
1606 848 m 257
 1606 68 l 257
 1667 68 l 257
 1667 848 l 257
 1606 848 l 257
425 100 m 257
 425 40 l 257
 1663 40 l 257
 1663 100 l 257
 425 100 l 257
EndSplineSet
PickledDataWithLists: "(dp0
."
EndChar

StartChar: uni2044
Encoding: 527 8260 527
GlifName: uni2044
Width: 2048
VWidth: 0
GlyphClass: 2
Flags: W
LayerCount: 2
Fore
SplineSet
1818 1435 m 257
 133 6 l 257
 240 -67 l 257
 1918 1410 l 257
 1818 1435 l 257
EndSplineSet
PickledDataWithLists: "(dp0
."
EndChar

StartChar: uni20B9
Encoding: 528 8377 528
GlifName: uni20B_9
Width: 2048
VWidth: 0
GlyphClass: 2
Flags: W
LayerCount: 2
Fore
SplineSet
719 1172 m 257
 719 1110 l 257
 1358 1110 l 257
 1358 1172 l 257
 719 1172 l 257
719 1549 m 257
 719 1487 l 257
 1358 1487 l 257
 1358 1549 l 257
 719 1549 l 257
1064 1540 m 257
 1064 790 l 257
 1123 790 l 257
 1123 1540 l 257
 1064 1540 l 257
1123 802 m 257
 690 802 l 257
 690 736 l 257
 1123 736 l 257
 1123 802 l 257
690 738 m 257
 939 9 l 257
 1010 -7 l 257
 723 808 l 257
 690 738 l 257
EndSplineSet
EndChar

StartChar: uni25CC
Encoding: 529 9676 529
GlifName: uni25C_C_
Width: 2048
VWidth: 0
GlyphClass: 2
Flags: W
LayerCount: 2
Fore
SplineSet
958 1065 m 257
 958 926 l 257
 1080 926 l 257
 1080 1065 l 257
 958 1065 l 257
1223 953 m 257
 1223 814 l 257
 1345 814 l 257
 1345 953 l 257
 1223 953 l 257
697 957 m 257
 697 818 l 257
 819 818 l 257
 819 957 l 257
 697 957 l 257
1317 709 m 257
 1317 570 l 257
 1439 570 l 257
 1439 709 l 257
 1317 709 l 257
1226 438 m 257
 1226 299 l 257
 1348 299 l 257
 1348 438 l 257
 1226 438 l 257
609 713 m 257
 609 574 l 257
 731 574 l 257
 731 713 l 257
 609 713 l 257
965 371 m 257
 965 232 l 257
 1087 232 l 257
 1087 371 l 257
 965 371 l 257
697 455 m 257
 697 316 l 257
 819 316 l 257
 819 455 l 257
 697 455 l 257
EndSplineSet
EndChar

StartChar: uniFB01
Encoding: 530 64257 530
GlifName: uniF_B_01
Width: 2048
VWidth: 0
GlyphClass: 3
Flags: W
LayerCount: 2
Fore
SplineSet
774 1086 m 257
 774 -348 l 257
 834 -348 l 257
 834 1086 l 257
 774 1086 l 257
775 1086 m 257
 775 1025 l 257
 1685 1025 l 257
 1685 1086 l 257
 775 1086 l 257
1534 679 m 257
 1534 52 l 257
 1594 52 l 257
 1594 679 l 257
 1534 679 l 257
1406 60 m 257
 1406 1 l 257
 1759 1 l 257
 1759 60 l 257
 1406 60 l 257
103 677 m 257
 103 617 l 257
 1551 617 l 257
 1551 677 l 257
 103 677 l 257
EndSplineSet
LCarets2: 1 32
Ligature2: "dligDiscretionaryLigatureslookup0 subtable" f i
EndChar

StartChar: uniFB02
Encoding: 531 64258 531
GlifName: uniF_B_02
Width: 2048
VWidth: 0
GlyphClass: 3
Flags: W
LayerCount: 2
Fore
SplineSet
752 1024 m 257
 752 -410 l 257
 812 -410 l 257
 812 1024 l 257
 752 1024 l 257
753 1024 m 257
 753 963 l 257
 1663 963 l 257
 1663 1024 l 257
 753 1024 l 257
30 462 m 257
 30 402 l 257
 1533 402 l 257
 1533 462 l 257
 30 462 l 257
1374 72 m 257
 1374 1 l 257
 2008 1 l 257
 2008 72 l 257
 1374 72 l 257
1661 1553 m 257
 1661 57 l 257
 1721 57 l 257
 1721 1553 l 257
 1661 1553 l 257
1435 1553 m 257
 1435 1494 l 257
 1670 1494 l 257
 1670 1553 l 257
 1435 1553 l 257
EndSplineSet
LCarets2: 1 84
Ligature2: "dligDiscretionaryLigatureslookup0 subtable" f l
EndChar

StartChar: v
Encoding: 535 118 535
GlifName: v
Width: 2048
VWidth: 0
GlyphClass: 2
Flags: W
LayerCount: 2
Fore
SplineSet
96.5 1025 m 257
 995.5 0 l 257
 1054.5 0 l 257
 156.5 1023 l 257
 96.5 1025 l 257
1891.5 1024 m 257
 995.5 0 l 257
 1054.5 1 l 257
 1951.5 1025 l 257
 1891.5 1024 l 257
EndSplineSet
EndChar

StartChar: w
Encoding: 536 119 536
GlifName: w
Width: 2048
VWidth: 0
GlyphClass: 2
Flags: W
LayerCount: 2
Fore
SplineSet
103.5 1023 m 257
 103.5 1 l 257
 163.5 0 l 257
 163.5 1023 l 257
 103.5 1023 l 257
1885.5 1028 m 257
 1885.5 12 l 257
 1945.5 12 l 257
 1945.5 1028 l 257
 1885.5 1028 l 257
994.5 610 m 257
 994.5 1 l 257
 1053.5 1 l 257
 1053.5 610 l 257
 994.5 610 l 257
102.5 59 m 257
 104.5 0 l 257
 1945.5 0 l 257
 1945.5 59 l 257
 102.5 59 l 257
EndSplineSet
EndChar

StartChar: x
Encoding: 541 120 541
GlifName: x
Width: 2048
VWidth: 0
GlyphClass: 2
Flags: W
LayerCount: 2
Fore
SplineSet
89.5 0 m 257
 209.5 0 l 257
 1948.5 1024 l 257
 1813.5 1023 l 257
 89.5 0 l 257
96.5 1024 m 257
 1817.5 0 l 257
 1958.5 -3 l 257
 249.5 1023 l 257
 96.5 1024 l 257
EndSplineSet
EndChar

StartChar: y
Encoding: 542 121 542
GlifName: y
Width: 2048
VWidth: 0
GlyphClass: 2
Flags: W
LayerCount: 2
Fore
SplineSet
1841 1023 m 257
 1841 -410 l 257
 1901 -410 l 257
 1901 1023 l 257
 1841 1023 l 257
147 -351 m 257
 147 -410 l 257
 1888 -410 l 257
 1888 -351 l 257
 147 -351 l 257
147 1023 m 257
 147 264 l 257
 207 264 l 257
 207 1023 l 257
 147 1023 l 257
147 324 m 257
 147 264 l 257
 1861 264 l 257
 1861 324 l 257
 147 324 l 257
EndSplineSet
EndChar

StartChar: yen
Encoding: 546 165 546
GlifName: yen
Width: 2048
VWidth: 0
GlyphClass: 2
Flags: W
LayerCount: 2
Fore
SplineSet
740 673 m 257
 740 615 l 257
 1286 615 l 257
 1286 673 l 257
 740 673 l 257
740 438 m 257
 740 380 l 257
 1286 380 l 257
 1286 438 l 257
 740 438 l 257
995 897 m 257
 995 -1 l 257
 1056 -1 l 257
 1056 897 l 257
 995 897 l 257
672 1547 m 257
 672 859 l 257
 731 859 l 257
 731 1547 l 257
 672 1547 l 257
1315 1547 m 257
 1315 859 l 257
 1376 859 l 257
 1376 1547 l 257
 1315 1547 l 257
712 919 m 257
 712 858 l 257
 1352 858 l 257
 1352 919 l 257
 712 919 l 257
EndSplineSet
EndChar

StartChar: z
Encoding: 548 122 548
GlifName: z
Width: 2048
VWidth: 0
GlyphClass: 2
Flags: W
LayerCount: 2
Fore
SplineSet
98 1024 m 257
 98 964 l 257
 1950 964 l 257
 1950 1024 l 257
 98 1024 l 257
98 59 m 257
 98 0 l 257
 1950 0 l 257
 1950 59 l 257
 98 59 l 257
1873 964 m 257
 98 59 l 257
 176 59 l 257
 1950 964 l 257
 1873 964 l 257
EndSplineSet
EndChar

StartChar: zero
Encoding: 552 48 552
GlifName: zero
Width: 2048
VWidth: 0
GlyphClass: 2
Flags: W
LayerCount: 2
Fore
SplineSet
426 883 m 257
 1597 883 l 257
 1597 740 l 257
 426 740 l 257
 426 883 l 257
152 1499 m 257
 1894 1499 l 257
 1893 72 l 257
 152 72 l 257
 152 1499 l 257
93 1559 m 257
 93 7 l 257
 1954 7 l 257
 1954 1559 l 257
 93 1559 l 257
EndSplineSet
EndChar

StartChar: uni200C
Encoding: 553 8204 553
GlifName: uni200C_
Width: 2048
VWidth: 0
GlyphClass: 2
Flags: W
LayerCount: 2
Fore
SplineSet
851.5 1552 m 257
 851.5 1440 l 257
 1196.5 1440 l 257
 1196.5 1552 l 257
 851.5 1552 l 257
975.5 1640 m 257
 975.5 -5 l 257
 1065.5 -5 l 257
 1065.5 1640 l 257
 975.5 1640 l 257
EndSplineSet
EndChar

StartChar: uni200D
Encoding: 554 8205 554
GlifName: uni200D_
Width: 2048
VWidth: 0
GlyphClass: 2
Flags: W
LayerCount: 2
Fore
SplineSet
991.5 1552 m 257
 991.5 -12 l 257
 1056.5 -12 l 257
 1056.5 1552 l 257
 991.5 1552 l 257
EndSplineSet
EndChar

StartChar: uni0917_uni094D.half
Encoding: 555 -1 555
GlifName: uni0917_uni094D_.half
Width: 2048
VWidth: 0
GlyphClass: 3
Flags: W
LayerCount: 2
Fore
SplineSet
51 853 m 257
 121 853 l 257
 121 1044 l 257
 51 1044 l 257
 51 853 l 257
51 882 m 257
 51 812 l 257
 910 812 l 257
 910 882 l 257
 51 882 l 257
840 1556 m 257
 840 812 l 257
 910 812 l 257
 910 1556 l 257
 840 1556 l 257
2052 1557 m 257
 722 1557 l 257
 722 1496 l 257
 2052 1496 l 257
 2052 1557 l 257
EndSplineSet
Ligature2: "halfHalfFormsinDevanagarilookup0 subtable" uni0917 uni094D
EndChar

StartChar: uni0918_uni094D.half
Encoding: 556 -1 556
GlifName: uni0918_uni094D_.half
Width: 2048
VWidth: 0
GlyphClass: 3
Flags: W
LayerCount: 2
Fore
SplineSet
1.5 1554 m 257
 1.5 1495 l 257
 2046.5 1495 l 257
 2046.5 1554 l 257
 1.5 1554 l 257
173.5 1515 m 257
 173.5 859 l 257
 232.5 859 l 257
 232.5 1515 l 257
 173.5 1515 l 257
218.5 867 m 257
 218.5 807 l 257
 974.5 807 l 257
 974.5 867 l 257
 218.5 867 l 257
179.5 328 m 257
 179.5 269 l 257
 2101.5 269 l 257
 2101.5 328 l 257
 179.5 328 l 257
173.5 269 m 257
 233.5 269 l 257
 233.5 814 l 257
 173.5 814 l 257
 173.5 269 l 257
EndSplineSet
Ligature2: "halfHalfFormsinDevanagarilookup0 subtable" uni0918 uni094D
EndChar

StartChar: uni0919_uni094D.half
Encoding: 557 -1 557
GlifName: uni0919_uni094D_.half
Width: 2048
VWidth: 0
GlyphClass: 3
Flags: W
LayerCount: 2
Fore
SplineSet
-2 1554 m 257
 -2 1494 l 257
 2050 1494 l 257
 2050 1554 l 257
 -2 1554 l 257
1163 1543 m 257
 1163 1026 l 257
 1223 1026 l 257
 1223 1543 l 257
 1163 1543 l 257
1214 1086 m 257
 239 1086 l 257
 239 1026 l 257
 1214 1026 l 257
 1214 1086 l 257
227 1083 m 257
 227 629 l 257
 299 629 l 257
 299 1083 l 257
 227 1083 l 257
233 680 m 257
 233 620 l 257
 1300 620 l 257
 1300 680 l 257
 233 680 l 257
1237 680 m 257
 1237 329 l 257
 1300 329 l 257
 1300 680 l 257
 1237 680 l 257
114 361 m 257
 114 300 l 257
 1301 300 l 257
 1301 361 l 257
 114 361 l 257
114 502 m 257
 114 308 l 257
 174 308 l 257
 174 502 l 257
 114 502 l 257
1285 931 m 257
 1285 835 l 257
 1381 835 l 257
 1381 931 l 257
 1285 931 l 257
1259 284 m 257
 1259 223 l 257
 1603 223 l 257
 1603 284 l 257
 1259 284 l 257
1574 229 m 257
 2065 -118 l 257
 2095 -66 l 257
 1603 285 l 257
 1574 229 l 257
EndSplineSet
Ligature2: "halfHalfFormsinDevanagarilookup0 subtable" uni0919 uni094D
EndChar

StartChar: uni091A_uni094D.half
Encoding: 560 -1 560
GlifName: uni091A__uni094D_.half
Width: 2048
VWidth: 0
GlyphClass: 3
Flags: W
LayerCount: 2
Fore
SplineSet
0 1556 m 257
 0 1497 l 257
 2048 1497 l 257
 2048 1556 l 257
 0 1556 l 257
2129 421 m 257
 2129 480 l 257
 1108 480 l 257
 1108 421 l 257
 2129 421 l 257
1108 837 m 257
 1108 421 l 257
 1167 421 l 257
 1167 837 l 257
 1108 837 l 257
372 852 m 257
 372 791 l 257
 1309 791 l 257
 1309 852 l 257
 372 852 l 257
EndSplineSet
Ligature2: "halfHalfFormsinDevanagarilookup0 subtable" uni091A uni094D
EndChar

StartChar: uni091B_uni094D.half
Encoding: 561 -1 561
GlifName: uni091B__uni094D_.half
Width: 2048
VWidth: 0
GlyphClass: 3
Flags: W
LayerCount: 2
Fore
SplineSet
-3 1555 m 257
 -3 1495 l 257
 2051 1495 l 257
 2051 1555 l 257
 -3 1555 l 257
1133 1128 m 257
 548 1128 l 257
 548 1069 l 257
 1133 1069 l 257
 1133 1128 l 257
539 1128 m 257
 539 538 l 257
 599 538 l 257
 599 1128 l 257
 539 1128 l 257
570 547 m 257
 570 487 l 257
 1133 487 l 257
 1133 547 l 257
 570 547 l 257
538 501 m 257
 538 0 l 257
 598 0 l 257
 598 501 l 257
 538 501 l 257
594 59 m 257
 594 0 l 257
 2041 0 l 257
 2041 59 l 257
 594 59 l 257
EndSplineSet
Ligature2: "halfHalfFormsinDevanagarilookup0 subtable" uni091B uni094D
EndChar

StartChar: uni091C_uni094D.half
Encoding: 562 -1 562
GlifName: uni091C__uni094D_.half
Width: 2048
VWidth: 0
GlyphClass: 3
Flags: W
LayerCount: 2
Fore
SplineSet
-17 1551 m 257
 -17 1492 l 257
 2065 1492 l 257
 2065 1551 l 257
 -17 1551 l 257
1305 860 m 257
 1305 801 l 257
 2153 801 l 257
 2153 860 l 257
 1305 860 l 257
1295 860 m 257
 1295 512 l 257
 1355 512 l 257
 1355 860 l 257
 1295 860 l 257
333 567 m 257
 333 508 l 257
 1355 508 l 257
 1355 567 l 257
 333 567 l 257
333 727 m 257
 333 509 l 257
 393 509 l 257
 393 727 l 257
 333 727 l 257
EndSplineSet
Ligature2: "halfHalfFormsinDevanagarilookup0 subtable" uni091C uni094D
EndChar

StartChar: uni091D_uni094D.half
Encoding: 563 -1 563
GlifName: uni091D__uni094D_.half
Width: 2048
VWidth: 0
GlyphClass: 3
Flags: W
LayerCount: 2
Fore
SplineSet
-8.5 1554 m 257
 -8.5 1494 l 257
 2056.5 1494 l 257
 2056.5 1554 l 257
 -8.5 1554 l 257
1307.5 1537 m 257
 1307.5 1024 l 257
 1367.5 1024 l 257
 1367.5 1537 l 257
 1307.5 1537 l 257
334.5 1084 m 257
 334.5 1024 l 257
 1367.5 1024 l 257
 1367.5 1084 l 257
 334.5 1084 l 257
334.5 1085 m 257
 334.5 651 l 257
 394.5 651 l 257
 394.5 1085 l 257
 334.5 1085 l 257
334.5 698 m 257
 334.5 638 l 257
 2107.5 638 l 257
 2107.5 698 l 257
 334.5 698 l 257
1279.5 691 m 257
 1279.5 7 l 257
 1339.5 7 l 257
 1339.5 691 l 257
 1279.5 691 l 257
334.5 63 m 257
 334.5 3 l 257
 1339.5 3 l 257
 1339.5 63 l 257
 334.5 63 l 257
334.5 63 m 257
 334.5 -148 l 257
 394.5 -148 l 257
 394.5 63 l 257
 334.5 63 l 257
EndSplineSet
Ligature2: "halfHalfFormsinDevanagarilookup0 subtable" uni091D uni094D
EndChar

StartChar: uni091E_uni094D.half
Encoding: 564 -1 564
GlifName: uni091E__uni094D_.half
Width: 2048
VWidth: 0
GlyphClass: 3
Flags: W
LayerCount: 2
Fore
SplineSet
-5 1554 m 257
 -5 1493 l 257
 2053 1493 l 257
 2053 1554 l 257
 -5 1554 l 257
1272 672 m 257
 1272 612 l 257
 2098 612 l 257
 2098 672 l 257
 1272 672 l 257
262 960 m 257
 262 900 l 257
 1271 900 l 257
 1271 960 l 257
 262 960 l 257
1241 960 m 257
 1241 316 l 257
 1301 316 l 257
 1301 960 l 257
 1241 960 l 257
239 320 m 257
 239 260 l 257
 1301 260 l 257
 1301 320 l 257
 239 320 l 257
EndSplineSet
Ligature2: "halfHalfFormsinDevanagarilookup0 subtable" uni091E uni094D
EndChar

StartChar: uni091F_uni094D.half
Encoding: 566 -1 566
GlifName: uni091F__uni094D_.half
Width: 2048
VWidth: 0
GlyphClass: 3
Flags: W
LayerCount: 2
Fore
SplineSet
5 1554 m 257
 5 1494 l 257
 2043 1494 l 257
 2043 1554 l 257
 5 1554 l 257
1728 1528 m 257
 1728 988 l 257
 1788 988 l 257
 1788 1528 l 257
 1728 1528 l 257
1788 1023 m 257
 115 1023 l 257
 115 963 l 257
 1788 963 l 257
 1788 1023 l 257
94 1024 m 257
 94 305 l 257
 154 305 l 257
 154 1024 l 257
 94 1024 l 257
94 360 m 257
 94 300 l 257
 1831 300 l 257
 1831 360 l 257
 94 360 l 257
1099 232 m 257
 1099 171 l 257
 1443 171 l 257
 1443 232 l 257
 1099 232 l 257
1414 177 m 257
 1905 -170 l 257
 1935 -118 l 257
 1443 233 l 257
 1414 177 l 257
EndSplineSet
Ligature2: "halfHalfFormsinDevanagarilookup0 subtable" uni091F uni094D
EndChar

StartChar: uni0920_uni094D.half
Encoding: 567 -1 567
GlifName: uni0920_uni094D_.half
Width: 2048
VWidth: 0
GlyphClass: 3
Flags: W
LayerCount: 2
Fore
SplineSet
-0.5 1551 m 257
 -0.5 1490 l 257
 2048.5 1490 l 257
 2048.5 1551 l 257
 -0.5 1551 l 257
1109.5 1510 m 257
 1109.5 1021 l 257
 1168.5 1021 l 257
 1168.5 1510 l 257
 1109.5 1510 l 257
84.5 1024 m 257
 84.5 963 l 257
 1985.5 963 l 257
 1985.5 1024 l 257
 84.5 1024 l 257
71.5 1024 m 257
 71.5 313 l 257
 133.5 313 l 257
 133.5 1024 l 257
 71.5 1024 l 257
1914.5 1001 m 257
 1914.5 298 l 257
 1985.5 298 l 257
 1985.5 1001 l 257
 1914.5 1001 l 257
72.5 358 m 257
 72.5 297 l 257
 1965.5 297 l 257
 1965.5 358 l 257
 72.5 358 l 257
1260 284 m 257
 1260 223 l 257
 1604 223 l 257
 1604 284 l 257
 1260 284 l 257
1575 229 m 257
 2066 -118 l 257
 2096 -66 l 257
 1604 285 l 257
 1575 229 l 257
EndSplineSet
Ligature2: "halfHalfFormsinDevanagarilookup0 subtable" uni0920 uni094D
EndChar

StartChar: uni0921_uni094D.half
Encoding: 568 -1 568
GlifName: uni0921_uni094D_.half
Width: 2048
VWidth: 0
GlyphClass: 3
Flags: W
LayerCount: 2
Fore
SplineSet
-1.5 1554 m 257
 -1.5 1494 l 257
 2049.5 1494 l 257
 2049.5 1554 l 257
 -1.5 1554 l 257
892.5 1546 m 257
 892.5 1015 l 257
 952.5 1015 l 257
 952.5 1546 l 257
 892.5 1546 l 257
892.5 1025 m 257
 892.5 965 l 257
 1947.5 965 l 257
 1947.5 1025 l 257
 892.5 1025 l 257
1913.5 1025 m 257
 1913.5 305 l 257
 1973.5 305 l 257
 1973.5 1025 l 257
 1913.5 1025 l 257
58.5 362 m 257
 58.5 300 l 257
 1973.5 300 l 257
 1973.5 362 l 257
 58.5 362 l 257
58.5 631 m 257
 58.5 305 l 257
 118.5 305 l 257
 118.5 631 l 257
 58.5 631 l 257
1235 284 m 257
 1235 223 l 257
 1579 223 l 257
 1579 284 l 257
 1235 284 l 257
1550 229 m 257
 2041 -118 l 257
 2071 -66 l 257
 1579 285 l 257
 1550 229 l 257
EndSplineSet
Ligature2: "halfHalfFormsinDevanagarilookup0 subtable" uni0921 uni094D
EndChar

StartChar: uni0922_uni094D.half
Encoding: 569 -1 569
GlifName: uni0922_uni094D_.half
Width: 2048
VWidth: 0
GlyphClass: 3
Flags: W
LayerCount: 2
Fore
SplineSet
0 1549 m 257
 0 1488 l 257
 2048 1488 l 257
 2048 1549 l 257
 0 1549 l 257
1711 1528 m 257
 1711 988 l 257
 1793 988 l 257
 1793 1528 l 257
 1711 1528 l 257
1793 1023 m 257
 120 1023 l 257
 120 962 l 257
 1793 962 l 257
 1793 1023 l 257
99 1024 m 257
 99 305 l 257
 159 305 l 257
 159 1024 l 257
 99 1024 l 257
99 360 m 257
 99 300 l 257
 1836 300 l 257
 1836 360 l 257
 99 360 l 257
1778 844 m 257
 1778 298 l 257
 1838 298 l 257
 1838 844 l 257
 1778 844 l 257
1508 847 m 257
 1508 787 l 257
 1836 787 l 257
 1836 847 l 257
 1508 847 l 257
1235 284 m 257
 1235 223 l 257
 1579 223 l 257
 1579 284 l 257
 1235 284 l 257
1550 229 m 257
 2041 -118 l 257
 2071 -66 l 257
 1579 285 l 257
 1550 229 l 257
EndSplineSet
Ligature2: "halfHalfFormsinDevanagarilookup0 subtable" uni0922 uni094D
EndChar

StartChar: uni0923_uni094D.half
Encoding: 570 -1 570
GlifName: uni0923_uni094D_.half
Width: 2048
VWidth: 0
GlyphClass: 3
Flags: W
LayerCount: 2
Fore
SplineSet
-3 1548 m 257
 -3 1488 l 257
 2051 1488 l 257
 2051 1548 l 257
 -3 1548 l 257
507 1543 m 257
 507 855 l 257
 567 855 l 257
 567 1543 l 257
 507 1543 l 257
1515 1528 m 257
 1515 844 l 257
 1575 844 l 257
 1575 1528 l 257
 1515 1528 l 257
507 885 m 257
 507 825 l 257
 1575 825 l 257
 1575 885 l 257
 507 885 l 257
EndSplineSet
Ligature2: "halfHalfFormsinDevanagarilookup0 subtable" uni0923 uni094D
EndChar

StartChar: uni0924_uni094D.half
Encoding: 571 -1 571
GlifName: uni0924_uni094D_.half
Width: 2048
VWidth: 0
GlyphClass: 3
Flags: W
LayerCount: 2
Fore
SplineSet
-15 1557 m 257
 -15 1497 l 257
 2063 1497 l 257
 2063 1557 l 257
 -15 1557 l 257
2127 788 m 257
 420 788 l 257
 420 728 l 257
 2127 728 l 257
 2127 788 l 257
420 766 m 257
 420 26 l 257
 480 26 l 257
 480 766 l 257
 420 766 l 257
EndSplineSet
Ligature2: "halfHalfFormsinDevanagarilookup0 subtable" uni0924 uni094D
EndChar

StartChar: uni0925_uni094D.half
Encoding: 572 -1 572
GlifName: uni0925_uni094D_.half
Width: 2048
VWidth: 0
GlyphClass: 3
Flags: W
LayerCount: 2
Fore
SplineSet
1697 1552 m 257
 1697 1492 l 257
 2081 1492 l 257
 2081 1552 l 257
 1697 1552 l 257
67 1550 m 257
 67 1490 l 257
 1024 1490 l 257
 1024 1550 l 257
 67 1550 l 257
963 1503 m 257
 963 986 l 257
 1023 986 l 257
 1023 1503 l 257
 963 1503 l 257
1024 1018 m 257
 71 1018 l 257
 71 957 l 257
 1024 957 l 257
 1024 1018 l 257
71 983 m 257
 71 132 l 257
 130 132 l 257
 130 983 l 257
 71 983 l 257
71 191 m 257
 71 132 l 257
 2032 132 l 257
 2032 191 l 257
 71 191 l 257
EndSplineSet
Ligature2: "halfHalfFormsinDevanagarilookup0 subtable" uni0925 uni094D
EndChar

StartChar: uni0926_uni094D.half
Encoding: 573 -1 573
GlifName: uni0926_uni094D_.half
Width: 2048
VWidth: 0
GlyphClass: 3
Flags: W
LayerCount: 2
Fore
SplineSet
3.5 1553 m 257
 3.5 1493 l 257
 2044.5 1493 l 257
 2044.5 1553 l 257
 3.5 1553 l 257
1133.5 1515 m 257
 1133.5 966 l 257
 1192.5 966 l 257
 1192.5 1515 l 257
 1133.5 1515 l 257
1191.5 1023 m 257
 57.5 1023 l 257
 57.5 963 l 257
 1191.5 963 l 257
 1191.5 1023 l 257
57.5 1011 m 257
 57.5 618 l 257
 116.5 618 l 257
 116.5 1011 l 257
 57.5 1011 l 257
57.5 646 m 257
 57.5 585 l 257
 1321.5 585 l 257
 1321.5 646 l 257
 57.5 646 l 257
1261.5 625 m 257
 1261.5 293 l 257
 1321.5 293 l 257
 1321.5 625 l 257
 1261.5 625 l 257
1259 284 m 257
 1259 223 l 257
 1603 223 l 257
 1603 284 l 257
 1259 284 l 257
1574 229 m 257
 2065 -118 l 257
 2095 -66 l 257
 1603 285 l 257
 1574 229 l 257
EndSplineSet
Ligature2: "halfHalfFormsinDevanagarilookup0 subtable" uni0926 uni094D
EndChar

StartChar: uni0927_uni094D.half
Encoding: 574 -1 574
GlifName: uni0927_uni094D_.half
Width: 2048
VWidth: 0
GlyphClass: 3
Flags: W
LayerCount: 2
Fore
SplineSet
207 1553 m 257
 207 1492 l 257
 1111 1492 l 257
 1111 1553 l 257
 207 1553 l 257
207 1501 m 257
 207 844 l 257
 268 844 l 257
 268 1501 l 257
 207 1501 l 257
206 882 m 257
 206 823 l 257
 1117 823 l 257
 1117 882 l 257
 206 882 l 257
240 830 m 257
 240 163 l 257
 300 163 l 257
 300 830 l 257
 240 830 l 257
240 186 m 257
 240 126 l 257
 2049 126 l 257
 2049 186 l 257
 240 186 l 257
EndSplineSet
Ligature2: "halfHalfFormsinDevanagarilookup0 subtable" uni0927 uni094D
EndChar

StartChar: uni0928_uni094D.half
Encoding: 575 -1 575
GlifName: uni0928_uni094D_.half
Width: 2048
VWidth: 0
GlyphClass: 3
Flags: W
LayerCount: 2
Fore
SplineSet
3 1552 m 257
 3 1493 l 257
 2045 1493 l 257
 2045 1552 l 257
 3 1552 l 257
248 744 m 257
 248 683 l 257
 2049 683 l 257
 2049 744 l 257
 248 744 l 257
249 741 m 257
 249 456 l 257
 309 456 l 257
 309 741 l 257
 249 741 l 257
EndSplineSet
Ligature2: "halfHalfFormsinDevanagarilookup0 subtable" uni0928 uni094D
EndChar

StartChar: uni0929_uni094D.half
Encoding: 576 -1 576
GlifName: uni0929_uni094D_.half
Width: 2048
VWidth: 0
GlyphClass: 3
Flags: W
LayerCount: 2
Fore
SplineSet
0 1552 m 257
 0 1493 l 257
 2042 1493 l 257
 2042 1552 l 257
 0 1552 l 257
245 744 m 257
 245 683 l 257
 2046 683 l 257
 2046 744 l 257
 245 744 l 257
246 741 m 257
 246 456 l 257
 306 456 l 257
 306 741 l 257
 246 741 l 257
1174.5 -52 m 257
 1174.5 -166 l 257
 1317.5 -166 l 257
 1317.5 -52 l 257
 1174.5 -52 l 257
EndSplineSet
Ligature2: "halfHalfFormsinDevanagarilookup0 subtable" uni0929 uni094D
EndChar

StartChar: uni092A_uni094D.half
Encoding: 577 -1 577
GlifName: uni092A__uni094D_.half
Width: 2048
VWidth: 0
GlyphClass: 3
Flags: W
LayerCount: 2
Fore
SplineSet
-4 1552 m 257
 -4 1491 l 257
 2052 1491 l 257
 2052 1552 l 257
 -4 1552 l 257
98 1551 m 257
 98 965 l 257
 158 965 l 257
 158 1551 l 257
 98 1551 l 257
98 1025 m 257
 98 966 l 257
 2078 966 l 257
 2078 1025 l 257
 98 1025 l 257
EndSplineSet
Ligature2: "halfHalfFormsinDevanagarilookup0 subtable" uni092A uni094D
EndChar

StartChar: uni092B_uni094D.half
Encoding: 578 -1 578
GlifName: uni092B__uni094D_.half
Width: 2048
VWidth: 0
GlyphClass: 3
Flags: W
LayerCount: 2
Fore
SplineSet
0.5 1551 m 257
 0.5 1491 l 257
 2047.5 1491 l 257
 2047.5 1551 l 257
 0.5 1551 l 257
1452.5 1539 m 257
 1452.5 2 l 257
 1512.5 2 l 257
 1512.5 1539 l 257
 1452.5 1539 l 257
93.5 1551 m 257
 93.5 965 l 257
 153.5 965 l 257
 153.5 1551 l 257
 93.5 1551 l 257
93.5 1024 m 257
 93.5 964 l 257
 2087.5 964 l 257
 2087.5 1024 l 257
 93.5 1024 l 257
EndSplineSet
Ligature2: "halfHalfFormsinDevanagarilookup0 subtable" uni092B uni094D
EndChar

StartChar: uni092C_uni094D.half
Encoding: 579 -1 579
GlifName: uni092C__uni094D_.half
Width: 2048
VWidth: 0
GlyphClass: 3
Flags: W
LayerCount: 2
Fore
SplineSet
-0.5 1550 m 257
 -0.5 1491 l 257
 2048.5 1491 l 257
 2048.5 1550 l 257
 -0.5 1550 l 257
326.5 1021 m 257
 326.5 232 l 257
 386.5 232 l 257
 386.5 1021 l 257
 326.5 1021 l 257
327.5 264 m 257
 327.5 204 l 257
 2083.5 204 l 257
 2083.5 264 l 257
 327.5 264 l 257
351.5 926 m 257
 1998.5 259 l 257
 2086.5 262 l 257
 389.5 968 l 257
 351.5 926 l 257
325.5 1025 m 257
 325.5 964 l 257
 1375.5 964 l 257
 1375.5 1025 l 257
 325.5 1025 l 257
EndSplineSet
Ligature2: "halfHalfFormsinDevanagarilookup0 subtable" uni092C uni094D
EndChar

StartChar: uni092D_uni094D.half
Encoding: 580 -1 580
GlifName: uni092D__uni094D_.half
Width: 2048
VWidth: 0
GlyphClass: 3
Flags: W
LayerCount: 2
Fore
SplineSet
72 61 m 257
 72 0 l 257
 576 0 l 257
 576 61 l 257
 72 61 l 257
72 320 m 257
 72 0 l 257
 140 0 l 257
 140 320 l 257
 72 320 l 257
1582.5 1551 m 257
 1582.5 1492 l 257
 2027.5 1492 l 257
 2027.5 1551 l 257
 1582.5 1551 l 257
20.5 1552 m 257
 20.5 1099 l 257
 80.5 1099 l 257
 80.5 1552 l 257
 20.5 1552 l 257
46.5 1552 m 257
 46.5 1491 l 257
 619.5 1491 l 257
 619.5 1552 l 257
 46.5 1552 l 257
573.5 1551 m 257
 573.5 -1 l 257
 633.5 -1 l 257
 633.5 1551 l 257
 573.5 1551 l 257
79.5 333 m 257
 79.5 273 l 257
 2073.5 273 l 257
 2073.5 333 l 257
 79.5 333 l 257
EndSplineSet
Ligature2: "halfHalfFormsinDevanagarilookup0 subtable" uni092D uni094D
EndChar

StartChar: uni092E_uni094D.half
Encoding: 581 -1 581
GlifName: uni092E__uni094D_.half
Width: 2048
VWidth: 0
GlyphClass: 3
Flags: W
LayerCount: 2
Fore
SplineSet
72 61 m 257
 72 0 l 257
 626 0 l 257
 626 61 l 257
 72 61 l 257
72 320 m 257
 72 0 l 257
 140 0 l 257
 140 320 l 257
 72 320 l 257
3 1548 m 257
 3 1488 l 257
 2045 1488 l 257
 2045 1548 l 257
 3 1548 l 257
591 1538 m 257
 591 0 l 257
 650 0 l 257
 650 1538 l 257
 591 1538 l 257
97 333 m 257
 97 273 l 257
 2091 273 l 257
 2091 333 l 257
 97 333 l 257
EndSplineSet
Ligature2: "halfHalfFormsinDevanagarilookup0 subtable" uni092E uni094D
EndChar

StartChar: uni092F_uni094D.half
Encoding: 582 -1 582
GlifName: uni092F__uni094D_.half
Width: 2048
VWidth: 0
GlyphClass: 3
Flags: W
LayerCount: 2
Fore
SplineSet
-9 1550 m 257
 -9 1489 l 257
 2057 1489 l 257
 2057 1550 l 257
 -9 1550 l 257
134 1490 m 257
 626 847 l 257
 684 846 l 257
 187 1542 l 257
 134 1490 l 257
626 847 m 257
 137 472 l 257
 197 462 l 257
 684 846 l 257
 626 847 l 257
206 524 m 257
 137 472 l 257
 2043 199 l 257
 2066 256 l 257
 206 524 l 257
EndSplineSet
Ligature2: "halfHalfFormsinDevanagarilookup0 subtable" uni092F uni094D
EndChar

StartChar: uni0930_uni094D.half
Encoding: 583 -1 583
GlifName: uni0930_uni094D_.half
Width: 2048
VWidth: 0
GlyphClass: 3
Flags: W
LayerCount: 2
Fore
SplineSet
-0.5 1552 m 257
 -0.5 1492 l 257
 2048.5 1492 l 257
 2048.5 1552 l 257
 -0.5 1552 l 257
2069.45 942.378 m 257
 1854.12 787.048 l 257
 1896.55 744.622 l 257
 2111.88 899.952 l 257
 2069.45 942.378 l 257
1897.5 802 m 257
 952.5 802 l 257
 952.5 742 l 257
 1897.5 742 l 257
 1897.5 802 l 257
700.5 920 m 257
 952.5 742 l 257
 952.5 802 l 257
 734.5 980 l 257
 700.5 920 l 257
EndSplineSet
Ligature2: "halfHalfFormsinDevanagarilookup0 subtable" uni0930 uni094D
EndChar

